<svg width="20" height="21" viewBox="0 0 20 21" fill="none" xmlns="http://www.w3.org/2000/svg">
<path d="M14.1667 13.2149H10.8333M17.5 8.21493H2.5M16.6667 16.5483H3.33333C3.11232 16.5483 2.90036 16.4605 2.74408 16.3042C2.5878 16.1479 2.5 15.9359 2.5 15.7149V5.71493C2.5 5.49391 2.5878 5.28195 2.74408 5.12567C2.90036 4.96939 3.11232 4.88159 3.33333 4.88159H16.6667C16.8877 4.88159 17.0996 4.96939 17.2559 5.12567C17.4122 5.28195 17.5 5.49391 17.5 5.71493V15.7149C17.5 15.9359 17.4122 16.1479 17.2559 16.3042C17.0996 16.4605 16.8877 16.5483 16.6667 16.5483Z" stroke="#ED5826" stroke-width="2" stroke-linecap="round" stroke-linejoin="round"/>
</svg>
