<svg width="20" height="21" viewBox="0 0 20 21" fill="none" xmlns="http://www.w3.org/2000/svg">
<path d="M12.5 13.2148L7.5 8.21484M7.5 13.2148L12.5 8.21484M17.5 10.7148C17.5 12.1982 17.0601 13.6483 16.236 14.8816C15.4119 16.115 14.2406 17.0763 12.8701 17.6439C11.4997 18.2116 9.99168 18.3601 8.53683 18.0707C7.08197 17.7813 5.7456 17.067 4.6967 16.0181C3.64781 14.9692 2.9335 13.6329 2.64411 12.178C2.35472 10.7232 2.50325 9.21516 3.07091 7.84472C3.63856 6.47427 4.59986 5.30293 5.83323 4.47882C7.0666 3.65471 8.51664 3.21484 10 3.21484C11.9891 3.21484 13.8968 4.00502 15.3033 5.41154C16.7098 6.81807 17.5 8.72572 17.5 10.7148Z" stroke="#ED5826" stroke-width="2" stroke-linecap="round" stroke-linejoin="round"/>
</svg>
