<svg width="20" height="21" viewBox="0 0 20 21" fill="none" xmlns="http://www.w3.org/2000/svg">
<path d="M12.5 13.25L7.5 8.25M7.5 13.25L12.5 8.25M17.5 10.75C17.5 12.2334 17.0601 13.6834 16.236 14.9168C15.4119 16.1501 14.2406 17.1114 12.8701 17.6791C11.4997 18.2468 9.99168 18.3953 8.53683 18.1059C7.08197 17.8165 5.7456 17.1022 4.6967 16.0533C3.64781 15.0044 2.9335 13.668 2.64411 12.2132C2.35472 10.7583 2.50325 9.25032 3.07091 7.87987C3.63856 6.50943 4.59986 5.33809 5.83323 4.51398C7.0666 3.68987 8.51664 3.25 10 3.25C11.9891 3.25 13.8968 4.04018 15.3033 5.4467C16.7098 6.85322 17.5 8.76088 17.5 10.75Z" stroke="#ED5826" stroke-width="2" stroke-linecap="round" stroke-linejoin="round"/>
</svg>
