<svg width="21" height="21" viewBox="0 0 21 21" fill="none" xmlns="http://www.w3.org/2000/svg">
<path d="M16.527 3.65324H14.8604V2.81991C14.8604 2.59889 14.7726 2.38693 14.6163 2.23065C14.46 2.07437 14.248 1.98657 14.027 1.98657C13.806 1.98657 13.594 2.07437 13.4378 2.23065C13.2815 2.38693 13.1937 2.59889 13.1937 2.81991V3.65324H8.19368V2.81991C8.19368 2.59889 8.10589 2.38693 7.94961 2.23065C7.79333 2.07437 7.58137 1.98657 7.36035 1.98657C7.13934 1.98657 6.92738 2.07437 6.7711 2.23065C6.61482 2.38693 6.52702 2.59889 6.52702 2.81991V3.65324H4.86035C4.19731 3.65324 3.56143 3.91663 3.09258 4.38547C2.62374 4.85431 2.36035 5.4902 2.36035 6.15324V16.1532C2.36035 16.8163 2.62374 17.4522 3.09258 17.921C3.56143 18.3898 4.19731 18.6532 4.86035 18.6532H16.527C17.1901 18.6532 17.8259 18.3898 18.2948 17.921C18.7636 17.4522 19.027 16.8163 19.027 16.1532V6.15324C19.027 5.4902 18.7636 4.85431 18.2948 4.38547C17.8259 3.91663 17.1901 3.65324 16.527 3.65324ZM17.3604 16.1532C17.3604 16.3743 17.2726 16.5862 17.1163 16.7425C16.96 16.8988 16.748 16.9866 16.527 16.9866H4.86035C4.63934 16.9866 4.42738 16.8988 4.2711 16.7425C4.11482 16.5862 4.02702 16.3743 4.02702 16.1532V10.3199H17.3604V16.1532ZM17.3604 8.65324H4.02702V6.15324C4.02702 5.93222 4.11482 5.72026 4.2711 5.56398C4.42738 5.4077 4.63934 5.31991 4.86035 5.31991H6.52702V6.15324C6.52702 6.37425 6.61482 6.58621 6.7711 6.74249C6.92738 6.89877 7.13934 6.98657 7.36035 6.98657C7.58137 6.98657 7.79333 6.89877 7.94961 6.74249C8.10589 6.58621 8.19368 6.37425 8.19368 6.15324V5.31991H13.1937V6.15324C13.1937 6.37425 13.2815 6.58621 13.4378 6.74249C13.594 6.89877 13.806 6.98657 14.027 6.98657C14.248 6.98657 14.46 6.89877 14.6163 6.74249C14.7726 6.58621 14.8604 6.37425 14.8604 6.15324V5.31991H16.527C16.748 5.31991 16.96 5.4077 17.1163 5.56398C17.2726 5.72026 17.3604 5.93222 17.3604 6.15324V8.65324Z" fill="#ED5826"/>
</svg>
