<svg width="20" height="20" viewBox="0 0 20 20" fill="none" xmlns="http://www.w3.org/2000/svg">
<path d="M15.6315 2.91667H13.9648V2.08333C13.9648 1.86232 13.877 1.65036 13.7208 1.49408C13.5645 1.3378 13.3525 1.25 13.1315 1.25C12.9105 1.25 12.6985 1.3378 12.5423 1.49408C12.386 1.65036 12.2982 1.86232 12.2982 2.08333V2.91667H7.29818V2.08333C7.29818 1.86232 7.21038 1.65036 7.0541 1.49408C6.89782 1.3378 6.68586 1.25 6.46484 1.25C6.24383 1.25 6.03187 1.3378 5.87559 1.49408C5.71931 1.65036 5.63151 1.86232 5.63151 2.08333V2.91667H3.96484C3.3018 2.91667 2.66592 3.18006 2.19708 3.6489C1.72824 4.11774 1.46484 4.75363 1.46484 5.41667V15.4167C1.46484 16.0797 1.72824 16.7156 2.19708 17.1844C2.66592 17.6533 3.3018 17.9167 3.96484 17.9167H15.6315C16.2946 17.9167 16.9304 17.6533 17.3993 17.1844C17.8681 16.7156 18.1315 16.0797 18.1315 15.4167V5.41667C18.1315 4.75363 17.8681 4.11774 17.3993 3.6489C16.9304 3.18006 16.2946 2.91667 15.6315 2.91667ZM16.4648 15.4167C16.4648 15.6377 16.377 15.8496 16.2208 16.0059C16.0645 16.1622 15.8525 16.25 15.6315 16.25H3.96484C3.74383 16.25 3.53187 16.1622 3.37559 16.0059C3.21931 15.8496 3.13151 15.6377 3.13151 15.4167V9.58333H16.4648V15.4167ZM16.4648 7.91667H3.13151V5.41667C3.13151 5.19565 3.21931 4.98369 3.37559 4.82741C3.53187 4.67113 3.74383 4.58333 3.96484 4.58333H5.63151V5.41667C5.63151 5.63768 5.71931 5.84964 5.87559 6.00592C6.03187 6.1622 6.24383 6.25 6.46484 6.25C6.68586 6.25 6.89782 6.1622 7.0541 6.00592C7.21038 5.84964 7.29818 5.63768 7.29818 5.41667V4.58333H12.2982V5.41667C12.2982 5.63768 12.386 5.84964 12.5423 6.00592C12.6985 6.1622 12.9105 6.25 13.1315 6.25C13.3525 6.25 13.5645 6.1622 13.7208 6.00592C13.877 5.84964 13.9648 5.63768 13.9648 5.41667V4.58333H15.6315C15.8525 4.58333 16.0645 4.67113 16.2208 4.82741C16.377 4.98369 16.4648 5.19565 16.4648 5.41667V7.91667Z" fill="#ED5826"/>
</svg>
