<svg width="21" height="21" viewBox="0 0 21 21" fill="none" xmlns="http://www.w3.org/2000/svg">
<path d="M16.6852 3.65324H15.0186V2.81991C15.0186 2.59889 14.9308 2.38693 14.7745 2.23065C14.6182 2.07437 14.4062 1.98657 14.1852 1.98657C13.9642 1.98657 13.7522 2.07437 13.596 2.23065C13.4397 2.38693 13.3519 2.59889 13.3519 2.81991V3.65324H8.35189V2.81991C8.35189 2.59889 8.26409 2.38693 8.10781 2.23065C7.95153 2.07437 7.73957 1.98657 7.51855 1.98657C7.29754 1.98657 7.08558 2.07437 6.9293 2.23065C6.77302 2.38693 6.68522 2.59889 6.68522 2.81991V3.65324H5.01855C4.35551 3.65324 3.71963 3.91663 3.25079 4.38547C2.78195 4.85431 2.51855 5.4902 2.51855 6.15324V16.1532C2.51855 16.8163 2.78195 17.4522 3.25079 17.921C3.71963 18.3898 4.35551 18.6532 5.01855 18.6532H16.6852C17.3483 18.6532 17.9841 18.3898 18.453 17.921C18.9218 17.4522 19.1852 16.8163 19.1852 16.1532V6.15324C19.1852 5.4902 18.9218 4.85431 18.453 4.38547C17.9841 3.91663 17.3483 3.65324 16.6852 3.65324ZM17.5186 16.1532C17.5186 16.3743 17.4308 16.5862 17.2745 16.7425C17.1182 16.8988 16.9062 16.9866 16.6852 16.9866H5.01855C4.79754 16.9866 4.58558 16.8988 4.4293 16.7425C4.27302 16.5862 4.18522 16.3743 4.18522 16.1532V10.3199H17.5186V16.1532ZM17.5186 8.65324H4.18522V6.15324C4.18522 5.93222 4.27302 5.72026 4.4293 5.56398C4.58558 5.4077 4.79754 5.31991 5.01855 5.31991H6.68522V6.15324C6.68522 6.37425 6.77302 6.58621 6.9293 6.74249C7.08558 6.89877 7.29754 6.98657 7.51855 6.98657C7.73957 6.98657 7.95153 6.89877 8.10781 6.74249C8.26409 6.58621 8.35189 6.37425 8.35189 6.15324V5.31991H13.3519V6.15324C13.3519 6.37425 13.4397 6.58621 13.596 6.74249C13.7522 6.89877 13.9642 6.98657 14.1852 6.98657C14.4062 6.98657 14.6182 6.89877 14.7745 6.74249C14.9308 6.58621 15.0186 6.37425 15.0186 6.15324V5.31991H16.6852C16.9062 5.31991 17.1182 5.4077 17.2745 5.56398C17.4308 5.72026 17.5186 5.93222 17.5186 6.15324V8.65324Z" fill="#ED5826"/>
</svg>
