<svg width="21" height="21" viewBox="0 0 21 21" fill="none" xmlns="http://www.w3.org/2000/svg">
<path d="M16.0265 3.65324H14.3599V2.81991C14.3599 2.59889 14.2721 2.38693 14.1158 2.23065C13.9595 2.07437 13.7475 1.98657 13.5265 1.98657C13.3055 1.98657 13.0936 2.07437 12.9373 2.23065C12.781 2.38693 12.6932 2.59889 12.6932 2.81991V3.65324H7.6932V2.81991C7.6932 2.59889 7.6054 2.38693 7.44912 2.23065C7.29284 2.07437 7.08088 1.98657 6.85986 1.98657C6.63885 1.98657 6.42689 2.07437 6.27061 2.23065C6.11433 2.38693 6.02653 2.59889 6.02653 2.81991V3.65324H4.35986C3.69682 3.65324 3.06094 3.91663 2.5921 4.38547C2.12326 4.85431 1.85986 5.4902 1.85986 6.15324V16.1532C1.85986 16.8163 2.12326 17.4522 2.5921 17.921C3.06094 18.3898 3.69682 18.6532 4.35986 18.6532H16.0265C16.6896 18.6532 17.3255 18.3898 17.7943 17.921C18.2631 17.4522 18.5265 16.8163 18.5265 16.1532V6.15324C18.5265 5.4902 18.2631 4.85431 17.7943 4.38547C17.3255 3.91663 16.6896 3.65324 16.0265 3.65324ZM16.8599 16.1532C16.8599 16.3743 16.7721 16.5862 16.6158 16.7425C16.4595 16.8988 16.2475 16.9866 16.0265 16.9866H4.35986C4.13885 16.9866 3.92689 16.8988 3.77061 16.7425C3.61433 16.5862 3.52653 16.3743 3.52653 16.1532V10.3199H16.8599V16.1532ZM16.8599 8.65324H3.52653V6.15324C3.52653 5.93222 3.61433 5.72026 3.77061 5.56398C3.92689 5.4077 4.13885 5.31991 4.35986 5.31991H6.02653V6.15324C6.02653 6.37425 6.11433 6.58621 6.27061 6.74249C6.42689 6.89877 6.63885 6.98657 6.85986 6.98657C7.08088 6.98657 7.29284 6.89877 7.44912 6.74249C7.6054 6.58621 7.6932 6.37425 7.6932 6.15324V5.31991H12.6932V6.15324C12.6932 6.37425 12.781 6.58621 12.9373 6.74249C13.0936 6.89877 13.3055 6.98657 13.5265 6.98657C13.7475 6.98657 13.9595 6.89877 14.1158 6.74249C14.2721 6.58621 14.3599 6.37425 14.3599 6.15324V5.31991H16.0265C16.2475 5.31991 16.4595 5.4077 16.6158 5.56398C16.7721 5.72026 16.8599 5.93222 16.8599 6.15324V8.65324Z" fill="#ED5826"/>
</svg>
