<svg width="20" height="21" viewBox="0 0 20 21" fill="none" xmlns="http://www.w3.org/2000/svg">
<path d="M15.6315 3.66667H13.9648V2.83333C13.9648 2.61232 13.877 2.40036 13.7208 2.24408C13.5645 2.0878 13.3525 2 13.1315 2C12.9105 2 12.6985 2.0878 12.5423 2.24408C12.386 2.40036 12.2982 2.61232 12.2982 2.83333V3.66667H7.29818V2.83333C7.29818 2.61232 7.21038 2.40036 7.0541 2.24408C6.89782 2.0878 6.68586 2 6.46484 2C6.24383 2 6.03187 2.0878 5.87559 2.24408C5.71931 2.40036 5.63151 2.61232 5.63151 2.83333V3.66667H3.96484C3.3018 3.66667 2.66592 3.93006 2.19708 4.3989C1.72824 4.86774 1.46484 5.50363 1.46484 6.16667V16.1667C1.46484 16.8297 1.72824 17.4656 2.19708 17.9344C2.66592 18.4033 3.3018 18.6667 3.96484 18.6667H15.6315C16.2946 18.6667 16.9304 18.4033 17.3993 17.9344C17.8681 17.4656 18.1315 16.8297 18.1315 16.1667V6.16667C18.1315 5.50363 17.8681 4.86774 17.3993 4.3989C16.9304 3.93006 16.2946 3.66667 15.6315 3.66667ZM16.4648 16.1667C16.4648 16.3877 16.377 16.5996 16.2208 16.7559C16.0645 16.9122 15.8525 17 15.6315 17H3.96484C3.74383 17 3.53187 16.9122 3.37559 16.7559C3.21931 16.5996 3.13151 16.3877 3.13151 16.1667V10.3333H16.4648V16.1667ZM16.4648 8.66667H3.13151V6.16667C3.13151 5.94565 3.21931 5.73369 3.37559 5.57741C3.53187 5.42113 3.74383 5.33333 3.96484 5.33333H5.63151V6.16667C5.63151 6.38768 5.71931 6.59964 5.87559 6.75592C6.03187 6.9122 6.24383 7 6.46484 7C6.68586 7 6.89782 6.9122 7.0541 6.75592C7.21038 6.59964 7.29818 6.38768 7.29818 6.16667V5.33333H12.2982V6.16667C12.2982 6.38768 12.386 6.59964 12.5423 6.75592C12.6985 6.9122 12.9105 7 13.1315 7C13.3525 7 13.5645 6.9122 13.7208 6.75592C13.877 6.59964 13.9648 6.38768 13.9648 6.16667V5.33333H15.6315C15.8525 5.33333 16.0645 5.42113 16.2208 5.57741C16.377 5.73369 16.4648 5.94565 16.4648 6.16667V8.66667Z" fill="#ED5826"/>
</svg>
