<svg width="24" height="24" viewBox="0 0 24 24" fill="none" xmlns="http://www.w3.org/2000/svg">
<path d="M18.7559 3.5H16.7559V2.5C16.7559 2.23478 16.6505 1.98043 16.463 1.79289C16.2754 1.60536 16.0211 1.5 15.7559 1.5C15.4906 1.5 15.2363 1.60536 15.0488 1.79289C14.8612 1.98043 14.7559 2.23478 14.7559 2.5V3.5H8.75586V2.5C8.75586 2.23478 8.6505 1.98043 8.46297 1.79289C8.27543 1.60536 8.02108 1.5 7.75586 1.5C7.49064 1.5 7.23629 1.60536 7.04875 1.79289C6.86122 1.98043 6.75586 2.23478 6.75586 2.5V3.5H4.75586C3.96021 3.5 3.19715 3.81607 2.63454 4.37868C2.07193 4.94129 1.75586 5.70435 1.75586 6.5V18.5C1.75586 19.2956 2.07193 20.0587 2.63454 20.6213C3.19715 21.1839 3.96021 21.5 4.75586 21.5H18.7559C19.5515 21.5 20.3146 21.1839 20.8772 20.6213C21.4398 20.0587 21.7559 19.2956 21.7559 18.5V6.5C21.7559 5.70435 21.4398 4.94129 20.8772 4.37868C20.3146 3.81607 19.5515 3.5 18.7559 3.5ZM19.7559 18.5C19.7559 18.7652 19.6505 19.0196 19.463 19.2071C19.2754 19.3946 19.0211 19.5 18.7559 19.5H4.75586C4.49064 19.5 4.23629 19.3946 4.04875 19.2071C3.86122 19.0196 3.75586 18.7652 3.75586 18.5V11.5H19.7559V18.5ZM19.7559 9.5H3.75586V6.5C3.75586 6.23478 3.86122 5.98043 4.04875 5.79289C4.23629 5.60536 4.49064 5.5 4.75586 5.5H6.75586V6.5C6.75586 6.76522 6.86122 7.01957 7.04875 7.20711C7.23629 7.39464 7.49064 7.5 7.75586 7.5C8.02108 7.5 8.27543 7.39464 8.46297 7.20711C8.6505 7.01957 8.75586 6.76522 8.75586 6.5V5.5H14.7559V6.5C14.7559 6.76522 14.8612 7.01957 15.0488 7.20711C15.2363 7.39464 15.4906 7.5 15.7559 7.5C16.0211 7.5 16.2754 7.39464 16.463 7.20711C16.6505 7.01957 16.7559 6.76522 16.7559 6.5V5.5H18.7559C19.0211 5.5 19.2754 5.60536 19.463 5.79289C19.6505 5.98043 19.7559 6.23478 19.7559 6.5V9.5Z" fill="#ED5826"/>
</svg>
