<svg width="21" height="21" viewBox="0 0 21 21" fill="none" xmlns="http://www.w3.org/2000/svg">
<path d="M16.696 3.97795H15.0293V3.14461C15.0293 2.9236 14.9415 2.71164 14.7852 2.55536C14.6289 2.39908 14.417 2.31128 14.196 2.31128C13.9749 2.31128 13.763 2.39908 13.6067 2.55536C13.4504 2.71164 13.3626 2.9236 13.3626 3.14461V3.97795H8.36263V3.14461C8.36263 2.9236 8.27483 2.71164 8.11855 2.55536C7.96227 2.39908 7.75031 2.31128 7.5293 2.31128C7.30828 2.31128 7.09632 2.39908 6.94004 2.55536C6.78376 2.71164 6.69596 2.9236 6.69596 3.14461V3.97795H5.0293C4.36626 3.97795 3.73037 4.24134 3.26153 4.71018C2.79269 5.17902 2.5293 5.8149 2.5293 6.47795V16.4779C2.5293 17.141 2.79269 17.7769 3.26153 18.2457C3.73037 18.7146 4.36626 18.9779 5.0293 18.9779H16.696C17.359 18.9779 17.9949 18.7146 18.4637 18.2457C18.9326 17.7769 19.196 17.141 19.196 16.4779V6.47795C19.196 5.8149 18.9326 5.17902 18.4637 4.71018C17.9949 4.24134 17.359 3.97795 16.696 3.97795ZM17.5293 16.4779C17.5293 16.699 17.4415 16.9109 17.2852 17.0672C17.1289 17.2235 16.917 17.3113 16.696 17.3113H5.0293C4.80828 17.3113 4.59632 17.2235 4.44004 17.0672C4.28376 16.9109 4.19596 16.699 4.19596 16.4779V10.6446H17.5293V16.4779ZM17.5293 8.97795H4.19596V6.47795C4.19596 6.25693 4.28376 6.04497 4.44004 5.88869C4.59632 5.73241 4.80828 5.64461 5.0293 5.64461H6.69596V6.47795C6.69596 6.69896 6.78376 6.91092 6.94004 7.0672C7.09632 7.22348 7.30828 7.31128 7.5293 7.31128C7.75031 7.31128 7.96227 7.22348 8.11855 7.0672C8.27483 6.91092 8.36263 6.69896 8.36263 6.47795V5.64461H13.3626V6.47795C13.3626 6.69896 13.4504 6.91092 13.6067 7.0672C13.763 7.22348 13.9749 7.31128 14.196 7.31128C14.417 7.31128 14.6289 7.22348 14.7852 7.0672C14.9415 6.91092 15.0293 6.69896 15.0293 6.47795V5.64461H16.696C16.917 5.64461 17.1289 5.73241 17.2852 5.88869C17.4415 6.04497 17.5293 6.25693 17.5293 6.47795V8.97795Z" fill="#ED5826"/>
</svg>
