<svg width="21" height="21" viewBox="0 0 21 21" fill="none" xmlns="http://www.w3.org/2000/svg">
<path d="M16.1852 3.65324H14.5186V2.81991C14.5186 2.59889 14.4308 2.38693 14.2745 2.23065C14.1182 2.07437 13.9062 1.98657 13.6852 1.98657C13.4642 1.98657 13.2522 2.07437 13.096 2.23065C12.9397 2.38693 12.8519 2.59889 12.8519 2.81991V3.65324H7.85189V2.81991C7.85189 2.59889 7.76409 2.38693 7.60781 2.23065C7.45153 2.07437 7.23957 1.98657 7.01855 1.98657C6.79754 1.98657 6.58558 2.07437 6.4293 2.23065C6.27302 2.38693 6.18522 2.59889 6.18522 2.81991V3.65324H4.51855C3.85551 3.65324 3.21963 3.91663 2.75079 4.38547C2.28195 4.85431 2.01855 5.4902 2.01855 6.15324V16.1532C2.01855 16.8163 2.28195 17.4522 2.75079 17.921C3.21963 18.3898 3.85551 18.6532 4.51855 18.6532H16.1852C16.8483 18.6532 17.4841 18.3898 17.953 17.921C18.4218 17.4522 18.6852 16.8163 18.6852 16.1532V6.15324C18.6852 5.4902 18.4218 4.85431 17.953 4.38547C17.4841 3.91663 16.8483 3.65324 16.1852 3.65324ZM17.0186 16.1532C17.0186 16.3743 16.9308 16.5862 16.7745 16.7425C16.6182 16.8988 16.4062 16.9866 16.1852 16.9866H4.51855C4.29754 16.9866 4.08558 16.8988 3.9293 16.7425C3.77302 16.5862 3.68522 16.3743 3.68522 16.1532V10.3199H17.0186V16.1532ZM17.0186 8.65324H3.68522V6.15324C3.68522 5.93222 3.77302 5.72026 3.9293 5.56398C4.08558 5.4077 4.29754 5.31991 4.51855 5.31991H6.18522V6.15324C6.18522 6.37425 6.27302 6.58621 6.4293 6.74249C6.58558 6.89877 6.79754 6.98657 7.01855 6.98657C7.23957 6.98657 7.45153 6.89877 7.60781 6.74249C7.76409 6.58621 7.85189 6.37425 7.85189 6.15324V5.31991H12.8519V6.15324C12.8519 6.37425 12.9397 6.58621 13.096 6.74249C13.2522 6.89877 13.4642 6.98657 13.6852 6.98657C13.9062 6.98657 14.1182 6.89877 14.2745 6.74249C14.4308 6.58621 14.5186 6.37425 14.5186 6.15324V5.31991H16.1852C16.4062 5.31991 16.6182 5.4077 16.7745 5.56398C16.9308 5.72026 17.0186 5.93222 17.0186 6.15324V8.65324Z" fill="#ED5826"/>
</svg>
