<svg width="20" height="20" viewBox="0 0 20 20" fill="none" xmlns="http://www.w3.org/2000/svg">
<path d="M13.4875 16.14L11.47 14.1213C10.6898 14.4002 9.84643 14.4519 9.03802 14.2702C8.22962 14.0886 7.48941 13.6811 6.90352 13.0952C6.31764 12.5093 5.91018 11.7691 5.72854 10.9607C5.5469 10.1523 5.59856 9.30895 5.8775 8.52875L3.3025 5.95375C1.1725 7.8475 0 10 0 10C0 10 3.75 16.875 10 16.875C11.2005 16.8708 12.3874 16.6207 13.4875 16.14ZM6.5125 3.86C7.61257 3.37928 8.79949 3.12913 10 3.125C16.25 3.125 20 10 20 10C20 10 18.8263 12.1512 16.6987 14.0475L14.1213 11.47C14.4002 10.6898 14.4519 9.84643 14.2702 9.03802C14.0886 8.22962 13.6811 7.48941 13.0952 6.90352C12.5093 6.31764 11.7691 5.91018 10.9607 5.72854C10.1523 5.5469 9.30895 5.59856 8.52875 5.8775L6.5125 3.86125V3.86Z" fill="#1A1717"/>
<path d="M6.90734 9.55762C6.83858 10.038 6.88265 10.5278 7.03605 10.9882C7.18945 11.4486 7.44796 11.867 7.79111 12.2101C8.13426 12.5533 8.5526 12.8118 9.01301 12.9652C9.47341 13.1186 9.96321 13.1626 10.4436 13.0939L6.90609 9.55762H6.90734ZM13.0948 10.4426L9.55859 6.90512C10.039 6.83636 10.5288 6.88042 10.9892 7.03382C11.4496 7.18722 11.8679 7.44573 12.2111 7.78888C12.5542 8.13203 12.8127 8.55038 12.9661 9.01078C13.1195 9.47118 13.1636 9.96098 13.0948 10.4414V10.4426ZM17.0586 17.9426L2.05859 2.94262L2.94359 2.05762L17.9436 17.0576L17.0586 17.9426Z" fill="#1A1717"/>
</svg>
