<svg width="20" height="21" viewBox="0 0 20 21" fill="none" xmlns="http://www.w3.org/2000/svg">
<path d="M13.4875 16.64L11.47 14.6213C10.6898 14.9002 9.84643 14.9519 9.03802 14.7702C8.22962 14.5886 7.48941 14.1811 6.90352 13.5952C6.31764 13.0093 5.91018 12.2691 5.72854 11.4607C5.5469 10.6523 5.59856 9.80895 5.8775 9.02875L3.3025 6.45375C1.1725 8.3475 0 10.5 0 10.5C0 10.5 3.75 17.375 10 17.375C11.2005 17.3708 12.3874 17.1207 13.4875 16.64ZM6.5125 4.36C7.61257 3.87928 8.79949 3.62913 10 3.625C16.25 3.625 20 10.5 20 10.5C20 10.5 18.8263 12.6512 16.6987 14.5475L14.1213 11.97C14.4002 11.1898 14.4519 10.3464 14.2702 9.53802C14.0886 8.72962 13.6811 7.98941 13.0952 7.40352C12.5093 6.81764 11.7691 6.41018 10.9607 6.22854C10.1523 6.0469 9.30895 6.09856 8.52875 6.3775L6.5125 4.36125V4.36Z" fill="#1A1717"/>
<path d="M6.90734 10.0576C6.83858 10.538 6.88265 11.0278 7.03605 11.4882C7.18945 11.9486 7.44796 12.367 7.79111 12.7101C8.13426 13.0533 8.5526 13.3118 9.01301 13.4652C9.47341 13.6186 9.96321 13.6626 10.4436 13.5939L6.90609 10.0576H6.90734ZM13.0948 10.9426L9.55859 7.40512C10.039 7.33636 10.5288 7.38042 10.9892 7.53382C11.4496 7.68722 11.8679 7.94573 12.2111 8.28888C12.5542 8.63203 12.8127 9.05038 12.9661 9.51078C13.1195 9.97118 13.1636 10.461 13.0948 10.9414V10.9426ZM17.0586 18.4426L2.05859 3.44262L2.94359 2.55762L17.9436 17.5576L17.0586 18.4426Z" fill="#1A1717"/>
</svg>
