<svg width="21" height="21" viewBox="0 0 21 21" fill="none" xmlns="http://www.w3.org/2000/svg">
<g clip-path="url(#clip0_23_2974)">
<path d="M13.9875 17.0531L11.97 15.0343C11.1898 15.3133 10.3464 15.3649 9.53802 15.1833C8.72962 15.0017 7.98941 14.5942 7.40352 14.0083C6.81764 13.4224 6.41018 12.6822 6.22854 11.8738C6.0469 11.0654 6.09856 10.222 6.3775 9.44184L3.8025 6.86684C1.6725 8.76059 0.5 10.9131 0.5 10.9131C0.5 10.9131 4.25 17.7881 10.5 17.7881C11.7005 17.7839 12.8874 17.5338 13.9875 17.0531ZM7.0125 4.77309C8.11257 4.29237 9.29949 4.04222 10.5 4.03809C16.75 4.03809 20.5 10.9131 20.5 10.9131C20.5 10.9131 19.3263 13.0643 17.1987 14.9606L14.6213 12.3831C14.9002 11.6029 14.9519 10.7595 14.7702 9.95111C14.5886 9.1427 14.1811 8.40249 13.5952 7.81661C13.0093 7.23073 12.2691 6.82326 11.4607 6.64162C10.6523 6.45998 9.80895 6.51164 9.02875 6.79059L7.0125 4.77434V4.77309Z" fill="#1A1717"/>
<path d="M7.40734 10.4707C7.33858 10.9511 7.38265 11.4409 7.53605 11.9013C7.68945 12.3617 7.94796 12.78 8.29111 13.1232C8.63426 13.4663 9.0526 13.7249 9.51301 13.8782C9.97341 14.0316 10.4632 14.0757 10.9436 14.007L7.40609 10.4707H7.40734ZM13.5948 11.3557L10.0586 7.8182C10.539 7.74944 11.0288 7.79351 11.4892 7.94691C11.9496 8.10031 12.3679 8.35882 12.7111 8.70197C13.0542 9.04511 13.3127 9.46346 13.4661 9.92386C13.6195 10.3843 13.6636 10.8741 13.5948 11.3545V11.3557ZM17.5586 18.8557L2.55859 3.8557L3.44359 2.9707L18.4436 17.9707L17.5586 18.8557Z" fill="#1A1717"/>
</g>
<defs>
<clipPath id="clip0_23_2974">
<rect width="20" height="20" fill="white" transform="translate(0.5 0.913086)"/>
</clipPath>
</defs>
</svg>
