<svg width="36" height="36" viewBox="0 0 36 36" fill="none" xmlns="http://www.w3.org/2000/svg">
<g clip-path="url(#clip0_23_5070)">
<path d="M18 36C27.9411 36 36 27.9411 36 18C36 8.05888 27.9411 0 18 0C8.05888 0 0 8.05888 0 18C0 27.9411 8.05888 36 18 36Z" fill="#3C5A9A"/>
<path d="M23.8521 5.52539H19.8646C17.4983 5.52539 14.8664 6.52062 14.8664 9.95064C14.8779 11.1458 14.8664 12.2904 14.8664 13.5786H12.1289V17.9347H14.9511V30.4752H20.137V17.8519H23.5599L23.8696 13.5663H20.0476C20.0476 13.5663 20.0562 11.6599 20.0476 11.1063C20.0476 9.75084 21.458 9.82846 21.5429 9.82846C22.214 9.82846 23.519 9.83042 23.854 9.82846V5.52539H23.8521Z" fill="white"/>
</g>
<defs>
<clipPath id="clip0_23_5070">
<rect width="36" height="36" fill="white"/>
</clipPath>
</defs>
</svg>
