<svg width="37" height="37" viewBox="0 0 37 37" fill="none" xmlns="http://www.w3.org/2000/svg">
<g clip-path="url(#clip0_23_2954)">
<path d="M18.5 36.9131C28.4411 36.9131 36.5 28.8542 36.5 18.9131C36.5 8.97196 28.4411 0.913086 18.5 0.913086C8.55888 0.913086 0.5 8.97196 0.5 18.9131C0.5 28.8542 8.55888 36.9131 18.5 36.9131Z" fill="#3C5A9A"/>
<path d="M24.3521 6.43848H20.3646C17.9983 6.43848 15.3664 7.4337 15.3664 10.8637C15.3779 12.0589 15.3664 13.2035 15.3664 14.4917H12.6289V18.8478H15.4511V31.3883H20.637V18.765H24.0599L24.3696 14.4794H20.5476C20.5476 14.4794 20.5562 12.573 20.5476 12.0194C20.5476 10.6639 21.958 10.7415 22.0429 10.7415C22.714 10.7415 24.019 10.7435 24.354 10.7415V6.43848H24.3521Z" fill="white"/>
</g>
<defs>
<clipPath id="clip0_23_2954">
<rect width="36" height="36" fill="white" transform="translate(0.5 0.913086)"/>
</clipPath>
</defs>
</svg>
