<svg width="28" height="28" viewBox="0 0 28 28" fill="none" xmlns="http://www.w3.org/2000/svg">
<path d="M14.8184 8.09375C14.8184 7.86997 14.7295 7.65536 14.5712 7.49713C14.413 7.33889 14.1984 7.25 13.9746 7.25C13.7508 7.25 13.5362 7.33889 13.378 7.49713C13.2198 7.65536 13.1309 7.86997 13.1309 8.09375V14.2812C13.1309 14.7425 13.5134 15.125 13.9746 15.125H19.3184C19.5421 15.125 19.7567 15.0361 19.915 14.8779C20.0732 14.7196 20.1621 14.505 20.1621 14.2812C20.1621 14.0575 20.0732 13.8429 19.915 13.6846C19.7567 13.5264 19.5421 13.4375 19.3184 13.4375H14.8184V8.09375Z" fill="#ED5826"/>
<path fill-rule="evenodd" clip-rule="evenodd" d="M14.2559 2.75C11.2722 2.75 8.41069 3.93526 6.30091 6.04505C4.19112 8.15483 3.00586 11.0163 3.00586 14C3.00586 16.9837 4.19112 19.8452 6.30091 21.955C8.41069 24.0647 11.2722 25.25 14.2559 25.25C17.2395 25.25 20.101 24.0647 22.2108 21.955C24.3206 19.8452 25.5059 16.9837 25.5059 14C25.5059 11.0163 24.3206 8.15483 22.2108 6.04505C20.101 3.93526 17.2395 2.75 14.2559 2.75ZM4.69336 14C4.69336 11.4639 5.70083 9.03161 7.49415 7.23829C9.28747 5.44498 11.7197 4.4375 14.2559 4.4375C16.792 4.4375 19.2243 5.44498 21.0176 7.23829C22.8109 9.03161 23.8184 11.4639 23.8184 14C23.8184 16.5361 22.8109 18.9684 21.0176 20.7617C19.2243 22.555 16.792 23.5625 14.2559 23.5625C11.7197 23.5625 9.28747 22.555 7.49415 20.7617C5.70083 18.9684 4.69336 16.5361 4.69336 14Z" fill="#ED5826"/>
</svg>
