<svg width="28" height="28" viewBox="0 0 28 28" fill="none" xmlns="http://www.w3.org/2000/svg">
<path fill-rule="evenodd" clip-rule="evenodd" d="M10.5996 2.75C9.7791 2.75 8.99219 3.07595 8.412 3.65614C7.83181 4.23633 7.50586 5.02324 7.50586 5.84375V22.1562C7.50586 22.9768 7.83181 23.7637 8.412 24.3439C8.69928 24.6311 9.04033 24.859 9.41568 25.0145C9.79103 25.17 10.1933 25.25 10.5996 25.25H17.9121C18.7326 25.25 19.5195 24.9241 20.0997 24.3439C20.6799 23.7637 21.0059 22.9768 21.0059 22.1562V5.84375C21.0059 5.02324 20.6799 4.23633 20.0997 3.65614C19.5195 3.07595 18.7326 2.75 17.9121 2.75H10.5996ZM19.3184 19.0625V5.84375C19.3184 5.0675 18.6884 4.4375 17.9121 4.4375H10.5996C9.82336 4.4375 9.19336 5.0675 9.19336 5.84375V19.0625H19.3184ZM9.19336 20.75H19.3184V22.1562C19.3184 22.9325 18.6884 23.5625 17.9121 23.5625H10.5996C9.82336 23.5625 9.19336 22.9325 9.19336 22.1562V20.75Z" fill="#ED5826"/>
</svg>
