<svg width="28" height="28" viewBox="0 0 28 28" fill="none" xmlns="http://www.w3.org/2000/svg">
<path d="M12.2305 18.05C12.4095 18.05 12.5812 17.9788 12.7078 17.8522C12.8344 17.7257 12.9055 17.554 12.9055 17.375C12.9055 17.1959 12.8344 17.0242 12.7078 16.8977C12.5812 16.7711 12.4095 16.7 12.2305 16.7C12.0514 16.7 11.8798 16.7711 11.7532 16.8977C11.6266 17.0242 11.5555 17.1959 11.5555 17.375C11.5555 17.554 11.6266 17.7257 11.7532 17.8522C11.8798 17.9788 12.0514 18.05 12.2305 18.05ZM15.6055 17.375C15.6055 17.554 15.5344 17.7257 15.4078 17.8522C15.2812 17.9788 15.1095 18.05 14.9305 18.05C14.7514 18.05 14.5798 17.9788 14.4532 17.8522C14.3266 17.7257 14.2555 17.554 14.2555 17.375C14.2555 17.1959 14.3266 17.0242 14.4532 16.8977C14.5798 16.7711 14.7514 16.7 14.9305 16.7C15.1095 16.7 15.2812 16.7711 15.4078 16.8977C15.5344 17.0242 15.6055 17.1959 15.6055 17.375ZM9.53047 18.05C9.70949 18.05 9.88118 17.9788 10.0078 17.8522C10.1344 17.7257 10.2055 17.554 10.2055 17.375C10.2055 17.1959 10.1344 17.0242 10.0078 16.8977C9.88118 16.7711 9.70949 16.7 9.53047 16.7C9.35145 16.7 9.17976 16.7711 9.05317 16.8977C8.92658 17.0242 8.85547 17.1959 8.85547 17.375C8.85547 17.554 8.92658 17.7257 9.05317 17.8522C9.17976 17.9788 9.35145 18.05 9.53047 18.05Z" fill="#ED5826"/>
<path fill-rule="evenodd" clip-rule="evenodd" d="M9.53008 3.19995C8.75204 3.19979 7.99784 3.46845 7.39512 3.96047C6.7924 4.45248 6.37819 5.13763 6.22258 5.89995H6.15508C5.43899 5.89995 4.75224 6.18441 4.24589 6.69076C3.73954 7.19711 3.45508 7.88387 3.45508 8.59995V19.4C3.45508 20.885 4.67008 22.1 6.15508 22.1H7.50508V24.125C7.50579 24.2431 7.5375 24.359 7.59703 24.461C7.65656 24.5631 7.74184 24.6477 7.84433 24.7065C7.94683 24.7652 8.06295 24.7961 8.18109 24.7959C8.29924 24.7957 8.41526 24.7645 8.51758 24.7055L13.0806 22.1H19.6551C20.3712 22.1 21.0579 21.8155 21.5643 21.3091C22.0706 20.8028 22.3551 20.116 22.3551 19.4V17.9825C23.1174 17.8268 23.8025 17.4126 24.2946 16.8099C24.7866 16.2072 25.0552 15.453 25.0551 14.675V6.57495C25.0551 5.67985 24.6995 4.8214 24.0666 4.18847C23.4336 3.55553 22.5752 3.19995 21.6801 3.19995H9.53008ZM19.6551 5.89995H7.62658C7.89658 5.11695 8.65258 4.54995 9.53008 4.54995H21.6801C22.8006 4.54995 23.7051 5.45445 23.7051 6.57495V14.675C23.7051 15.5525 23.1381 16.295 22.3551 16.5785V8.59995C22.3551 7.88387 22.0706 7.19711 21.5643 6.69076C21.0579 6.18441 20.3712 5.89995 19.6551 5.89995ZM6.15508 7.24995C5.79704 7.24995 5.45366 7.39218 5.20048 7.64536C4.94731 7.89853 4.80508 8.24191 4.80508 8.59995V19.4C4.80508 19.758 4.94731 20.1014 5.20048 20.3545C5.45366 20.6077 5.79704 20.75 6.15508 20.75H8.85508V22.964L12.7296 20.75H19.6551C20.0131 20.75 20.3565 20.6077 20.6097 20.3545C20.8628 20.1014 21.0051 19.758 21.0051 19.4V8.59995C21.0051 8.24191 20.8628 7.89853 20.6097 7.64536C20.3565 7.39218 20.0131 7.24995 19.6551 7.24995H6.15508Z" fill="#ED5826"/>
</svg>
