<svg width="28" height="28" viewBox="0 0 28 28" fill="none" xmlns="http://www.w3.org/2000/svg">
<path d="M19.8809 16.25C20.1792 16.25 20.4654 16.1315 20.6764 15.9205C20.8873 15.7095 21.0059 15.4234 21.0059 15.125C21.0059 14.8266 20.8873 14.5405 20.6764 14.3295C20.4654 14.1185 20.1792 14 19.8809 14C19.5825 14 19.2963 14.1185 19.0854 14.3295C18.8744 14.5405 18.7559 14.8266 18.7559 15.125C18.7559 15.4234 18.8744 15.7095 19.0854 15.9205C19.2963 16.1315 19.5825 16.25 19.8809 16.25ZM9.75586 15.125C9.75586 15.4234 9.63733 15.7095 9.42635 15.9205C9.21538 16.1315 8.92923 16.25 8.63086 16.25C8.33249 16.25 8.04634 16.1315 7.83536 15.9205C7.62439 15.7095 7.50586 15.4234 7.50586 15.125C7.50586 14.8266 7.62439 14.5405 7.83536 14.3295C8.04634 14.1185 8.33249 14 8.63086 14C8.92923 14 9.21538 14.1185 9.42635 14.3295C9.63733 14.5405 9.75586 14.8266 9.75586 15.125ZM12.2871 16.25C12.0633 16.25 11.8487 16.3389 11.6905 16.4971C11.5323 16.6554 11.4434 16.87 11.4434 17.0938C11.4434 17.3175 11.5323 17.5321 11.6905 17.6904C11.8487 17.8486 12.0633 17.9375 12.2871 17.9375H16.2246C16.4484 17.9375 16.663 17.8486 16.8212 17.6904C16.9795 17.5321 17.0684 17.3175 17.0684 17.0938C17.0684 16.87 16.9795 16.6554 16.8212 16.4971C16.663 16.3389 16.4484 16.25 16.2246 16.25H12.2871Z" fill="#ED5826"/>
<path fill-rule="evenodd" clip-rule="evenodd" d="M23.1546 10.895L23.1884 11.0075C23.8971 11.4575 24.3809 12.245 24.3809 13.1562V22.7188C24.3809 23.81 23.5034 24.6875 22.4121 24.6875H20.7246C19.6334 24.6875 18.7559 23.81 18.7559 22.7188V21.3125H9.75586V22.7188C9.75586 23.81 8.87836 24.6875 7.78711 24.6875H6.09961C5.00836 24.6875 4.13086 23.81 4.13086 22.7188V13.1562C4.13086 12.2563 4.61461 11.4462 5.32336 11.0075L5.35711 10.895L5.58211 10.0625H4.97461C4.75083 10.0625 4.53622 9.9736 4.37799 9.81537C4.21975 9.65714 4.13086 9.44253 4.13086 9.21875C4.13086 8.99497 4.21975 8.78036 4.37799 8.62213C4.53622 8.46389 4.75083 8.375 4.97461 8.375H6.02086L6.56086 6.38375C6.75191 5.66435 7.17541 5.02828 7.76547 4.57455C8.35552 4.12082 9.07902 3.87488 9.82336 3.875H18.6996C19.4439 3.87488 20.1674 4.12082 20.7575 4.57455C21.3476 5.02828 21.7711 5.66435 21.9621 6.38375L22.4796 8.375H23.5259C23.7496 8.375 23.9642 8.46389 24.1225 8.62213C24.2807 8.78036 24.3696 8.99497 24.3696 9.21875C24.3696 9.44253 24.2807 9.65714 24.1225 9.81537C23.9642 9.9736 23.7496 10.0625 23.5259 10.0625H22.9296L23.1546 10.895ZM7.17961 10.625L8.19211 6.81125C8.28818 6.45445 8.4987 6.13904 8.79135 5.91346C9.084 5.68787 9.44261 5.56457 9.81211 5.5625H18.6996C19.4534 5.5625 20.1284 6.08 20.3196 6.81125L21.3434 10.625H7.16836H7.17961ZM6.66211 12.3125H21.8496C22.3109 12.3125 22.6934 12.695 22.6934 13.1562V19.625H5.81836V13.1562C5.81836 12.695 6.20086 12.3125 6.66211 12.3125ZM20.4434 21.3125V22.7188C20.4434 22.8762 20.5671 23 20.7246 23H22.4121C22.5696 23 22.6934 22.8762 22.6934 22.7188V21.3125H20.4434ZM5.81836 21.3125H8.06836V22.7188C8.06836 22.8762 7.94461 23 7.78711 23H6.09961C6.02502 23 5.95348 22.9704 5.90074 22.9176C5.84799 22.8649 5.81836 22.7933 5.81836 22.7188V21.3125Z" fill="#ED5826"/>
</svg>
