<svg width="25" height="25" viewBox="0 0 25 25" fill="none" xmlns="http://www.w3.org/2000/svg">
<path d="M6.97589 7.97007C6.84341 8.11225 6.77129 8.30029 6.77471 8.4946C6.77814 8.6889 6.85685 8.87428 6.99427 9.01169C7.13168 9.14911 7.31707 9.22782 7.51137 9.23125C7.70567 9.23468 7.89371 9.16255 8.03589 9.03007L11.7559 5.31007V17.0001C11.7559 17.199 11.8349 17.3898 11.9756 17.5304C12.1162 17.6711 12.307 17.7501 12.5059 17.7501C12.7048 17.7501 12.8956 17.6711 13.0362 17.5304C13.1769 17.3898 13.2559 17.199 13.2559 17.0001V5.31007L16.9759 9.03007C17.0445 9.10376 17.1274 9.16286 17.2193 9.20385C17.3113 9.24485 17.4107 9.26689 17.5114 9.26866C17.6121 9.27044 17.7121 9.25192 17.8055 9.2142C17.8989 9.17647 17.9837 9.12033 18.0549 9.04911C18.1261 8.97789 18.1823 8.89306 18.22 8.79967C18.2577 8.70628 18.2763 8.60625 18.2745 8.50555C18.2727 8.40485 18.2507 8.30553 18.2097 8.21353C18.1687 8.12153 18.1096 8.03873 18.0359 7.97007L13.0359 2.97007C12.8953 2.82962 12.7046 2.75073 12.5059 2.75073C12.3071 2.75073 12.1165 2.82962 11.9759 2.97007L6.97589 7.97007Z" fill="#ED5826" stroke="#ED5826" stroke-width="0.5"/>
<path d="M7.00586 22.75C6.57906 22.75 6.15645 22.6659 5.76214 22.5026C5.36783 22.3393 5.00955 22.0999 4.70776 21.7981C4.40597 21.4963 4.16658 21.138 4.00325 20.7437C3.83992 20.3494 3.75586 19.9268 3.75586 19.5V12.5C3.75586 12.3011 3.83488 12.1103 3.97553 11.9697C4.11618 11.829 4.30695 11.75 4.50586 11.75C4.70477 11.75 4.89554 11.829 5.03619 11.9697C5.17684 12.1103 5.25586 12.3011 5.25586 12.5V19.5C5.25586 20.47 6.03586 21.25 7.00586 21.25H18.0059C18.9759 21.25 19.7559 20.47 19.7559 19.5V12.5C19.7559 12.3011 19.8349 12.1103 19.9755 11.9697C20.1162 11.829 20.3069 11.75 20.5059 11.75C20.7048 11.75 20.8955 11.829 21.0362 11.9697C21.1768 12.1103 21.2559 12.3011 21.2559 12.5V19.5C21.2559 21.3 19.7959 22.75 18.0059 22.75H7.00586Z" fill="#ED5826" stroke="#ED5826" stroke-width="0.5"/>
</svg>
