<svg width="27" height="28" viewBox="0 0 27 28" fill="none" xmlns="http://www.w3.org/2000/svg">
<path d="M21.6 8.37495H21.1612C21.296 8.01486 21.3683 7.63439 21.375 7.24995C21.3514 6.33486 20.9666 5.46629 20.3048 4.83393C19.6429 4.20157 18.7577 3.85681 17.8425 3.87495C16.9431 3.89437 16.0655 4.15525 15.3015 4.63026C14.5375 5.10527 13.9153 5.77694 13.5 6.57495C13.0847 5.77694 12.4625 5.10527 11.6985 4.63026C10.9345 4.15525 10.0569 3.89437 9.15749 3.87495C8.24227 3.85681 7.35706 4.20157 6.6952 4.83393C6.03333 5.46629 5.64858 6.33486 5.62498 7.24995C5.63163 7.63439 5.70392 8.01486 5.83874 8.37495H5.39999C5.10395 8.40306 4.81642 8.48957 4.55403 8.62948C4.29163 8.7694 4.05957 8.95994 3.87127 9.19009C3.68296 9.42024 3.54215 9.68543 3.45696 9.97034C3.37178 10.2552 3.34392 10.5542 3.37498 10.8499V14.8999C3.32243 15.4447 3.46249 15.9907 3.7708 16.4429C4.07911 16.8951 4.53617 17.2249 5.06248 17.3749V22.2912C5.09721 22.8015 5.32916 23.2782 5.70922 23.6205C6.08928 23.9627 6.58762 24.1437 7.09873 24.1249H19.9012C20.4197 24.1433 20.9245 23.9562 21.3058 23.6044C21.6871 23.2526 21.9141 22.7645 21.9375 22.2462V17.3749C22.4638 17.2249 22.9209 16.8951 23.2292 16.4429C23.5375 15.9907 23.6775 15.4447 23.625 14.8999V10.8499C23.6561 10.5542 23.6282 10.2552 23.543 9.97034C23.4578 9.68543 23.317 9.42024 23.1287 9.19009C22.9404 8.95994 22.7083 8.7694 22.4459 8.62948C22.1835 8.48957 21.896 8.40306 21.6 8.37495ZM21.375 10.8499V14.8999C21.3885 14.9743 21.3885 15.0506 21.375 15.1249H14.625V10.6249H21.375C21.3885 10.6993 21.3885 10.7756 21.375 10.8499ZM17.8425 6.12495C18.1612 6.10638 18.4744 6.21398 18.7144 6.4245C18.9544 6.63502 19.1019 6.93154 19.125 7.24995C19.1019 7.56835 18.9544 7.86487 18.7144 8.07539C18.4744 8.28591 18.1612 8.39352 17.8425 8.37495H15.075C15.2718 7.77394 15.6374 7.24225 16.1281 6.8433C16.6188 6.44435 17.214 6.19498 17.8425 6.12495ZM7.87498 7.24995C7.89809 6.93154 8.04559 6.63502 8.28558 6.4245C8.52558 6.21398 8.83878 6.10638 9.15749 6.12495C9.78401 6.19702 10.3767 6.44731 10.8653 6.84613C11.3538 7.24494 11.7177 7.77553 11.9137 8.37495H9.15749C8.83878 8.39352 8.52558 8.28591 8.28558 8.07539C8.04559 7.86487 7.89809 7.56835 7.87498 7.24995ZM5.62498 10.8499C5.61148 10.7756 5.61148 10.6993 5.62498 10.6249H12.375V15.1249H5.62498C5.61148 15.0506 5.61148 14.9743 5.62498 14.8999V10.8499ZM7.31248 17.3749H12.375V21.8749H7.31248V17.3749ZM14.625 21.8749V17.3749H19.6875V21.8749H14.625Z" fill="white"/>
</svg>
