<svg width="36" height="36" viewBox="0 0 36 36" fill="none" xmlns="http://www.w3.org/2000/svg">
<path d="M14.0542 5.84661C10.9222 6.91941 8.25102 9.26661 6.76782 12.2258C6.24942 13.2482 5.87502 14.3354 5.65182 15.4586C5.08302 18.2522 5.47902 21.2258 6.76782 23.7746C7.60302 25.4378 8.80542 26.9138 10.2598 28.0658C11.635 29.1602 13.2334 29.9666 14.9326 30.4202C17.071 30.9962 19.3534 30.9818 21.5134 30.4922C23.4646 30.0458 25.3078 29.1098 26.7766 27.7562C28.3318 26.3234 29.4406 24.4442 30.031 22.421C30.6718 20.2106 30.7582 17.8562 30.355 15.5954C26.323 15.5954 22.291 15.5954 18.2518 15.5954C18.2518 17.2658 18.2518 18.9434 18.2518 20.6138C20.5846 20.6138 22.9246 20.6138 25.2574 20.6138C24.9838 22.2194 24.0334 23.681 22.6798 24.5882C21.8302 25.157 20.8582 25.5314 19.8502 25.7042C18.835 25.877 17.791 25.8986 16.783 25.697C15.7534 25.4954 14.7742 25.0634 13.9174 24.4586C12.5494 23.501 11.5054 22.0898 10.9726 20.513C10.4254 18.9074 10.4182 17.1146 10.9726 15.509C11.3542 14.3786 11.995 13.3274 12.8374 12.4778C13.8742 11.4122 15.2206 10.6562 16.675 10.3466C17.9206 10.0802 19.231 10.1306 20.4478 10.4978C21.4846 10.8146 22.435 11.3762 23.2198 12.125C24.0118 11.3402 24.7966 10.5482 25.5886 9.76341C25.999 9.33861 26.4382 8.93541 26.8414 8.49621C25.6462 7.38741 24.235 6.49461 22.7014 5.93301C19.951 4.90341 16.8334 4.88181 14.0542 5.84661Z" fill="white"/>
<path d="M14.0526 5.8467C16.8318 4.8819 19.9494 4.9035 22.7142 5.9259C24.2478 6.4875 25.6518 7.3803 26.8542 8.4891C26.451 8.9211 26.019 9.3315 25.6014 9.7563C24.8094 10.5411 24.0246 11.3331 23.2326 12.1179C22.4478 11.3691 21.4974 10.8003 20.4606 10.4907C19.2438 10.1235 17.9334 10.0731 16.6878 10.3395C15.2334 10.6491 13.887 11.4123 12.8502 12.4707C12.0078 13.3203 11.367 14.3715 10.9854 15.5019C9.58144 14.4147 8.17744 13.3203 6.77344 12.2331C8.24944 9.2667 10.9206 6.9195 14.0526 5.8467Z" fill="#E94435"/>
<path d="M5.65182 15.4584C5.87502 14.3352 6.25662 13.248 6.76782 12.2256C8.17182 13.3128 9.57582 14.4072 10.9798 15.4944C10.4254 17.1 10.4326 18.8928 10.9798 20.4984C9.57582 21.5856 8.17182 22.68 6.76782 23.7672C5.47902 21.2328 5.08302 18.252 5.65182 15.4584Z" fill="#F8BB15"/>
<path d="M18.259 15.5879C22.291 15.5879 26.323 15.5879 30.3622 15.5879C30.7654 17.8487 30.679 20.2031 30.0382 22.4135C29.4478 24.4367 28.339 26.3231 26.7838 27.7487C25.423 26.6903 24.055 25.6319 22.7014 24.5735C24.055 23.6735 25.0054 22.2047 25.279 20.5991C22.9462 20.5991 20.6062 20.5991 18.2734 20.5991C18.2518 18.9359 18.259 17.2655 18.259 15.5879Z" fill="#547DBE"/>
<path d="M6.76953 23.7747C8.17353 22.6875 9.57753 21.5931 10.9815 20.5059C11.5143 22.0899 12.5583 23.4939 13.9263 24.4515C14.7831 25.0563 15.7623 25.4811 16.7919 25.6899C17.7999 25.8915 18.8511 25.8699 19.8591 25.6971C20.8671 25.5243 21.8391 25.1499 22.6887 24.5811C24.0495 25.6395 25.4175 26.6979 26.7711 27.7563C25.3023 29.1171 23.4591 30.0459 21.5079 30.4923C19.3551 30.9819 17.0727 30.9963 14.9271 30.4203C13.2279 29.9667 11.6295 29.1603 10.2543 28.0659C8.80713 26.9067 7.60473 25.4307 6.76953 23.7747Z" fill="#34A751"/>
</svg>
