<svg width="37" height="37" viewBox="0 0 37 37" fill="none" xmlns="http://www.w3.org/2000/svg">
<path d="M14.5542 6.75969C11.4222 7.83249 8.75102 10.1797 7.26782 13.1389C6.74942 14.1613 6.37502 15.2485 6.15182 16.3717C5.58302 19.1653 5.97902 22.1389 7.26782 24.6877C8.10302 26.3509 9.30542 27.8269 10.7598 28.9789C12.135 30.0733 13.7334 30.8797 15.4326 31.3333C17.571 31.9093 19.8534 31.8949 22.0134 31.4053C23.9646 30.9589 25.8078 30.0229 27.2766 28.6693C28.8318 27.2365 29.9406 25.3573 30.531 23.3341C31.1718 21.1237 31.2582 18.7693 30.855 16.5085C26.823 16.5085 22.791 16.5085 18.7518 16.5085C18.7518 18.1789 18.7518 19.8565 18.7518 21.5269C21.0846 21.5269 23.4246 21.5269 25.7574 21.5269C25.4838 23.1325 24.5334 24.5941 23.1798 25.5013C22.3302 26.0701 21.3582 26.4445 20.3502 26.6173C19.335 26.7901 18.291 26.8117 17.283 26.6101C16.2534 26.4085 15.2742 25.9765 14.4174 25.3717C13.0494 24.4141 12.0054 23.0029 11.4726 21.4261C10.9254 19.8205 10.9182 18.0277 11.4726 16.4221C11.8542 15.2917 12.495 14.2405 13.3374 13.3909C14.3742 12.3253 15.7206 11.5693 17.175 11.2597C18.4206 10.9933 19.731 11.0437 20.9478 11.4109C21.9846 11.7277 22.935 12.2893 23.7198 13.0381C24.5118 12.2533 25.2966 11.4613 26.0886 10.6765C26.499 10.2517 26.9382 9.84849 27.3414 9.40929C26.1462 8.30049 24.735 7.40769 23.2014 6.84609C20.451 5.81649 17.3334 5.79489 14.5542 6.75969Z" fill="white"/>
<path d="M14.5526 6.75979C17.3318 5.79499 20.4494 5.81659 23.2142 6.83899C24.7478 7.40059 26.1518 8.29339 27.3542 9.40219C26.951 9.83419 26.519 10.2446 26.1014 10.6694C25.3094 11.4542 24.5246 12.2462 23.7326 13.031C22.9478 12.2822 21.9974 11.7134 20.9606 11.4038C19.7438 11.0366 18.4334 10.9862 17.1878 11.2526C15.7334 11.5622 14.387 12.3254 13.3502 13.3838C12.5078 14.2334 11.867 15.2846 11.4854 16.415C10.0814 15.3278 8.67744 14.2334 7.27344 13.1462C8.74944 10.1798 11.4206 7.83259 14.5526 6.75979Z" fill="#E94435"/>
<path d="M6.15182 16.3715C6.37502 15.2483 6.75662 14.1611 7.26782 13.1387C8.67182 14.2259 10.0758 15.3203 11.4798 16.4075C10.9254 18.0131 10.9326 19.8059 11.4798 21.4115C10.0758 22.4987 8.67182 23.5931 7.26782 24.6803C5.97902 22.1459 5.58302 19.1651 6.15182 16.3715Z" fill="#F8BB15"/>
<path d="M18.759 16.501C22.791 16.501 26.823 16.501 30.8622 16.501C31.2654 18.7618 31.179 21.1162 30.5382 23.3266C29.9478 25.3498 28.839 27.2362 27.2838 28.6618C25.923 27.6034 24.555 26.545 23.2014 25.4866C24.555 24.5866 25.5054 23.1178 25.779 21.5122C23.4462 21.5122 21.1062 21.5122 18.7734 21.5122C18.7518 19.849 18.759 18.1786 18.759 16.501Z" fill="#547DBE"/>
<path d="M7.26953 24.6877C8.67353 23.6005 10.0775 22.5061 11.4815 21.4189C12.0143 23.0029 13.0583 24.4069 14.4263 25.3645C15.2831 25.9693 16.2623 26.3941 17.2919 26.6029C18.2999 26.8045 19.3511 26.7829 20.3591 26.6101C21.3671 26.4373 22.3391 26.0629 23.1887 25.4941C24.5495 26.5525 25.9175 27.6109 27.2711 28.6693C25.8023 30.0301 23.9591 30.9589 22.0079 31.4053C19.8551 31.8949 17.5727 31.9093 15.4271 31.3333C13.7279 30.8797 12.1295 30.0733 10.7543 28.9789C9.30713 27.8197 8.10473 26.3437 7.26953 24.6877Z" fill="#34A751"/>
</svg>
