<svg width="25" height="25" viewBox="0 0 25 25" fill="none" xmlns="http://www.w3.org/2000/svg">
<g clip-path="url(#clip0_23_4129)">
<path d="M12.1934 8.50562C9.98336 8.50562 8.19336 10.2956 8.19336 12.5056C8.19336 14.7156 9.98336 16.5056 12.1934 16.5056C14.4034 16.5056 16.1934 14.7156 16.1934 12.5056C16.1934 10.2956 14.4034 8.50562 12.1934 8.50562ZM21.1334 11.5056C20.9068 9.47774 19.9975 7.58715 18.5547 6.14431C17.1118 4.70147 15.2212 3.79213 13.1934 3.56562V2.50562C13.1934 1.95562 12.7434 1.50562 12.1934 1.50562C11.6434 1.50562 11.1934 1.95562 11.1934 2.50562V3.56562C9.16548 3.79213 7.2749 4.70147 5.83205 6.14431C4.38921 7.58715 3.47987 9.47774 3.25336 11.5056H2.19336C1.64336 11.5056 1.19336 11.9556 1.19336 12.5056C1.19336 13.0556 1.64336 13.5056 2.19336 13.5056H3.25336C3.47987 15.5335 4.38921 17.4241 5.83205 18.8669C7.2749 20.3098 9.16548 21.2191 11.1934 21.4456V22.5056C11.1934 23.0556 11.6434 23.5056 12.1934 23.5056C12.7434 23.5056 13.1934 23.0556 13.1934 22.5056V21.4456C15.2212 21.2191 17.1118 20.3098 18.5547 18.8669C19.9975 17.4241 20.9068 15.5335 21.1334 13.5056H22.1934C22.7434 13.5056 23.1934 13.0556 23.1934 12.5056C23.1934 11.9556 22.7434 11.5056 22.1934 11.5056H21.1334ZM12.1934 19.5056C8.32336 19.5056 5.19336 16.3756 5.19336 12.5056C5.19336 8.63562 8.32336 5.50562 12.1934 5.50562C16.0634 5.50562 19.1934 8.63562 19.1934 12.5056C19.1934 16.3756 16.0634 19.5056 12.1934 19.5056Z" fill="#ED5826"/>
</g>
<defs>
<clipPath id="clip0_23_4129">
<rect width="24" height="24" fill="white" transform="translate(0.193359 0.505615)"/>
</clipPath>
</defs>
</svg>
