<svg width="25" height="25" viewBox="0 0 25 25" fill="none" xmlns="http://www.w3.org/2000/svg">
<g clip-path="url(#clip0_23_2186)">
<path d="M12.6934 8.50562C10.4834 8.50562 8.69336 10.2956 8.69336 12.5056C8.69336 14.7156 10.4834 16.5056 12.6934 16.5056C14.9034 16.5056 16.6934 14.7156 16.6934 12.5056C16.6934 10.2956 14.9034 8.50562 12.6934 8.50562ZM21.6334 11.5056C21.4068 9.47774 20.4975 7.58715 19.0547 6.14431C17.6118 4.70147 15.7212 3.79213 13.6934 3.56562V2.50562C13.6934 1.95562 13.2434 1.50562 12.6934 1.50562C12.1434 1.50562 11.6934 1.95562 11.6934 2.50562V3.56562C9.66548 3.79213 7.7749 4.70147 6.33205 6.14431C4.88921 7.58715 3.97987 9.47774 3.75336 11.5056H2.69336C2.14336 11.5056 1.69336 11.9556 1.69336 12.5056C1.69336 13.0556 2.14336 13.5056 2.69336 13.5056H3.75336C3.97987 15.5335 4.88921 17.4241 6.33205 18.8669C7.7749 20.3098 9.66548 21.2191 11.6934 21.4456V22.5056C11.6934 23.0556 12.1434 23.5056 12.6934 23.5056C13.2434 23.5056 13.6934 23.0556 13.6934 22.5056V21.4456C15.7212 21.2191 17.6118 20.3098 19.0547 18.8669C20.4975 17.4241 21.4068 15.5335 21.6334 13.5056H22.6934C23.2434 13.5056 23.6934 13.0556 23.6934 12.5056C23.6934 11.9556 23.2434 11.5056 22.6934 11.5056H21.6334ZM12.6934 19.5056C8.82336 19.5056 5.69336 16.3756 5.69336 12.5056C5.69336 8.63562 8.82336 5.50562 12.6934 5.50562C16.5634 5.50562 19.6934 8.63562 19.6934 12.5056C19.6934 16.3756 16.5634 19.5056 12.6934 19.5056Z" fill="#ED5826"/>
</g>
<defs>
<clipPath id="clip0_23_2186">
<rect width="24" height="24" fill="white" transform="translate(0.693359 0.505615)"/>
</clipPath>
</defs>
</svg>
