<svg width="25" height="25" viewBox="0 0 25 25" fill="none" xmlns="http://www.w3.org/2000/svg">
<g clip-path="url(#clip0_23_2765)">
<path d="M12.8496 8.50562C10.6396 8.50562 8.84961 10.2956 8.84961 12.5056C8.84961 14.7156 10.6396 16.5056 12.8496 16.5056C15.0596 16.5056 16.8496 14.7156 16.8496 12.5056C16.8496 10.2956 15.0596 8.50562 12.8496 8.50562ZM21.7896 11.5056C21.5631 9.47774 20.6538 7.58715 19.2109 6.14431C17.7681 4.70147 15.8775 3.79213 13.8496 3.56562V2.50562C13.8496 1.95562 13.3996 1.50562 12.8496 1.50562C12.2996 1.50562 11.8496 1.95562 11.8496 2.50562V3.56562C9.82173 3.79213 7.93115 4.70147 6.4883 6.14431C5.04546 7.58715 4.13612 9.47774 3.90961 11.5056H2.84961C2.29961 11.5056 1.84961 11.9556 1.84961 12.5056C1.84961 13.0556 2.29961 13.5056 2.84961 13.5056H3.90961C4.13612 15.5335 5.04546 17.4241 6.4883 18.8669C7.93115 20.3098 9.82173 21.2191 11.8496 21.4456V22.5056C11.8496 23.0556 12.2996 23.5056 12.8496 23.5056C13.3996 23.5056 13.8496 23.0556 13.8496 22.5056V21.4456C15.8775 21.2191 17.7681 20.3098 19.2109 18.8669C20.6538 17.4241 21.5631 15.5335 21.7896 13.5056H22.8496C23.3996 13.5056 23.8496 13.0556 23.8496 12.5056C23.8496 11.9556 23.3996 11.5056 22.8496 11.5056H21.7896ZM12.8496 19.5056C8.97961 19.5056 5.84961 16.3756 5.84961 12.5056C5.84961 8.63562 8.97961 5.50562 12.8496 5.50562C16.7196 5.50562 19.8496 8.63562 19.8496 12.5056C19.8496 16.3756 16.7196 19.5056 12.8496 19.5056Z" fill="#ED5826"/>
</g>
<defs>
<clipPath id="clip0_23_2765">
<rect width="24" height="24" fill="white" transform="translate(0.849609 0.505615)"/>
</clipPath>
</defs>
</svg>
