<svg width="25" height="25" viewBox="0 0 25 25" fill="none" xmlns="http://www.w3.org/2000/svg">
<g clip-path="url(#clip0_89_142)">
<path d="M12.665 8.50464C10.455 8.50464 8.66504 10.2946 8.66504 12.5046C8.66504 14.7146 10.455 16.5046 12.665 16.5046C14.875 16.5046 16.665 14.7146 16.665 12.5046C16.665 10.2946 14.875 8.50464 12.665 8.50464ZM21.605 11.5046C21.3785 9.47676 20.4692 7.58618 19.0263 6.14333C17.5835 4.70049 15.6929 3.79115 13.665 3.56464V2.50464C13.665 1.95464 13.215 1.50464 12.665 1.50464C12.115 1.50464 11.665 1.95464 11.665 2.50464V3.56464C9.63716 3.79115 7.74658 4.70049 6.30373 6.14333C4.86089 7.58618 3.95155 9.47676 3.72504 11.5046H2.66504C2.11504 11.5046 1.66504 11.9546 1.66504 12.5046C1.66504 13.0546 2.11504 13.5046 2.66504 13.5046H3.72504C3.95155 15.5325 4.86089 17.4231 6.30373 18.8659C7.74658 20.3088 9.63716 21.2181 11.665 21.4446V22.5046C11.665 23.0546 12.115 23.5046 12.665 23.5046C13.215 23.5046 13.665 23.0546 13.665 22.5046V21.4446C15.6929 21.2181 17.5835 20.3088 19.0263 18.8659C20.4692 17.4231 21.3785 15.5325 21.605 13.5046H22.665C23.215 13.5046 23.665 13.0546 23.665 12.5046C23.665 11.9546 23.215 11.5046 22.665 11.5046H21.605ZM12.665 19.5046C8.79504 19.5046 5.66504 16.3746 5.66504 12.5046C5.66504 8.63464 8.79504 5.50464 12.665 5.50464C16.535 5.50464 19.665 8.63464 19.665 12.5046C19.665 16.3746 16.535 19.5046 12.665 19.5046Z" fill="#ED5826"/>
</g>
<defs>
<clipPath id="clip0_89_142">
<rect width="24" height="24" fill="white" transform="translate(0.665039 0.504639)"/>
</clipPath>
</defs>
</svg>
