<svg width="25" height="25" viewBox="0 0 25 25" fill="none" xmlns="http://www.w3.org/2000/svg">
<g clip-path="url(#clip0_23_4708)">
<path d="M12.3496 8.50562C10.1396 8.50562 8.34961 10.2956 8.34961 12.5056C8.34961 14.7156 10.1396 16.5056 12.3496 16.5056C14.5596 16.5056 16.3496 14.7156 16.3496 12.5056C16.3496 10.2956 14.5596 8.50562 12.3496 8.50562ZM21.2896 11.5056C21.0631 9.47774 20.1538 7.58715 18.7109 6.14431C17.2681 4.70147 15.3775 3.79213 13.3496 3.56562V2.50562C13.3496 1.95562 12.8996 1.50562 12.3496 1.50562C11.7996 1.50562 11.3496 1.95562 11.3496 2.50562V3.56562C9.32173 3.79213 7.43115 4.70147 5.9883 6.14431C4.54546 7.58715 3.63612 9.47774 3.40961 11.5056H2.34961C1.79961 11.5056 1.34961 11.9556 1.34961 12.5056C1.34961 13.0556 1.79961 13.5056 2.34961 13.5056H3.40961C3.63612 15.5335 4.54546 17.4241 5.9883 18.8669C7.43115 20.3098 9.32173 21.2191 11.3496 21.4456V22.5056C11.3496 23.0556 11.7996 23.5056 12.3496 23.5056C12.8996 23.5056 13.3496 23.0556 13.3496 22.5056V21.4456C15.3775 21.2191 17.2681 20.3098 18.7109 18.8669C20.1538 17.4241 21.0631 15.5335 21.2896 13.5056H22.3496C22.8996 13.5056 23.3496 13.0556 23.3496 12.5056C23.3496 11.9556 22.8996 11.5056 22.3496 11.5056H21.2896ZM12.3496 19.5056C8.47961 19.5056 5.34961 16.3756 5.34961 12.5056C5.34961 8.63562 8.47961 5.50562 12.3496 5.50562C16.2196 5.50562 19.3496 8.63562 19.3496 12.5056C19.3496 16.3756 16.2196 19.5056 12.3496 19.5056Z" fill="#ED5826"/>
</g>
<defs>
<clipPath id="clip0_23_4708">
<rect width="24" height="24" fill="white" transform="translate(0.349609 0.505615)"/>
</clipPath>
</defs>
</svg>
