<svg width="21" height="21" viewBox="0 0 21 21" fill="none" xmlns="http://www.w3.org/2000/svg">
<path d="M10.3516 6.56982C10.6915 6.56982 11.0238 6.46902 11.3064 6.28016C11.5891 6.0913 11.8094 5.82287 11.9395 5.50881C12.0696 5.19475 12.1036 4.84917 12.0373 4.51576C11.971 4.18236 11.8073 3.87611 11.5669 3.63573C11.3265 3.39536 11.0203 3.23167 10.6869 3.16535C10.3535 3.09903 10.0079 3.13307 9.69382 3.26316C9.37976 3.39325 9.11133 3.61354 8.92247 3.89619C8.73362 4.17884 8.63281 4.51114 8.63281 4.85107C8.63281 5.07678 8.67727 5.30028 8.76364 5.50881C8.85002 5.71734 8.97662 5.90681 9.13622 6.06641C9.45855 6.38874 9.89572 6.56982 10.3516 6.56982ZM10.3516 4.38232C10.4443 4.38232 10.5349 4.40982 10.612 4.46132C10.6891 4.51283 10.7492 4.58604 10.7846 4.67169C10.8201 4.75734 10.8294 4.85159 10.8113 4.94252C10.7932 5.03345 10.7486 5.11698 10.683 5.18253C10.6175 5.24809 10.5339 5.29273 10.443 5.31082C10.3521 5.3289 10.2578 5.31962 10.1722 5.28414C10.0865 5.24866 10.0133 5.18858 9.96181 5.1115C9.9103 5.03441 9.88281 4.94378 9.88281 4.85107C9.88112 4.78877 9.89204 4.72676 9.91492 4.66877C9.9378 4.61079 9.97216 4.55803 10.0159 4.51367C10.0597 4.4693 10.112 4.43424 10.1697 4.4106C10.2274 4.38695 10.2892 4.37521 10.3516 4.37607V4.38232ZM11.4016 6.83232H9.30156C8.75509 6.79975 8.21788 6.98444 7.80698 7.34618C7.39607 7.70792 7.14477 8.21738 7.10781 8.76358V11.3823C7.11644 11.6933 7.22153 11.9939 7.40853 12.2424C7.59553 12.491 7.85519 12.6753 8.15156 12.7698V16.2698C8.14486 16.4274 8.1693 16.5848 8.22349 16.733C8.27768 16.8812 8.36055 17.0172 8.46736 17.1333C8.57417 17.2494 8.70283 17.3433 8.84597 17.4096C8.98912 17.4759 9.14393 17.5134 9.30156 17.5198H11.4016C11.5592 17.5134 11.714 17.4759 11.8571 17.4096C12.0003 17.3433 12.129 17.2494 12.2358 17.1333C12.3426 17.0172 12.4254 16.8812 12.4796 16.733C12.5338 16.5848 12.5583 16.4274 12.5516 16.2698V12.7698C12.8479 12.6753 13.1076 12.491 13.2946 12.2424C13.4816 11.9939 13.5867 11.6933 13.5953 11.3823V8.76358C13.5584 8.21738 13.3071 7.70792 12.8961 7.34618C12.4852 6.98444 11.948 6.79975 11.4016 6.83232ZM9.40156 16.2636V11.6323H8.77656C8.52656 11.6323 8.35781 11.4823 8.35781 11.3823V8.76358C8.35781 8.39482 8.78906 8.08232 9.30156 8.08232H11.4016C11.9141 8.08232 12.3453 8.39482 12.3453 8.76358V11.3823C12.3453 11.4823 12.1766 11.6323 11.9266 11.6323H11.3016V12.2573V16.2636H9.40156ZM4.10156 7.05107C4.30058 7.05108 4.49513 6.99206 4.66061 6.88149C4.82608 6.77092 4.95506 6.61377 5.03122 6.4299C5.10738 6.24603 5.1273 6.04371 5.08848 5.84852C5.04965 5.65332 4.95382 5.47403 4.81309 5.3333C4.67236 5.19257 4.49307 5.09674 4.29787 5.05791C4.10268 5.01908 3.90036 5.03901 3.71649 5.11517C3.53262 5.19133 3.37546 5.32031 3.2649 5.48578C3.15433 5.65126 3.09531 5.84581 3.09531 6.04482C3.09531 6.3117 3.20133 6.56764 3.39004 6.75635C3.57874 6.94506 3.83469 7.05107 4.10156 7.05107ZM4.85156 7.53232H3.35156C3.1356 7.51791 2.91893 7.54629 2.71396 7.61583C2.509 7.68538 2.31979 7.79471 2.15719 7.93757C1.9946 8.08042 1.86181 8.25398 1.76646 8.44828C1.67111 8.64259 1.61507 8.85381 1.60156 9.06982V10.8573C1.61452 11.124 1.71253 11.3795 1.88124 11.5865C2.04994 11.7934 2.28047 11.9409 2.53906 12.0073V14.2948C2.53517 14.553 2.63006 14.8029 2.80432 14.9934C2.97859 15.184 3.21906 15.3007 3.47656 15.3198H4.78281C4.91586 15.3119 5.04603 15.2777 5.16585 15.2193C5.28567 15.1609 5.39279 15.0795 5.48105 14.9796C5.56932 14.8797 5.63699 14.7634 5.68019 14.6373C5.7234 14.5112 5.74128 14.3778 5.73281 14.2448V11.9636C5.9757 11.8861 6.1891 11.7362 6.34438 11.534C6.49966 11.3318 6.5894 11.087 6.60156 10.8323V9.06982C6.58805 8.85381 6.53201 8.64259 6.43666 8.44828C6.34131 8.25398 6.20853 8.08042 6.04593 7.93757C5.88333 7.79471 5.69412 7.68538 5.48916 7.61583C5.2842 7.54629 5.06752 7.51791 4.85156 7.53232ZM4.48281 14.0698H3.78906V10.8011H2.97656C2.93547 10.8109 2.89265 10.8109 2.85156 10.8011V9.06982C2.85156 8.96357 3.05156 8.80732 3.35156 8.80732H4.85156C5.15156 8.80732 5.35156 8.96357 5.35156 9.06982V10.8011C5.31047 10.8109 5.26765 10.8109 5.22656 10.8011H4.48281V14.0698ZM16.6016 7.05107C16.8006 7.05108 16.9951 6.99206 17.1606 6.88149C17.3261 6.77092 17.4551 6.61377 17.5312 6.4299C17.6074 6.24603 17.6273 6.04371 17.5885 5.84852C17.5497 5.65332 17.4538 5.47403 17.3131 5.3333C17.1724 5.19257 16.9931 5.09674 16.7979 5.05791C16.6027 5.01908 16.4004 5.03901 16.2165 5.11517C16.0326 5.19133 15.8755 5.32031 15.7649 5.48578C15.6543 5.65126 15.5953 5.84581 15.5953 6.04482C15.5953 6.3117 15.7013 6.56764 15.89 6.75635C16.0787 6.94506 16.3347 7.05107 16.6016 7.05107ZM17.3516 7.53232H15.8516C15.6356 7.51791 15.4189 7.54629 15.214 7.61583C15.009 7.68538 14.8198 7.79471 14.6572 7.93757C14.4946 8.08042 14.3618 8.25398 14.2665 8.44828C14.1711 8.64259 14.1151 8.85381 14.1016 9.06982V10.8573C14.1145 11.124 14.2125 11.3795 14.3812 11.5865C14.5499 11.7934 14.7805 11.9409 15.0391 12.0073V14.2948C15.0352 14.553 15.1301 14.8029 15.3043 14.9934C15.4786 15.184 15.7191 15.3007 15.9766 15.3198H17.2703C17.4034 15.3119 17.5335 15.2777 17.6534 15.2193C17.7732 15.1609 17.8803 15.0795 17.9686 14.9796C18.0568 14.8797 18.1245 14.7634 18.1677 14.6373C18.2109 14.5112 18.2288 14.3778 18.2203 14.2448V11.9636C18.4655 11.8882 18.6816 11.7393 18.8393 11.5369C18.9969 11.3345 19.0885 11.0885 19.1016 10.8323V9.06982C19.0881 8.85381 19.032 8.64259 18.9367 8.44828C18.8413 8.25398 18.7085 8.08042 18.5459 7.93757C18.3833 7.79471 18.1941 7.68538 17.9892 7.61583C17.7842 7.54629 17.5675 7.51791 17.3516 7.53232ZM16.9828 14.0698H16.2891V10.8011H15.4766C15.4355 10.8109 15.3926 10.8109 15.3516 10.8011V9.06982C15.3516 8.96357 15.5516 8.80732 15.8516 8.80732H17.3516C17.6516 8.80732 17.8516 8.96357 17.8516 9.06982V10.8011C17.8105 10.8109 17.7676 10.8109 17.7266 10.8011H16.9828V14.0698Z" fill="#ED5826"/>
</svg>
