<svg width="20" height="21" viewBox="0 0 20 21" fill="none" xmlns="http://www.w3.org/2000/svg">
<path d="M9.79688 7C10.1368 7 10.4691 6.8992 10.7518 6.71034C11.0344 6.52148 11.2547 6.25305 11.3848 5.93899C11.5149 5.62493 11.5489 5.27934 11.4826 4.94594C11.4163 4.61253 11.2526 4.30628 11.0122 4.06591C10.7718 3.82554 10.4656 3.66184 10.1322 3.59553C9.79878 3.52921 9.4532 3.56324 9.13914 3.69333C8.82508 3.82342 8.55665 4.04372 8.36779 4.32636C8.17893 4.60901 8.07812 4.94131 8.07812 5.28125C8.07812 5.50696 8.12258 5.73046 8.20896 5.93899C8.29533 6.14752 8.42193 6.33699 8.58154 6.49659C8.90386 6.81892 9.34103 7 9.79688 7ZM9.79688 4.8125C9.88958 4.8125 9.98021 4.83999 10.0573 4.8915C10.1344 4.94301 10.1945 5.01621 10.2299 5.10187C10.2654 5.18752 10.2747 5.28177 10.2566 5.3727C10.2385 5.46363 10.1939 5.54715 10.1283 5.61271C10.0628 5.67826 9.97925 5.72291 9.88832 5.74099C9.7974 5.75908 9.70315 5.7498 9.61749 5.71432C9.53184 5.67884 9.45863 5.61876 9.40712 5.54167C9.35562 5.46459 9.32812 5.37396 9.32812 5.28125C9.32643 5.21894 9.33736 5.15693 9.36023 5.09895C9.38311 5.04097 9.41748 4.98821 9.46126 4.94384C9.50504 4.89948 9.55734 4.86442 9.61502 4.84077C9.67269 4.81713 9.73455 4.80539 9.79688 4.80625V4.8125ZM10.8469 7.2625H8.74687C8.2004 7.22992 7.66319 7.41462 7.25229 7.77636C6.84138 8.13809 6.59008 8.64755 6.55313 9.19375V11.8125C6.56175 12.1235 6.66684 12.424 6.85385 12.6726C7.04085 12.9212 7.3005 13.1055 7.59687 13.2V16.7C7.59017 16.8576 7.61461 17.015 7.6688 17.1632C7.72299 17.3113 7.80586 17.4474 7.91267 17.5635C8.01949 17.6796 8.14815 17.7735 8.29129 17.8398C8.43443 17.9061 8.58924 17.9436 8.74687 17.95H10.8469C11.0045 17.9436 11.1593 17.9061 11.3025 17.8398C11.4456 17.7735 11.5743 17.6796 11.6811 17.5635C11.7879 17.4474 11.8708 17.3113 11.925 17.1632C11.9791 17.015 12.0036 16.8576 11.9969 16.7V13.2C12.2932 13.1055 12.5529 12.9212 12.7399 12.6726C12.9269 12.424 13.032 12.1235 13.0406 11.8125V9.19375C13.0037 8.64755 12.7524 8.13809 12.3415 7.77636C11.9306 7.41462 11.3933 7.22992 10.8469 7.2625ZM8.84687 16.6938V12.0625H8.22187C7.97187 12.0625 7.80313 11.9125 7.80313 11.8125V9.19375C7.80313 8.825 8.23438 8.5125 8.74687 8.5125H10.8469C11.3594 8.5125 11.7906 8.825 11.7906 9.19375V11.8125C11.7906 11.9125 11.6219 12.0625 11.3719 12.0625H10.7469V12.6875V16.6938H8.84687ZM3.54688 7.48125C3.74589 7.48125 3.94044 7.42224 4.10592 7.31167C4.27139 7.2011 4.40037 7.04394 4.47653 6.86008C4.55269 6.67621 4.57262 6.47388 4.53379 6.27869C4.49496 6.0835 4.39913 5.9042 4.2584 5.76347C4.11767 5.62275 3.93838 5.52691 3.74318 5.48809C3.54799 5.44926 3.34567 5.46919 3.1618 5.54535C2.97793 5.62151 2.82078 5.75048 2.71021 5.91596C2.59964 6.08143 2.54062 6.27598 2.54062 6.475C2.54062 6.74187 2.64664 6.99782 2.83535 7.18653C3.02406 7.37524 3.28 7.48125 3.54688 7.48125ZM4.29688 7.9625H2.79688C2.58092 7.94809 2.36424 7.97647 2.15928 8.04601C1.95432 8.11555 1.76511 8.22489 1.60251 8.36774C1.43991 8.5106 1.30712 8.68416 1.21177 8.87846C1.11642 9.07276 1.06038 9.28398 1.04688 9.5V11.2875C1.05984 11.5542 1.15785 11.8097 1.32655 12.0166C1.49525 12.2236 1.72578 12.3711 1.98438 12.4375V14.725C1.98048 14.9832 2.07537 15.2331 2.24964 15.4236C2.4239 15.6142 2.66438 15.7309 2.92188 15.75H4.22813C4.36118 15.742 4.49134 15.7079 4.61117 15.6495C4.73099 15.5911 4.8381 15.5097 4.92636 15.4098C5.01463 15.3099 5.0823 15.1936 5.12551 15.0675C5.16871 14.9414 5.18659 14.808 5.17812 14.675V12.3938C5.42101 12.3163 5.63441 12.1664 5.78969 11.9642C5.94497 11.762 6.03471 11.5172 6.04688 11.2625V9.5C6.03337 9.28398 5.97733 9.07276 5.88198 8.87846C5.78663 8.68416 5.65384 8.5106 5.49124 8.36774C5.32864 8.22489 5.13943 8.11555 4.93447 8.04601C4.72951 7.97647 4.51283 7.94809 4.29688 7.9625ZM3.92813 14.5H3.23438V11.2313H2.42187C2.38079 11.2411 2.33796 11.2411 2.29688 11.2313V9.5C2.29688 9.39375 2.49688 9.2375 2.79688 9.2375H4.29688C4.59687 9.2375 4.79688 9.39375 4.79688 9.5V11.2313C4.75579 11.2411 4.71296 11.2411 4.67188 11.2313H3.92813V14.5ZM16.0469 7.48125C16.2459 7.48125 16.4404 7.42224 16.6059 7.31167C16.7714 7.2011 16.9004 7.04394 16.9765 6.86008C17.0527 6.67621 17.0726 6.47388 17.0338 6.27869C16.995 6.0835 16.8991 5.9042 16.7584 5.76347C16.6177 5.62275 16.4384 5.52691 16.2432 5.48809C16.048 5.44926 15.8457 5.46919 15.6618 5.54535C15.4779 5.62151 15.3208 5.75048 15.2102 5.91596C15.0996 6.08143 15.0406 6.27598 15.0406 6.475C15.0406 6.74187 15.1466 6.99782 15.3353 7.18653C15.5241 7.37524 15.78 7.48125 16.0469 7.48125ZM16.7969 7.9625H15.2969C15.0809 7.94809 14.8642 7.97647 14.6593 8.04601C14.4543 8.11555 14.2651 8.22489 14.1025 8.36774C13.9399 8.5106 13.8071 8.68416 13.7118 8.87846C13.6164 9.07276 13.5604 9.28398 13.5469 9.5V11.2875C13.5598 11.5542 13.6578 11.8097 13.8265 12.0166C13.9952 12.2236 14.2258 12.3711 14.4844 12.4375V14.725C14.4805 14.9832 14.5754 15.2331 14.7496 15.4236C14.9239 15.6142 15.1644 15.7309 15.4219 15.75H16.7156C16.8487 15.742 16.9788 15.7079 17.0987 15.6495C17.2185 15.5911 17.3256 15.5097 17.4139 15.4098C17.5021 15.3099 17.5698 15.1936 17.613 15.0675C17.6562 14.9414 17.6741 14.808 17.6656 14.675V12.3938C17.9108 12.3184 18.1269 12.1694 18.2846 11.9671C18.4422 11.7647 18.5338 11.5187 18.5469 11.2625V9.5C18.5334 9.28398 18.4773 9.07276 18.382 8.87846C18.2866 8.68416 18.1538 8.5106 17.9912 8.36774C17.8286 8.22489 17.6394 8.11555 17.4345 8.04601C17.2295 7.97647 17.0128 7.94809 16.7969 7.9625ZM16.4281 14.5H15.7344V11.2313H14.9219C14.8808 11.2411 14.838 11.2411 14.7969 11.2313V9.5C14.7969 9.39375 14.9969 9.2375 15.2969 9.2375H16.7969C17.0969 9.2375 17.2969 9.39375 17.2969 9.5V11.2313C17.2558 11.2411 17.213 11.2411 17.1719 11.2313H16.4281V14.5Z" fill="#ED5826"/>
</svg>
