<svg width="21" height="21" viewBox="0 0 21 21" fill="none" xmlns="http://www.w3.org/2000/svg">
<path d="M10.8516 6.56982C11.1915 6.56982 11.5238 6.46902 11.8064 6.28016C12.0891 6.0913 12.3094 5.82287 12.4395 5.50881C12.5696 5.19475 12.6036 4.84917 12.5373 4.51576C12.471 4.18236 12.3073 3.87611 12.0669 3.63573C11.8265 3.39536 11.5203 3.23167 11.1869 3.16535C10.8535 3.09903 10.5079 3.13307 10.1938 3.26316C9.87976 3.39325 9.61133 3.61354 9.42247 3.89619C9.23362 4.17884 9.13281 4.51114 9.13281 4.85107C9.13281 5.07678 9.17727 5.30028 9.26364 5.50881C9.35002 5.71734 9.47662 5.90681 9.63622 6.06641C9.95855 6.38874 10.3957 6.56982 10.8516 6.56982ZM10.8516 4.38232C10.9443 4.38232 11.0349 4.40982 11.112 4.46132C11.1891 4.51283 11.2492 4.58604 11.2846 4.67169C11.3201 4.75734 11.3294 4.85159 11.3113 4.94252C11.2932 5.03345 11.2486 5.11698 11.183 5.18253C11.1175 5.24809 11.0339 5.29273 10.943 5.31082C10.8521 5.3289 10.7578 5.31962 10.6722 5.28414C10.5865 5.24866 10.5133 5.18858 10.4618 5.1115C10.4103 5.03441 10.3828 4.94378 10.3828 4.85107C10.3811 4.78877 10.392 4.72676 10.4149 4.66877C10.4378 4.61079 10.4722 4.55803 10.5159 4.51367C10.5597 4.4693 10.612 4.43424 10.6697 4.4106C10.7274 4.38695 10.7892 4.37521 10.8516 4.37607V4.38232ZM11.9016 6.83232H9.80156C9.25509 6.79975 8.71788 6.98444 8.30698 7.34618C7.89607 7.70792 7.64477 8.21738 7.60781 8.76358V11.3823C7.61644 11.6933 7.72153 11.9939 7.90853 12.2424C8.09553 12.491 8.35519 12.6753 8.65156 12.7698V16.2698C8.64486 16.4274 8.6693 16.5848 8.72349 16.733C8.77768 16.8812 8.86055 17.0172 8.96736 17.1333C9.07417 17.2494 9.20283 17.3433 9.34597 17.4096C9.48912 17.4759 9.64393 17.5134 9.80156 17.5198H11.9016C12.0592 17.5134 12.214 17.4759 12.3571 17.4096C12.5003 17.3433 12.629 17.2494 12.7358 17.1333C12.8426 17.0172 12.9254 16.8812 12.9796 16.733C13.0338 16.5848 13.0583 16.4274 13.0516 16.2698V12.7698C13.3479 12.6753 13.6076 12.491 13.7946 12.2424C13.9816 11.9939 14.0867 11.6933 14.0953 11.3823V8.76358C14.0584 8.21738 13.8071 7.70792 13.3961 7.34618C12.9852 6.98444 12.448 6.79975 11.9016 6.83232ZM9.90156 16.2636V11.6323H9.27656C9.02656 11.6323 8.85781 11.4823 8.85781 11.3823V8.76358C8.85781 8.39482 9.28906 8.08232 9.80156 8.08232H11.9016C12.4141 8.08232 12.8453 8.39482 12.8453 8.76358V11.3823C12.8453 11.4823 12.6766 11.6323 12.4266 11.6323H11.8016V12.2573V16.2636H9.90156ZM4.60156 7.05107C4.80058 7.05108 4.99513 6.99206 5.16061 6.88149C5.32608 6.77092 5.45506 6.61377 5.53122 6.4299C5.60738 6.24603 5.6273 6.04371 5.58848 5.84852C5.54965 5.65332 5.45382 5.47403 5.31309 5.3333C5.17236 5.19257 4.99307 5.09674 4.79787 5.05791C4.60268 5.01908 4.40036 5.03901 4.21649 5.11517C4.03262 5.19133 3.87546 5.32031 3.7649 5.48578C3.65433 5.65126 3.59531 5.84581 3.59531 6.04482C3.59531 6.3117 3.70133 6.56764 3.89004 6.75635C4.07874 6.94506 4.33469 7.05107 4.60156 7.05107ZM5.35156 7.53232H3.85156C3.6356 7.51791 3.41893 7.54629 3.21396 7.61583C3.009 7.68538 2.81979 7.79471 2.65719 7.93757C2.4946 8.08042 2.36181 8.25398 2.26646 8.44828C2.17111 8.64259 2.11507 8.85381 2.10156 9.06982V10.8573C2.11452 11.124 2.21253 11.3795 2.38124 11.5865C2.54994 11.7934 2.78047 11.9409 3.03906 12.0073V14.2948C3.03517 14.553 3.13006 14.8029 3.30432 14.9934C3.47859 15.184 3.71906 15.3007 3.97656 15.3198H5.28281C5.41586 15.3119 5.54603 15.2777 5.66585 15.2193C5.78567 15.1609 5.89279 15.0795 5.98105 14.9796C6.06932 14.8797 6.13699 14.7634 6.18019 14.6373C6.2234 14.5112 6.24128 14.3778 6.23281 14.2448V11.9636C6.4757 11.8861 6.6891 11.7362 6.84438 11.534C6.99966 11.3318 7.0894 11.087 7.10156 10.8323V9.06982C7.08805 8.85381 7.03201 8.64259 6.93666 8.44828C6.84131 8.25398 6.70853 8.08042 6.54593 7.93757C6.38333 7.79471 6.19412 7.68538 5.98916 7.61583C5.7842 7.54629 5.56752 7.51791 5.35156 7.53232ZM4.98281 14.0698H4.28906V10.8011H3.47656C3.43547 10.8109 3.39265 10.8109 3.35156 10.8011V9.06982C3.35156 8.96357 3.55156 8.80732 3.85156 8.80732H5.35156C5.65156 8.80732 5.85156 8.96357 5.85156 9.06982V10.8011C5.81047 10.8109 5.76765 10.8109 5.72656 10.8011H4.98281V14.0698ZM17.1016 7.05107C17.3006 7.05108 17.4951 6.99206 17.6606 6.88149C17.8261 6.77092 17.9551 6.61377 18.0312 6.4299C18.1074 6.24603 18.1273 6.04371 18.0885 5.84852C18.0497 5.65332 17.9538 5.47403 17.8131 5.3333C17.6724 5.19257 17.4931 5.09674 17.2979 5.05791C17.1027 5.01908 16.9004 5.03901 16.7165 5.11517C16.5326 5.19133 16.3755 5.32031 16.2649 5.48578C16.1543 5.65126 16.0953 5.84581 16.0953 6.04482C16.0953 6.3117 16.2013 6.56764 16.39 6.75635C16.5787 6.94506 16.8347 7.05107 17.1016 7.05107ZM17.8516 7.53232H16.3516C16.1356 7.51791 15.9189 7.54629 15.714 7.61583C15.509 7.68538 15.3198 7.79471 15.1572 7.93757C14.9946 8.08042 14.8618 8.25398 14.7665 8.44828C14.6711 8.64259 14.6151 8.85381 14.6016 9.06982V10.8573C14.6145 11.124 14.7125 11.3795 14.8812 11.5865C15.0499 11.7934 15.2805 11.9409 15.5391 12.0073V14.2948C15.5352 14.553 15.6301 14.8029 15.8043 14.9934C15.9786 15.184 16.2191 15.3007 16.4766 15.3198H17.7703C17.9034 15.3119 18.0335 15.2777 18.1534 15.2193C18.2732 15.1609 18.3803 15.0795 18.4686 14.9796C18.5568 14.8797 18.6245 14.7634 18.6677 14.6373C18.7109 14.5112 18.7288 14.3778 18.7203 14.2448V11.9636C18.9655 11.8882 19.1816 11.7393 19.3393 11.5369C19.4969 11.3345 19.5885 11.0885 19.6016 10.8323V9.06982C19.5881 8.85381 19.532 8.64259 19.4367 8.44828C19.3413 8.25398 19.2085 8.08042 19.0459 7.93757C18.8833 7.79471 18.6941 7.68538 18.4892 7.61583C18.2842 7.54629 18.0675 7.51791 17.8516 7.53232ZM17.4828 14.0698H16.7891V10.8011H15.9766C15.9355 10.8109 15.8926 10.8109 15.8516 10.8011V9.06982C15.8516 8.96357 16.0516 8.80732 16.3516 8.80732H17.8516C18.1516 8.80732 18.3516 8.96357 18.3516 9.06982V10.8011C18.3105 10.8109 18.2676 10.8109 18.2266 10.8011H17.4828V14.0698Z" fill="#ED5826"/>
</svg>
