<svg width="21" height="21" viewBox="0 0 21 21" fill="none" xmlns="http://www.w3.org/2000/svg">
<path d="M10.6934 6.56982C11.0333 6.56982 11.3656 6.46902 11.6482 6.28016C11.9309 6.0913 12.1512 5.82287 12.2813 5.50881C12.4114 5.19475 12.4454 4.84917 12.3791 4.51576C12.3128 4.18236 12.1491 3.87611 11.9087 3.63573C11.6683 3.39536 11.3621 3.23167 11.0287 3.16535C10.6953 3.09903 10.3497 3.13307 10.0356 3.26316C9.72156 3.39325 9.45313 3.61354 9.26427 3.89619C9.07541 4.17884 8.97461 4.51114 8.97461 4.85107C8.97461 5.07678 9.01907 5.30028 9.10544 5.50881C9.19182 5.71734 9.31842 5.90681 9.47802 6.06641C9.80035 6.38874 10.2375 6.56982 10.6934 6.56982ZM10.6934 4.38232C10.7861 4.38232 10.8767 4.40982 10.9538 4.46132C11.0309 4.51283 11.0909 4.58604 11.1264 4.67169C11.1619 4.75734 11.1712 4.85159 11.1531 4.94252C11.135 5.03345 11.0904 5.11698 11.0248 5.18253C10.9593 5.24809 10.8757 5.29273 10.7848 5.31082C10.6939 5.3289 10.5996 5.31962 10.514 5.28414C10.4283 5.24866 10.3551 5.18858 10.3036 5.1115C10.2521 5.03441 10.2246 4.94378 10.2246 4.85107C10.2229 4.78877 10.2338 4.72676 10.2567 4.66877C10.2796 4.61079 10.314 4.55803 10.3577 4.51367C10.4015 4.4693 10.4538 4.43424 10.5115 4.4106C10.5692 4.38695 10.631 4.37521 10.6934 4.37607V4.38232ZM11.7434 6.83232H9.64336C9.09688 6.79975 8.55968 6.98444 8.14877 7.34618C7.73787 7.70792 7.48656 8.21738 7.44961 8.76358V11.3823C7.45824 11.6933 7.56333 11.9939 7.75033 12.2424C7.93733 12.491 8.19699 12.6753 8.49336 12.7698V16.2698C8.48665 16.4274 8.5111 16.5848 8.56528 16.733C8.61947 16.8812 8.70234 17.0172 8.80916 17.1333C8.91597 17.2494 9.04463 17.3433 9.18777 17.4096C9.33091 17.4759 9.48573 17.5134 9.64336 17.5198H11.7434C11.901 17.5134 12.0558 17.4759 12.1989 17.4096C12.3421 17.3433 12.4707 17.2494 12.5776 17.1333C12.6844 17.0172 12.7672 16.8812 12.8214 16.733C12.8756 16.5848 12.9001 16.4274 12.8934 16.2698V12.7698C13.1897 12.6753 13.4494 12.491 13.6364 12.2424C13.8234 11.9939 13.9285 11.6933 13.9371 11.3823V8.76358C13.9002 8.21738 13.6489 7.70792 13.2379 7.34618C12.827 6.98444 12.2898 6.79975 11.7434 6.83232ZM9.74336 16.2636V11.6323H9.11836C8.86836 11.6323 8.69961 11.4823 8.69961 11.3823V8.76358C8.69961 8.39482 9.13086 8.08232 9.64336 8.08232H11.7434C12.2559 8.08232 12.6871 8.39482 12.6871 8.76358V11.3823C12.6871 11.4823 12.5184 11.6323 12.2684 11.6323H11.6434V12.2573V16.2636H9.74336ZM4.44336 7.05107C4.64238 7.05108 4.83693 6.99206 5.0024 6.88149C5.16788 6.77092 5.29685 6.61377 5.37301 6.4299C5.44917 6.24603 5.4691 6.04371 5.43027 5.84852C5.39145 5.65332 5.29561 5.47403 5.15489 5.3333C5.01416 5.19257 4.83486 5.09674 4.63967 5.05791C4.44448 5.01908 4.24215 5.03901 4.05828 5.11517C3.87442 5.19133 3.71726 5.32031 3.60669 5.48578C3.49612 5.65126 3.43711 5.84581 3.43711 6.04482C3.43711 6.3117 3.54312 6.56764 3.73183 6.75635C3.92054 6.94506 4.17649 7.05107 4.44336 7.05107ZM5.19336 7.53232H3.69336C3.4774 7.51791 3.26072 7.54629 3.05576 7.61583C2.8508 7.68538 2.66159 7.79471 2.49899 7.93757C2.33639 8.08042 2.20361 8.25398 2.10826 8.44828C2.01291 8.64259 1.95687 8.85381 1.94336 9.06982V10.8573C1.95632 11.124 2.05433 11.3795 2.22303 11.5865C2.39173 11.7934 2.62226 11.9409 2.88086 12.0073V14.2948C2.87696 14.553 2.97185 14.8029 3.14612 14.9934C3.32039 15.184 3.56086 15.3007 3.81836 15.3198H5.12461C5.25766 15.3119 5.38783 15.2777 5.50765 15.2193C5.62747 15.1609 5.73459 15.0795 5.82285 14.9796C5.91111 14.8797 5.97879 14.7634 6.02199 14.6373C6.06519 14.5112 6.08307 14.3778 6.07461 14.2448V11.9636C6.3175 11.8861 6.53089 11.7362 6.68617 11.534C6.84145 11.3318 6.93119 11.087 6.94336 10.8323V9.06982C6.92985 8.85381 6.87381 8.64259 6.77846 8.44828C6.68311 8.25398 6.55033 8.08042 6.38773 7.93757C6.22513 7.79471 6.03592 7.68538 5.83096 7.61583C5.626 7.54629 5.40932 7.51791 5.19336 7.53232ZM4.82461 14.0698H4.13086V10.8011H3.31836C3.27727 10.8109 3.23445 10.8109 3.19336 10.8011V9.06982C3.19336 8.96357 3.39336 8.80732 3.69336 8.80732H5.19336C5.49336 8.80732 5.69336 8.96357 5.69336 9.06982V10.8011C5.65227 10.8109 5.60945 10.8109 5.56836 10.8011H4.82461V14.0698ZM16.9434 7.05107C17.1424 7.05108 17.3369 6.99206 17.5024 6.88149C17.6679 6.77092 17.7969 6.61377 17.873 6.4299C17.9492 6.24603 17.9691 6.04371 17.9303 5.84852C17.8914 5.65332 17.7956 5.47403 17.6549 5.3333C17.5142 5.19257 17.3349 5.09674 17.1397 5.05791C16.9445 5.01908 16.7422 5.03901 16.5583 5.11517C16.3744 5.19133 16.2173 5.32031 16.1067 5.48578C15.9961 5.65126 15.9371 5.84581 15.9371 6.04482C15.9371 6.3117 16.0431 6.56764 16.2318 6.75635C16.4205 6.94506 16.6765 7.05107 16.9434 7.05107ZM17.6934 7.53232H16.1934C15.9774 7.51791 15.7607 7.54629 15.5558 7.61583C15.3508 7.68538 15.1616 7.79471 14.999 7.93757C14.8364 8.08042 14.7036 8.25398 14.6083 8.44828C14.5129 8.64259 14.4569 8.85381 14.4434 9.06982V10.8573C14.4563 11.124 14.5543 11.3795 14.723 11.5865C14.8917 11.7934 15.1223 11.9409 15.3809 12.0073V14.2948C15.377 14.553 15.4719 14.8029 15.6461 14.9934C15.8204 15.184 16.0609 15.3007 16.3184 15.3198H17.6121C17.7452 15.3119 17.8753 15.2777 17.9951 15.2193C18.115 15.1609 18.2221 15.0795 18.3103 14.9796C18.3986 14.8797 18.4663 14.7634 18.5095 14.6373C18.5527 14.5112 18.5706 14.3778 18.5621 14.2448V11.9636C18.8073 11.8882 19.0234 11.7393 19.1811 11.5369C19.3387 11.3345 19.4303 11.0885 19.4434 10.8323V9.06982C19.4298 8.85381 19.3738 8.64259 19.2785 8.44828C19.1831 8.25398 19.0503 8.08042 18.8877 7.93757C18.7251 7.79471 18.5359 7.68538 18.331 7.61583C18.126 7.54629 17.9093 7.51791 17.6934 7.53232ZM17.3246 14.0698H16.6309V10.8011H15.8184C15.7773 10.8109 15.7344 10.8109 15.6934 10.8011V9.06982C15.6934 8.96357 15.8934 8.80732 16.1934 8.80732H17.6934C17.9934 8.80732 18.1934 8.96357 18.1934 9.06982V10.8011C18.1523 10.8109 18.1094 10.8109 18.0684 10.8011H17.3246V14.0698Z" fill="#ED5826"/>
</svg>
