<svg width="21" height="21" viewBox="0 0 21 21" fill="none" xmlns="http://www.w3.org/2000/svg">
<path d="M10.1934 6.56982C10.5333 6.56982 10.8656 6.46902 11.1482 6.28016C11.4309 6.0913 11.6512 5.82287 11.7813 5.50881C11.9114 5.19475 11.9454 4.84917 11.8791 4.51576C11.8128 4.18236 11.6491 3.87611 11.4087 3.63573C11.1683 3.39536 10.8621 3.23167 10.5287 3.16535C10.1953 3.09903 9.84968 3.13307 9.53562 3.26316C9.22156 3.39325 8.95313 3.61354 8.76427 3.89619C8.57541 4.17884 8.47461 4.51114 8.47461 4.85107C8.47461 5.07678 8.51907 5.30028 8.60544 5.50881C8.69182 5.71734 8.81842 5.90681 8.97802 6.06641C9.30035 6.38874 9.73752 6.56982 10.1934 6.56982ZM10.1934 4.38232C10.2861 4.38232 10.3767 4.40982 10.4538 4.46132C10.5309 4.51283 10.5909 4.58604 10.6264 4.67169C10.6619 4.75734 10.6712 4.85159 10.6531 4.94252C10.635 5.03345 10.5904 5.11698 10.5248 5.18253C10.4593 5.24809 10.3757 5.29273 10.2848 5.31082C10.1939 5.3289 10.0996 5.31962 10.014 5.28414C9.92832 5.24866 9.85511 5.18858 9.80361 5.1115C9.7521 5.03441 9.72461 4.94378 9.72461 4.85107C9.72292 4.78877 9.73384 4.72676 9.75672 4.66877C9.7796 4.61079 9.81396 4.55803 9.85774 4.51367C9.90153 4.4693 9.95383 4.43424 10.0115 4.4106C10.0692 4.38695 10.131 4.37521 10.1934 4.37607V4.38232ZM11.2434 6.83232H9.14336C8.59688 6.79975 8.05968 6.98444 7.64877 7.34618C7.23787 7.70792 6.98656 8.21738 6.94961 8.76358V11.3823C6.95824 11.6933 7.06333 11.9939 7.25033 12.2424C7.43733 12.491 7.69699 12.6753 7.99336 12.7698V16.2698C7.98665 16.4274 8.0111 16.5848 8.06528 16.733C8.11947 16.8812 8.20234 17.0172 8.30916 17.1333C8.41597 17.2494 8.54463 17.3433 8.68777 17.4096C8.83091 17.4759 8.98573 17.5134 9.14336 17.5198H11.2434C11.401 17.5134 11.5558 17.4759 11.6989 17.4096C11.8421 17.3433 11.9707 17.2494 12.0776 17.1333C12.1844 17.0172 12.2672 16.8812 12.3214 16.733C12.3756 16.5848 12.4001 16.4274 12.3934 16.2698V12.7698C12.6897 12.6753 12.9494 12.491 13.1364 12.2424C13.3234 11.9939 13.4285 11.6933 13.4371 11.3823V8.76358C13.4002 8.21738 13.1489 7.70792 12.7379 7.34618C12.327 6.98444 11.7898 6.79975 11.2434 6.83232ZM9.24336 16.2636V11.6323H8.61836C8.36836 11.6323 8.19961 11.4823 8.19961 11.3823V8.76358C8.19961 8.39482 8.63086 8.08232 9.14336 8.08232H11.2434C11.7559 8.08232 12.1871 8.39482 12.1871 8.76358V11.3823C12.1871 11.4823 12.0184 11.6323 11.7684 11.6323H11.1434V12.2573V16.2636H9.24336ZM3.94336 7.05107C4.14238 7.05108 4.33693 6.99206 4.5024 6.88149C4.66788 6.77092 4.79685 6.61377 4.87301 6.4299C4.94917 6.24603 4.9691 6.04371 4.93027 5.84852C4.89145 5.65332 4.79561 5.47403 4.65489 5.3333C4.51416 5.19257 4.33486 5.09674 4.13967 5.05791C3.94448 5.01908 3.74215 5.03901 3.55828 5.11517C3.37442 5.19133 3.21726 5.32031 3.10669 5.48578C2.99612 5.65126 2.93711 5.84581 2.93711 6.04482C2.93711 6.3117 3.04312 6.56764 3.23183 6.75635C3.42054 6.94506 3.67649 7.05107 3.94336 7.05107ZM4.69336 7.53232H3.19336C2.9774 7.51791 2.76072 7.54629 2.55576 7.61583C2.3508 7.68538 2.16159 7.79471 1.99899 7.93757C1.83639 8.08042 1.70361 8.25398 1.60826 8.44828C1.51291 8.64259 1.45687 8.85381 1.44336 9.06982V10.8573C1.45632 11.124 1.55433 11.3795 1.72303 11.5865C1.89173 11.7934 2.12226 11.9409 2.38086 12.0073V14.2948C2.37696 14.553 2.47185 14.8029 2.64612 14.9934C2.82039 15.184 3.06086 15.3007 3.31836 15.3198H4.62461C4.75766 15.3119 4.88783 15.2777 5.00765 15.2193C5.12747 15.1609 5.23459 15.0795 5.32285 14.9796C5.41111 14.8797 5.47879 14.7634 5.52199 14.6373C5.56519 14.5112 5.58307 14.3778 5.57461 14.2448V11.9636C5.8175 11.8861 6.03089 11.7362 6.18617 11.534C6.34145 11.3318 6.43119 11.087 6.44336 10.8323V9.06982C6.42985 8.85381 6.37381 8.64259 6.27846 8.44828C6.18311 8.25398 6.05033 8.08042 5.88773 7.93757C5.72513 7.79471 5.53592 7.68538 5.33096 7.61583C5.126 7.54629 4.90932 7.51791 4.69336 7.53232ZM4.32461 14.0698H3.63086V10.8011H2.81836C2.77727 10.8109 2.73445 10.8109 2.69336 10.8011V9.06982C2.69336 8.96357 2.89336 8.80732 3.19336 8.80732H4.69336C4.99336 8.80732 5.19336 8.96357 5.19336 9.06982V10.8011C5.15227 10.8109 5.10945 10.8109 5.06836 10.8011H4.32461V14.0698ZM16.4434 7.05107C16.6424 7.05108 16.8369 6.99206 17.0024 6.88149C17.1679 6.77092 17.2969 6.61377 17.373 6.4299C17.4492 6.24603 17.4691 6.04371 17.4303 5.84852C17.3914 5.65332 17.2956 5.47403 17.1549 5.3333C17.0142 5.19257 16.8349 5.09674 16.6397 5.05791C16.4445 5.01908 16.2422 5.03901 16.0583 5.11517C15.8744 5.19133 15.7173 5.32031 15.6067 5.48578C15.4961 5.65126 15.4371 5.84581 15.4371 6.04482C15.4371 6.3117 15.5431 6.56764 15.7318 6.75635C15.9205 6.94506 16.1765 7.05107 16.4434 7.05107ZM17.1934 7.53232H15.6934C15.4774 7.51791 15.2607 7.54629 15.0558 7.61583C14.8508 7.68538 14.6616 7.79471 14.499 7.93757C14.3364 8.08042 14.2036 8.25398 14.1083 8.44828C14.0129 8.64259 13.9569 8.85381 13.9434 9.06982V10.8573C13.9563 11.124 14.0543 11.3795 14.223 11.5865C14.3917 11.7934 14.6223 11.9409 14.8809 12.0073V14.2948C14.877 14.553 14.9719 14.8029 15.1461 14.9934C15.3204 15.184 15.5609 15.3007 15.8184 15.3198H17.1121C17.2452 15.3119 17.3753 15.2777 17.4951 15.2193C17.615 15.1609 17.7221 15.0795 17.8103 14.9796C17.8986 14.8797 17.9663 14.7634 18.0095 14.6373C18.0527 14.5112 18.0706 14.3778 18.0621 14.2448V11.9636C18.3073 11.8882 18.5234 11.7393 18.6811 11.5369C18.8387 11.3345 18.9303 11.0885 18.9434 10.8323V9.06982C18.9298 8.85381 18.8738 8.64259 18.7785 8.44828C18.6831 8.25398 18.5503 8.08042 18.3877 7.93757C18.2251 7.79471 18.0359 7.68538 17.831 7.61583C17.626 7.54629 17.4093 7.51791 17.1934 7.53232ZM16.8246 14.0698H16.1309V10.8011H15.3184C15.2773 10.8109 15.2344 10.8109 15.1934 10.8011V9.06982C15.1934 8.96357 15.3934 8.80732 15.6934 8.80732H17.1934C17.4934 8.80732 17.6934 8.96357 17.6934 9.06982V10.8011C17.6523 10.8109 17.6094 10.8109 17.5684 10.8011H16.8246V14.0698Z" fill="#ED5826"/>
</svg>
