<svg width="24" height="25" viewBox="0 0 24 25" fill="none" xmlns="http://www.w3.org/2000/svg">
<path d="M11.7559 8.47534C12.1638 8.47534 12.5625 8.35438 12.9017 8.12775C13.2409 7.90112 13.5053 7.579 13.6614 7.20213C13.8175 6.82525 13.8583 6.41055 13.7787 6.01047C13.6991 5.61038 13.5027 5.24288 13.2143 4.95443C12.9258 4.66599 12.5583 4.46956 12.1582 4.38997C11.7581 4.31039 11.3434 4.35124 10.9666 4.50734C10.5897 4.66345 10.2676 4.9278 10.041 5.26698C9.81432 5.60616 9.69336 6.00492 9.69336 6.41284C9.69336 6.68369 9.74671 6.95189 9.85036 7.20213C9.95401 7.45236 10.1059 7.67973 10.2975 7.87125C10.6842 8.25804 11.2089 8.47534 11.7559 8.47534ZM11.7559 5.85034C11.8671 5.85034 11.9759 5.88333 12.0684 5.94514C12.1609 6.00695 12.233 6.0948 12.2755 6.19758C12.3181 6.30037 12.3293 6.41347 12.3076 6.52258C12.2858 6.6317 12.2323 6.73192 12.1536 6.81059C12.0749 6.88926 11.9747 6.94283 11.8656 6.96453C11.7565 6.98624 11.6434 6.9751 11.5406 6.93252C11.4378 6.88995 11.35 6.81785 11.2882 6.72535C11.2263 6.63285 11.1934 6.52409 11.1934 6.41284C11.1913 6.33807 11.2044 6.26366 11.2319 6.19408C11.2593 6.1245 11.3006 6.06119 11.3531 6.00795C11.4057 5.95471 11.4684 5.91264 11.5376 5.88427C11.6068 5.8559 11.6811 5.8418 11.7559 5.84284V5.85034ZM13.0159 8.79034H10.4959C9.84009 8.75125 9.19544 8.97289 8.70236 9.40697C8.20927 9.84105 7.90771 10.4524 7.86336 11.1078V14.2503C7.87372 14.6235 7.99982 14.9842 8.22422 15.2825C8.44862 15.5808 8.76022 15.8019 9.11586 15.9153V20.1153C9.10781 20.3045 9.13714 20.4934 9.20217 20.6712C9.2672 20.8489 9.36664 21.0122 9.49482 21.1515C9.62299 21.2908 9.77738 21.4035 9.94915 21.4831C10.1209 21.5627 10.3067 21.6076 10.4959 21.6153H13.0159C13.205 21.6076 13.3908 21.5627 13.5626 21.4831C13.7343 21.4035 13.8887 21.2908 14.0169 21.1515C14.1451 21.0122 14.2445 20.8489 14.3095 20.6712C14.3746 20.4934 14.4039 20.3045 14.3959 20.1153V15.9153C14.7515 15.8019 15.0631 15.5808 15.2875 15.2825C15.5119 14.9842 15.638 14.6235 15.6484 14.2503V11.1078C15.604 10.4524 15.3024 9.84105 14.8094 9.40697C14.3163 8.97289 13.6716 8.75125 13.0159 8.79034ZM10.6159 20.1078V14.5503H9.86586C9.56586 14.5503 9.36336 14.3703 9.36336 14.2503V11.1078C9.36336 10.6653 9.88086 10.2903 10.4959 10.2903H13.0159C13.6309 10.2903 14.1484 10.6653 14.1484 11.1078V14.2503C14.1484 14.3703 13.9459 14.5503 13.6459 14.5503H12.8959V15.3003V20.1078H10.6159ZM4.25586 9.05284C4.49468 9.05284 4.72814 8.98202 4.92671 8.84934C5.12528 8.71666 5.28005 8.52807 5.37144 8.30743C5.46284 8.08679 5.48675 7.844 5.44016 7.60977C5.39357 7.37554 5.27856 7.16038 5.10969 6.99151C4.94082 6.82264 4.72566 6.70764 4.49143 6.66104C4.2572 6.61445 4.01441 6.63837 3.79377 6.72976C3.57313 6.82115 3.38454 6.97592 3.25186 7.17449C3.11918 7.37306 3.04836 7.60652 3.04836 7.84534C3.04836 8.16559 3.17558 8.47272 3.40203 8.69917C3.62848 8.92562 3.93561 9.05284 4.25586 9.05284ZM5.15586 9.63034H3.35586C3.09671 9.61305 2.8367 9.6471 2.59074 9.73055C2.34479 9.814 2.11774 9.94521 1.92262 10.1166C1.7275 10.2881 1.56816 10.4963 1.45374 10.7295C1.33932 10.9627 1.27207 11.2161 1.25586 11.4753V13.6203C1.27141 13.9404 1.38903 14.247 1.59147 14.4953C1.79391 14.7436 2.07055 14.9206 2.38086 15.0003V17.7453C2.37619 18.0552 2.49005 18.355 2.69917 18.5837C2.90829 18.8123 3.19686 18.9524 3.50586 18.9753H5.07336C5.23302 18.9658 5.38922 18.9248 5.53301 18.8548C5.67679 18.7847 5.80533 18.6869 5.91125 18.5671C6.01716 18.4472 6.09837 18.3076 6.15022 18.1563C6.20206 18.005 6.22352 17.845 6.21336 17.6853V14.9478C6.50483 14.8549 6.7609 14.675 6.94724 14.4324C7.13357 14.1897 7.24126 13.8959 7.25586 13.5903V11.4753C7.23965 11.2161 7.1724 10.9627 7.05798 10.7295C6.94356 10.4963 6.78422 10.2881 6.5891 10.1166C6.39398 9.94521 6.16693 9.814 5.92098 9.73055C5.67502 9.6471 5.41501 9.61305 5.15586 9.63034ZM4.71336 17.4753H3.88086V13.5528H2.90586C2.85655 13.5646 2.80516 13.5646 2.75586 13.5528V11.4753C2.75586 11.3478 2.99586 11.1603 3.35586 11.1603H5.15586C5.51586 11.1603 5.75586 11.3478 5.75586 11.4753V13.5528C5.70655 13.5646 5.65516 13.5646 5.60586 13.5528H4.71336V17.4753ZM19.2559 9.05284C19.4947 9.05284 19.7281 8.98202 19.9267 8.84934C20.1253 8.71666 20.2801 8.52807 20.3714 8.30743C20.4628 8.08679 20.4867 7.844 20.4402 7.60977C20.3936 7.37554 20.2786 7.16038 20.1097 6.99151C19.9408 6.82264 19.7257 6.70764 19.4914 6.66104C19.2572 6.61445 19.0144 6.63837 18.7938 6.72976C18.5731 6.82115 18.3845 6.97592 18.2519 7.17449C18.1192 7.37306 18.0484 7.60652 18.0484 7.84534C18.0484 8.16559 18.1756 8.47272 18.402 8.69917C18.6285 8.92562 18.9356 9.05284 19.2559 9.05284ZM20.1559 9.63034H18.3559C18.0967 9.61305 17.8367 9.6471 17.5907 9.73055C17.3448 9.814 17.1177 9.94521 16.9226 10.1166C16.7275 10.2881 16.5682 10.4963 16.4537 10.7295C16.3393 10.9627 16.2721 11.2161 16.2559 11.4753V13.6203C16.2714 13.9404 16.389 14.247 16.5915 14.4953C16.7939 14.7436 17.0705 14.9206 17.3809 15.0003V17.7453C17.3762 18.0552 17.4901 18.355 17.6992 18.5837C17.9083 18.8123 18.1969 18.9524 18.5059 18.9753H20.0584C20.218 18.9658 20.3742 18.9248 20.518 18.8548C20.6618 18.7847 20.7903 18.6869 20.8962 18.5671C21.0022 18.4472 21.0834 18.3076 21.1352 18.1563C21.1871 18.005 21.2085 17.845 21.1984 17.6853V14.9478C21.4926 14.8574 21.7519 14.6787 21.9411 14.4358C22.1303 14.193 22.2402 13.8978 22.2559 13.5903V11.4753C22.2396 11.2161 22.1724 10.9627 22.058 10.7295C21.9436 10.4963 21.7842 10.2881 21.5891 10.1166C21.394 9.94521 21.1669 9.814 20.921 9.73055C20.675 9.6471 20.415 9.61305 20.1559 9.63034ZM19.7134 17.4753H18.8809V13.5528H17.9059C17.8566 13.5646 17.8052 13.5646 17.7559 13.5528V11.4753C17.7559 11.3478 17.9959 11.1603 18.3559 11.1603H20.1559C20.5159 11.1603 20.7559 11.3478 20.7559 11.4753V13.5528C20.7066 13.5646 20.6552 13.5646 20.6059 13.5528H19.7134V17.4753Z" fill="#ED5826"/>
</svg>
