<svg width="20" height="20" viewBox="0 0 20 20" fill="none" xmlns="http://www.w3.org/2000/svg">
<path d="M9.79688 6.25C10.1368 6.25 10.4691 6.1492 10.7518 5.96034C11.0344 5.77148 11.2547 5.50305 11.3848 5.18899C11.5149 4.87493 11.5489 4.52934 11.4826 4.19594C11.4163 3.86253 11.2526 3.55628 11.0122 3.31591C10.7718 3.07554 10.4656 2.91184 10.1322 2.84553C9.79878 2.77921 9.4532 2.81324 9.13914 2.94333C8.82508 3.07342 8.55665 3.29372 8.36779 3.57636C8.17893 3.85901 8.07812 4.19131 8.07812 4.53125C8.07812 4.75696 8.12258 4.98046 8.20896 5.18899C8.29533 5.39752 8.42193 5.58699 8.58154 5.74659C8.90386 6.06892 9.34103 6.25 9.79688 6.25ZM9.79688 4.0625C9.88958 4.0625 9.98021 4.08999 10.0573 4.1415C10.1344 4.19301 10.1945 4.26621 10.2299 4.35187C10.2654 4.43752 10.2747 4.53177 10.2566 4.6227C10.2385 4.71363 10.1939 4.79715 10.1283 4.86271C10.0628 4.92826 9.97925 4.97291 9.88832 4.99099C9.7974 5.00908 9.70315 4.9998 9.61749 4.96432C9.53184 4.92884 9.45863 4.86876 9.40712 4.79167C9.35562 4.71459 9.32812 4.62396 9.32812 4.53125C9.32643 4.46894 9.33736 4.40693 9.36023 4.34895C9.38311 4.29097 9.41748 4.23821 9.46126 4.19384C9.50504 4.14948 9.55734 4.11442 9.61502 4.09077C9.67269 4.06713 9.73455 4.05539 9.79688 4.05625V4.0625ZM10.8469 6.5125H8.74687C8.2004 6.47992 7.66319 6.66462 7.25229 7.02636C6.84138 7.38809 6.59008 7.89755 6.55313 8.44375V11.0625C6.56175 11.3735 6.66684 11.674 6.85385 11.9226C7.04085 12.1712 7.3005 12.3555 7.59687 12.45V15.95C7.59017 16.1076 7.61461 16.265 7.6688 16.4132C7.72299 16.5613 7.80586 16.6974 7.91267 16.8135C8.01949 16.9296 8.14815 17.0235 8.29129 17.0898C8.43443 17.1561 8.58924 17.1936 8.74687 17.2H10.8469C11.0045 17.1936 11.1593 17.1561 11.3025 17.0898C11.4456 17.0235 11.5743 16.9296 11.6811 16.8135C11.7879 16.6974 11.8708 16.5613 11.925 16.4132C11.9791 16.265 12.0036 16.1076 11.9969 15.95V12.45C12.2932 12.3555 12.5529 12.1712 12.7399 11.9226C12.9269 11.674 13.032 11.3735 13.0406 11.0625V8.44375C13.0037 7.89755 12.7524 7.38809 12.3415 7.02636C11.9306 6.66462 11.3933 6.47992 10.8469 6.5125ZM8.84687 15.9438V11.3125H8.22187C7.97187 11.3125 7.80313 11.1625 7.80313 11.0625V8.44375C7.80313 8.075 8.23438 7.7625 8.74687 7.7625H10.8469C11.3594 7.7625 11.7906 8.075 11.7906 8.44375V11.0625C11.7906 11.1625 11.6219 11.3125 11.3719 11.3125H10.7469V11.9375V15.9438H8.84687ZM3.54688 6.73125C3.74589 6.73125 3.94044 6.67224 4.10592 6.56167C4.27139 6.4511 4.40037 6.29394 4.47653 6.11008C4.55269 5.92621 4.57262 5.72388 4.53379 5.52869C4.49496 5.3335 4.39913 5.1542 4.2584 5.01347C4.11767 4.87275 3.93838 4.77691 3.74318 4.73809C3.54799 4.69926 3.34567 4.71919 3.1618 4.79535C2.97793 4.87151 2.82078 5.00048 2.71021 5.16596C2.59964 5.33143 2.54062 5.52598 2.54062 5.725C2.54062 5.99187 2.64664 6.24782 2.83535 6.43653C3.02406 6.62524 3.28 6.73125 3.54688 6.73125ZM4.29688 7.2125H2.79688C2.58092 7.19809 2.36424 7.22647 2.15928 7.29601C1.95432 7.36555 1.76511 7.47489 1.60251 7.61774C1.43991 7.7606 1.30712 7.93416 1.21177 8.12846C1.11642 8.32276 1.06038 8.53398 1.04688 8.75V10.5375C1.05984 10.8042 1.15785 11.0597 1.32655 11.2666C1.49525 11.4736 1.72578 11.6211 1.98438 11.6875V13.975C1.98048 14.2332 2.07537 14.4831 2.24964 14.6736C2.4239 14.8642 2.66438 14.9809 2.92188 15H4.22813C4.36118 14.992 4.49134 14.9579 4.61117 14.8995C4.73099 14.8411 4.8381 14.7597 4.92636 14.6598C5.01463 14.5599 5.0823 14.4436 5.12551 14.3175C5.16871 14.1914 5.18659 14.058 5.17812 13.925V11.6438C5.42101 11.5663 5.63441 11.4164 5.78969 11.2142C5.94497 11.012 6.03471 10.7672 6.04688 10.5125V8.75C6.03337 8.53398 5.97733 8.32276 5.88198 8.12846C5.78663 7.93416 5.65384 7.7606 5.49124 7.61774C5.32864 7.47489 5.13943 7.36555 4.93447 7.29601C4.72951 7.22647 4.51283 7.19809 4.29688 7.2125ZM3.92813 13.75H3.23438V10.4813H2.42187C2.38079 10.4911 2.33796 10.4911 2.29688 10.4813V8.75C2.29688 8.64375 2.49688 8.4875 2.79688 8.4875H4.29688C4.59687 8.4875 4.79688 8.64375 4.79688 8.75V10.4813C4.75579 10.4911 4.71296 10.4911 4.67188 10.4813H3.92813V13.75ZM16.0469 6.73125C16.2459 6.73125 16.4404 6.67224 16.6059 6.56167C16.7714 6.4511 16.9004 6.29394 16.9765 6.11008C17.0527 5.92621 17.0726 5.72388 17.0338 5.52869C16.995 5.3335 16.8991 5.1542 16.7584 5.01347C16.6177 4.87275 16.4384 4.77691 16.2432 4.73809C16.048 4.69926 15.8457 4.71919 15.6618 4.79535C15.4779 4.87151 15.3208 5.00048 15.2102 5.16596C15.0996 5.33143 15.0406 5.52598 15.0406 5.725C15.0406 5.99187 15.1466 6.24782 15.3353 6.43653C15.5241 6.62524 15.78 6.73125 16.0469 6.73125ZM16.7969 7.2125H15.2969C15.0809 7.19809 14.8642 7.22647 14.6593 7.29601C14.4543 7.36555 14.2651 7.47489 14.1025 7.61774C13.9399 7.7606 13.8071 7.93416 13.7118 8.12846C13.6164 8.32276 13.5604 8.53398 13.5469 8.75V10.5375C13.5598 10.8042 13.6578 11.0597 13.8265 11.2666C13.9952 11.4736 14.2258 11.6211 14.4844 11.6875V13.975C14.4805 14.2332 14.5754 14.4831 14.7496 14.6736C14.9239 14.8642 15.1644 14.9809 15.4219 15H16.7156C16.8487 14.992 16.9788 14.9579 17.0987 14.8995C17.2185 14.8411 17.3256 14.7597 17.4139 14.6598C17.5021 14.5599 17.5698 14.4436 17.613 14.3175C17.6562 14.1914 17.6741 14.058 17.6656 13.925V11.6438C17.9108 11.5684 18.1269 11.4194 18.2846 11.2171C18.4422 11.0147 18.5338 10.7687 18.5469 10.5125V8.75C18.5334 8.53398 18.4773 8.32276 18.382 8.12846C18.2866 7.93416 18.1538 7.7606 17.9912 7.61774C17.8286 7.47489 17.6394 7.36555 17.4345 7.29601C17.2295 7.22647 17.0128 7.19809 16.7969 7.2125ZM16.4281 13.75H15.7344V10.4813H14.9219C14.8808 10.4911 14.838 10.4911 14.7969 10.4813V8.75C14.7969 8.64375 14.9969 8.4875 15.2969 8.4875H16.7969C17.0969 8.4875 17.2969 8.64375 17.2969 8.75V10.4813C17.2558 10.4911 17.213 10.4911 17.1719 10.4813H16.4281V13.75Z" fill="#ED5826"/>
</svg>
