<svg width="41" height="41" viewBox="0 0 41 41" fill="none" xmlns="http://www.w3.org/2000/svg">
<path d="M28.9302 4.21882C29.0466 4.33784 29.139 4.47923 29.202 4.63489C29.265 4.79055 29.2974 4.95742 29.2974 5.12595C29.2974 5.29448 29.265 5.46135 29.202 5.61701C29.139 5.77267 29.0466 5.91406 28.9302 6.03307L14.8127 20.5009L28.9302 34.9688C29.1649 35.2094 29.2968 35.5357 29.2968 35.8759C29.2968 36.2162 29.1649 36.5425 28.9302 36.7831C28.6955 37.0237 28.3771 37.1588 28.0452 37.1588C27.7133 37.1588 27.3949 37.0237 27.1602 36.7831L12.1602 21.4081C12.0438 21.2891 11.9514 21.1477 11.8884 20.992C11.8254 20.8363 11.793 20.6695 11.793 20.5009C11.793 20.3324 11.8254 20.1655 11.8884 20.0099C11.9514 19.8542 12.0438 19.7128 12.1602 19.5938L27.1602 4.21882C27.2763 4.0995 27.4143 4.00484 27.5661 3.94025C27.718 3.87566 27.8808 3.84241 28.0452 3.84241C28.2096 3.84241 28.3724 3.87566 28.5243 3.94025C28.6761 4.00484 28.8141 4.0995 28.9302 4.21882Z" fill="white"/>
</svg>
