<svg width="41" height="41" viewBox="0 0 41 41" fill="none" xmlns="http://www.w3.org/2000/svg">
<path d="M29.0865 4.21797C29.2029 4.33699 29.2952 4.47837 29.3582 4.63403C29.4212 4.78969 29.4537 4.95656 29.4537 5.12509C29.4537 5.29362 29.4212 5.4605 29.3582 5.61615C29.2952 5.77181 29.2029 5.9132 29.0865 6.03222L14.969 20.5001L29.0865 34.968C29.3212 35.2086 29.453 35.5349 29.453 35.8751C29.453 36.2153 29.3212 36.5416 29.0865 36.7822C28.8517 37.0228 28.5334 37.158 28.2015 37.158C27.8695 37.158 27.5512 37.0228 27.3165 36.7822L12.3165 21.4072C12.2 21.2882 12.1077 21.1468 12.0447 20.9912C11.9817 20.8355 11.9492 20.6686 11.9492 20.5001C11.9492 20.3316 11.9817 20.1647 12.0447 20.009C12.1077 19.8534 12.2 19.712 12.3165 19.593L27.3165 4.21797C27.4326 4.09865 27.5705 4.00398 27.7224 3.93939C27.8742 3.8748 28.037 3.84155 28.2015 3.84155C28.3659 3.84155 28.5287 3.8748 28.6805 3.93939C28.8324 4.00398 28.9703 4.09865 29.0865 4.21797Z" fill="white"/>
</svg>
