<svg width="41" height="41" viewBox="0 0 41 41" fill="none" xmlns="http://www.w3.org/2000/svg">
<path d="M29.0865 4.21785C29.2029 4.33686 29.2952 4.47825 29.3582 4.63391C29.4212 4.78957 29.4537 4.95644 29.4537 5.12497C29.4537 5.2935 29.4212 5.46037 29.3582 5.61603C29.2952 5.77169 29.2029 5.91308 29.0865 6.0321L14.969 20.5L29.0865 34.9678C29.3212 35.2084 29.453 35.5347 29.453 35.875C29.453 36.2152 29.3212 36.5415 29.0865 36.7821C28.8517 37.0227 28.5334 37.1578 28.2015 37.1578C27.8695 37.1578 27.5512 37.0227 27.3165 36.7821L12.3165 21.4071C12.2 21.2881 12.1077 21.1467 12.0447 20.991C11.9817 20.8354 11.9492 20.6685 11.9492 20.5C11.9492 20.3314 11.9817 20.1646 12.0447 20.0089C12.1077 19.8533 12.2 19.7119 12.3165 19.5928L27.3165 4.21785C27.4326 4.09853 27.5705 4.00386 27.7224 3.93927C27.8742 3.87468 28.037 3.84143 28.2015 3.84143C28.3659 3.84143 28.5287 3.87468 28.6805 3.93927C28.8324 4.00386 28.9703 4.09853 29.0865 4.21785Z" fill="white"/>
</svg>
