<svg width="41" height="41" viewBox="0 0 41 41" fill="none" xmlns="http://www.w3.org/2000/svg">
<path d="M28.4302 4.21882C28.5466 4.33784 28.639 4.47923 28.702 4.63489C28.765 4.79055 28.7974 4.95742 28.7974 5.12595C28.7974 5.29448 28.765 5.46135 28.702 5.61701C28.639 5.77267 28.5466 5.91406 28.4302 6.03307L14.3127 20.5009L28.4302 34.9688C28.6649 35.2094 28.7968 35.5357 28.7968 35.8759C28.7968 36.2162 28.6649 36.5425 28.4302 36.7831C28.1955 37.0237 27.8771 37.1588 27.5452 37.1588C27.2133 37.1588 26.8949 37.0237 26.6602 36.7831L11.6602 21.4081C11.5438 21.2891 11.4514 21.1477 11.3884 20.992C11.3254 20.8363 11.293 20.6695 11.293 20.5009C11.293 20.3324 11.3254 20.1655 11.3884 20.0099C11.4514 19.8542 11.5438 19.7128 11.6602 19.5938L26.6602 4.21882C26.7763 4.0995 26.9143 4.00484 27.0661 3.94025C27.218 3.87566 27.3808 3.84241 27.5452 3.84241C27.7096 3.84241 27.8724 3.87566 28.0243 3.94025C28.1761 4.00484 28.3141 4.0995 28.4302 4.21882Z" fill="white"/>
</svg>
