<svg width="41" height="41" viewBox="0 0 41 41" fill="none" xmlns="http://www.w3.org/2000/svg">
<path d="M11.6602 4.21882C11.7763 4.0995 11.9143 4.00484 12.0661 3.94025C12.218 3.87566 12.3808 3.84241 12.5452 3.84241C12.7096 3.84241 12.8724 3.87566 13.0243 3.94025C13.1761 4.00484 13.3141 4.0995 13.4302 4.21882L28.4302 19.5938C28.5466 19.7128 28.639 19.8542 28.702 20.0099C28.765 20.1655 28.7974 20.3324 28.7974 20.5009C28.7974 20.6695 28.765 20.8363 28.702 20.992C28.639 21.1477 28.5466 21.2891 28.4302 21.4081L13.4302 36.7831C13.1955 37.0237 12.8771 37.1588 12.5452 37.1588C12.2133 37.1588 11.8949 37.0237 11.6602 36.7831C11.4255 36.5425 11.2936 36.2162 11.2936 35.8759C11.2936 35.5357 11.4255 35.2094 11.6602 34.9688L25.7777 20.5009L11.6602 6.03307C11.5438 5.91406 11.4514 5.77267 11.3884 5.61701C11.3254 5.46135 11.293 5.29448 11.293 5.12595C11.293 4.95742 11.3254 4.79055 11.3884 4.63489C11.4514 4.47923 11.5438 4.33784 11.6602 4.21882Z" fill="white"/>
</svg>
