<svg width="41" height="41" viewBox="0 0 41 41" fill="none" xmlns="http://www.w3.org/2000/svg">
<path d="M29.0867 4.21785C29.2031 4.33686 29.2955 4.47825 29.3585 4.63391C29.4215 4.78957 29.4539 4.95644 29.4539 5.12497C29.4539 5.2935 29.4215 5.46037 29.3585 5.61603C29.2955 5.77169 29.2031 5.91308 29.0867 6.0321L14.9692 20.5L29.0867 34.9678C29.3214 35.2084 29.4533 35.5347 29.4533 35.875C29.4533 36.2152 29.3214 36.5415 29.0867 36.7821C28.852 37.0227 28.5336 37.1578 28.2017 37.1578C27.8698 37.1578 27.5514 37.0227 27.3167 36.7821L12.3167 21.4071C12.2003 21.2881 12.1079 21.1467 12.0449 20.991C11.9819 20.8354 11.9495 20.6685 11.9495 20.5C11.9495 20.3314 11.9819 20.1646 12.0449 20.0089C12.1079 19.8533 12.2003 19.7119 12.3167 19.5928L27.3167 4.21785C27.4328 4.09853 27.5707 4.00386 27.7226 3.93927C27.8745 3.87468 28.0373 3.84143 28.2017 3.84143C28.3661 3.84143 28.5289 3.87468 28.6808 3.93927C28.8326 4.00386 28.9706 4.09853 29.0867 4.21785Z" fill="white"/>
</svg>
