<svg width="41" height="41" viewBox="0 0 41 41" fill="none" xmlns="http://www.w3.org/2000/svg">
<path d="M12.3165 4.21797C12.4326 4.09865 12.5705 4.00398 12.7224 3.93939C12.8742 3.8748 13.037 3.84155 13.2015 3.84155C13.3659 3.84155 13.5287 3.8748 13.6805 3.93939C13.8324 4.00398 13.9703 4.09865 14.0865 4.21797L29.0865 19.593C29.2029 19.712 29.2952 19.8534 29.3582 20.009C29.4212 20.1647 29.4537 20.3316 29.4537 20.5001C29.4537 20.6686 29.4212 20.8355 29.3582 20.9912C29.2952 21.1468 29.2029 21.2882 29.0865 21.4072L14.0865 36.7822C13.8517 37.0228 13.5334 37.158 13.2015 37.158C12.8695 37.158 12.5512 37.0228 12.3165 36.7822C12.0817 36.5416 11.9499 36.2153 11.9499 35.8751C11.9499 35.5349 12.0817 35.2086 12.3165 34.968L26.434 20.5001L12.3165 6.03222C12.2 5.9132 12.1077 5.77181 12.0447 5.61615C11.9817 5.4605 11.9492 5.29362 11.9492 5.12509C11.9492 4.95656 11.9817 4.78969 12.0447 4.63403C12.1077 4.47837 12.2 4.33699 12.3165 4.21797Z" fill="white"/>
</svg>
