<svg width="41" height="41" viewBox="0 0 41 41" fill="none" xmlns="http://www.w3.org/2000/svg">
<path d="M12.1602 4.21882C12.2763 4.0995 12.4143 4.00484 12.5661 3.94025C12.718 3.87566 12.8808 3.84241 13.0452 3.84241C13.2096 3.84241 13.3724 3.87566 13.5243 3.94025C13.6761 4.00484 13.8141 4.0995 13.9302 4.21882L28.9302 19.5938C29.0466 19.7128 29.139 19.8542 29.202 20.0099C29.265 20.1655 29.2974 20.3324 29.2974 20.5009C29.2974 20.6695 29.265 20.8363 29.202 20.992C29.139 21.1477 29.0466 21.2891 28.9302 21.4081L13.9302 36.7831C13.6955 37.0237 13.3771 37.1588 13.0452 37.1588C12.7133 37.1588 12.3949 37.0237 12.1602 36.7831C11.9255 36.5425 11.7936 36.2162 11.7936 35.8759C11.7936 35.5357 11.9255 35.2094 12.1602 34.9688L26.2777 20.5009L12.1602 6.03307C12.0438 5.91406 11.9514 5.77267 11.8884 5.61701C11.8254 5.46135 11.793 5.29448 11.793 5.12595C11.793 4.95742 11.8254 4.79055 11.8884 4.63489C11.9514 4.47923 12.0438 4.33784 12.1602 4.21882Z" fill="white"/>
</svg>
