<svg width="41" height="41" viewBox="0 0 41 41" fill="none" xmlns="http://www.w3.org/2000/svg">
<path d="M11.8184 4.21785C11.9345 4.09853 12.0725 4.00386 12.2243 3.93927C12.3762 3.87468 12.539 3.84143 12.7034 3.84143C12.8678 3.84143 13.0306 3.87468 13.1825 3.93927C13.3344 4.00386 13.4723 4.09853 13.5884 4.21785L28.5884 19.5928C28.7048 19.7119 28.7972 19.8533 28.8602 20.0089C28.9232 20.1646 28.9556 20.3314 28.9556 20.5C28.9556 20.6685 28.9232 20.8354 28.8602 20.991C28.7972 21.1467 28.7048 21.2881 28.5884 21.4071L13.5884 36.7821C13.3537 37.0227 13.0353 37.1578 12.7034 37.1578C12.3715 37.1578 12.0531 37.0227 11.8184 36.7821C11.5837 36.5415 11.4518 36.2152 11.4518 35.875C11.4518 35.5347 11.5837 35.2084 11.8184 34.9678L25.9359 20.5L11.8184 6.0321C11.702 5.91308 11.6096 5.77169 11.5466 5.61603C11.4836 5.46037 11.4512 5.2935 11.4512 5.12497C11.4512 4.95644 11.4836 4.78957 11.5466 4.63391C11.6096 4.47825 11.702 4.33686 11.8184 4.21785Z" fill="white"/>
</svg>
