<svg width="41" height="41" viewBox="0 0 41 41" fill="none" xmlns="http://www.w3.org/2000/svg">
<path d="M12.3165 4.21785C12.4326 4.09853 12.5705 4.00386 12.7224 3.93927C12.8742 3.87468 13.037 3.84143 13.2015 3.84143C13.3659 3.84143 13.5287 3.87468 13.6805 3.93927C13.8324 4.00386 13.9703 4.09853 14.0865 4.21785L29.0865 19.5928C29.2029 19.7119 29.2952 19.8533 29.3582 20.0089C29.4212 20.1646 29.4537 20.3314 29.4537 20.5C29.4537 20.6685 29.4212 20.8354 29.3582 20.991C29.2952 21.1467 29.2029 21.2881 29.0865 21.4071L14.0865 36.7821C13.8517 37.0227 13.5334 37.1578 13.2015 37.1578C12.8695 37.1578 12.5512 37.0227 12.3165 36.7821C12.0817 36.5415 11.9499 36.2152 11.9499 35.875C11.9499 35.5347 12.0817 35.2084 12.3165 34.9678L26.434 20.5L12.3165 6.0321C12.2 5.91308 12.1077 5.77169 12.0447 5.61603C11.9817 5.46037 11.9492 5.2935 11.9492 5.12497C11.9492 4.95644 11.9817 4.78957 12.0447 4.63391C12.1077 4.47825 12.2 4.33686 12.3165 4.21785Z" fill="white"/>
</svg>
