<svg width="41" height="41" viewBox="0 0 41 41" fill="none" xmlns="http://www.w3.org/2000/svg">
<path d="M28.5884 4.21785C28.7048 4.33686 28.7972 4.47825 28.8602 4.63391C28.9232 4.78957 28.9556 4.95644 28.9556 5.12497C28.9556 5.2935 28.9232 5.46037 28.8602 5.61603C28.7972 5.77169 28.7048 5.91308 28.5884 6.0321L14.4709 20.5L28.5884 34.9678C28.8231 35.2084 28.955 35.5347 28.955 35.875C28.955 36.2152 28.8231 36.5415 28.5884 36.7821C28.3537 37.0227 28.0353 37.1578 27.7034 37.1578C27.3715 37.1578 27.0531 37.0227 26.8184 36.7821L11.8184 21.4071C11.702 21.2881 11.6096 21.1467 11.5466 20.991C11.4836 20.8354 11.4512 20.6685 11.4512 20.5C11.4512 20.3314 11.4836 20.1646 11.5466 20.0089C11.6096 19.8533 11.702 19.7119 11.8184 19.5928L26.8184 4.21785C26.9345 4.09853 27.0725 4.00386 27.2243 3.93927C27.3762 3.87468 27.539 3.84143 27.7034 3.84143C27.8678 3.84143 28.0306 3.87468 28.1825 3.93927C28.3344 4.00386 28.4723 4.09853 28.5884 4.21785Z" fill="white"/>
</svg>
