<svg width="41" height="41" viewBox="0 0 41 41" fill="none" xmlns="http://www.w3.org/2000/svg">
<path d="M12.3184 4.21785C12.4345 4.09853 12.5725 4.00386 12.7243 3.93927C12.8762 3.87468 13.039 3.84143 13.2034 3.84143C13.3678 3.84143 13.5306 3.87468 13.6825 3.93927C13.8344 4.00386 13.9723 4.09853 14.0884 4.21785L29.0884 19.5928C29.2048 19.7119 29.2972 19.8533 29.3602 20.0089C29.4232 20.1646 29.4556 20.3314 29.4556 20.5C29.4556 20.6685 29.4232 20.8354 29.3602 20.991C29.2972 21.1467 29.2048 21.2881 29.0884 21.4071L14.0884 36.7821C13.8537 37.0227 13.5353 37.1578 13.2034 37.1578C12.8715 37.1578 12.5531 37.0227 12.3184 36.7821C12.0837 36.5415 11.9518 36.2152 11.9518 35.875C11.9518 35.5347 12.0837 35.2084 12.3184 34.9678L26.4359 20.5L12.3184 6.0321C12.202 5.91308 12.1096 5.77169 12.0466 5.61603C11.9836 5.46037 11.9512 5.2935 11.9512 5.12497C11.9512 4.95644 11.9836 4.78957 12.0466 4.63391C12.1096 4.47825 12.202 4.33686 12.3184 4.21785Z" fill="white"/>
</svg>
