<svg width="41" height="41" viewBox="0 0 41 41" fill="none" xmlns="http://www.w3.org/2000/svg">
<path d="M29.0884 4.21785C29.2048 4.33686 29.2972 4.47825 29.3602 4.63391C29.4232 4.78957 29.4556 4.95644 29.4556 5.12497C29.4556 5.2935 29.4232 5.46037 29.3602 5.61603C29.2972 5.77169 29.2048 5.91308 29.0884 6.0321L14.9709 20.5L29.0884 34.9678C29.3231 35.2084 29.455 35.5347 29.455 35.875C29.455 36.2152 29.3231 36.5415 29.0884 36.7821C28.8537 37.0227 28.5353 37.1578 28.2034 37.1578C27.8715 37.1578 27.5531 37.0227 27.3184 36.7821L12.3184 21.4071C12.202 21.2881 12.1096 21.1467 12.0466 20.991C11.9836 20.8354 11.9512 20.6685 11.9512 20.5C11.9512 20.3314 11.9836 20.1646 12.0466 20.0089C12.1096 19.8533 12.202 19.7119 12.3184 19.5928L27.3184 4.21785C27.4345 4.09853 27.5725 4.00386 27.7243 3.93927C27.8762 3.87468 28.039 3.84143 28.2034 3.84143C28.3678 3.84143 28.5306 3.87468 28.6825 3.93927C28.8344 4.00386 28.9723 4.09853 29.0884 4.21785Z" fill="white"/>
</svg>
