<svg width="20" height="20" viewBox="0 0 20 20" fill="none" xmlns="http://www.w3.org/2000/svg">
<path d="M9.99967 1.66675C8.23156 1.66675 6.53587 2.36913 5.28563 3.61937C4.03539 4.86961 3.33301 6.5653 3.33301 8.33342C3.33301 12.8334 9.20801 17.9167 9.45801 18.1334C9.60895 18.2625 9.80105 18.3335 9.99967 18.3335C10.1983 18.3335 10.3904 18.2625 10.5413 18.1334C10.833 17.9167 16.6663 12.8334 16.6663 8.33342C16.6663 6.5653 15.964 4.86961 14.7137 3.61937C13.4635 2.36913 11.7678 1.66675 9.99967 1.66675ZM9.99967 16.3751C8.22467 14.7084 4.99967 11.1167 4.99967 8.33342C4.99967 7.00733 5.52646 5.73556 6.46414 4.79788C7.40182 3.8602 8.67359 3.33341 9.99967 3.33341C11.3258 3.33341 12.5975 3.8602 13.5352 4.79788C14.4729 5.73556 14.9997 7.00733 14.9997 8.33342C14.9997 11.1167 11.7747 14.7167 9.99967 16.3751ZM9.99967 5.00008C9.3404 5.00008 8.69594 5.19558 8.14777 5.56185C7.59961 5.92812 7.17237 6.44872 6.92008 7.0578C6.66778 7.66689 6.60177 8.33711 6.73039 8.98372C6.85901 9.63032 7.17648 10.2243 7.64265 10.6904C8.10883 11.1566 8.70277 11.4741 9.34937 11.6027C9.99598 11.7313 10.6662 11.6653 11.2753 11.413C11.8844 11.1607 12.405 10.7335 12.7712 10.1853C13.1375 9.63715 13.333 8.99269 13.333 8.33342C13.333 7.44936 12.9818 6.60151 12.3567 5.97639C11.7316 5.35127 10.8837 5.00008 9.99967 5.00008ZM9.99967 10.0001C9.67004 10.0001 9.34781 9.90233 9.07372 9.7192C8.79964 9.53606 8.58602 9.27576 8.45988 8.97122C8.33373 8.66668 8.30072 8.33157 8.36503 8.00826C8.42934 7.68496 8.58808 7.38799 8.82116 7.1549C9.05425 6.92182 9.35122 6.76308 9.67452 6.69877C9.99783 6.63446 10.3329 6.66747 10.6375 6.79362C10.942 6.91976 11.2023 7.13338 11.3855 7.40746C11.5686 7.68155 11.6663 8.00378 11.6663 8.33342C11.6663 8.77544 11.4907 9.19937 11.1782 9.51193C10.8656 9.82449 10.4417 10.0001 9.99967 10.0001Z" fill="#ED5826"/>
</svg>
