<svg width="21" height="21" viewBox="0 0 21 21" fill="none" xmlns="http://www.w3.org/2000/svg">
<path d="M10.8512 1.98657C9.08313 1.98657 7.38743 2.68895 6.13719 3.93919C4.88695 5.18944 4.18457 6.88513 4.18457 8.65324C4.18457 13.1532 10.0596 18.2366 10.3096 18.4532C10.4605 18.5823 10.6526 18.6533 10.8512 18.6533C11.0499 18.6533 11.242 18.5823 11.3929 18.4532C11.6846 18.2366 17.5179 13.1532 17.5179 8.65324C17.5179 6.88513 16.8155 5.18944 15.5653 3.93919C14.315 2.68895 12.6193 1.98657 10.8512 1.98657ZM10.8512 16.6949C9.07624 15.0282 5.85124 11.4366 5.85124 8.65324C5.85124 7.32716 6.37802 6.05539 7.3157 5.11771C8.25339 4.18002 9.52515 3.65324 10.8512 3.65324C12.1773 3.65324 13.4491 4.18002 14.3868 5.11771C15.3245 6.05539 15.8512 7.32716 15.8512 8.65324C15.8512 11.4366 12.6262 15.0366 10.8512 16.6949ZM10.8512 5.31991C10.192 5.31991 9.5475 5.5154 8.99934 5.88167C8.45117 6.24794 8.02393 6.76854 7.77164 7.37763C7.51935 7.98671 7.45334 8.65694 7.58195 9.30354C7.71057 9.95014 8.02804 10.5441 8.49421 11.0103C8.96039 11.4764 9.55433 11.7939 10.2009 11.9225C10.8475 12.0511 11.5178 11.9851 12.1268 11.7328C12.7359 11.4805 13.2565 11.0533 13.6228 10.5051C13.9891 9.95698 14.1846 9.31251 14.1846 8.65324C14.1846 7.76918 13.8334 6.92134 13.2083 6.29622C12.5831 5.6711 11.7353 5.31991 10.8512 5.31991ZM10.8512 10.3199C10.5216 10.3199 10.1994 10.2222 9.92529 10.039C9.65121 9.85589 9.43758 9.59559 9.31144 9.29104C9.18529 8.9865 9.15229 8.65139 9.2166 8.32809C9.2809 8.00479 9.43964 7.70782 9.67273 7.47473C9.90581 7.24164 10.2028 7.08291 10.5261 7.0186C10.8494 6.95429 11.1845 6.98729 11.489 7.11344C11.7936 7.23959 12.0539 7.45321 12.237 7.72729C12.4202 8.00137 12.5179 8.3236 12.5179 8.65324C12.5179 9.09527 12.3423 9.51919 12.0297 9.83175C11.7172 10.1443 11.2933 10.3199 10.8512 10.3199Z" fill="#ED5826"/>
</svg>
