<svg width="25" height="25" viewBox="0 0 25 25" fill="none" xmlns="http://www.w3.org/2000/svg">
<path d="M12.7559 2.75C10.6341 2.75 8.5993 3.59285 7.09901 5.09315C5.59871 6.59344 4.75586 8.62827 4.75586 10.75C4.75586 16.15 11.8059 22.25 12.1059 22.51C12.287 22.6649 12.5175 22.7501 12.7559 22.7501C12.9942 22.7501 13.2247 22.6649 13.4059 22.51C13.7559 22.25 20.7559 16.15 20.7559 10.75C20.7559 8.62827 19.913 6.59344 18.4127 5.09315C16.9124 3.59285 14.8776 2.75 12.7559 2.75ZM12.7559 20.4C10.6259 18.4 6.75586 14.09 6.75586 10.75C6.75586 9.1587 7.388 7.63258 8.51322 6.50736C9.63844 5.38214 11.1646 4.75 12.7559 4.75C14.3472 4.75 15.8733 5.38214 16.9985 6.50736C18.1237 7.63258 18.7559 9.1587 18.7559 10.75C18.7559 14.09 14.8859 18.41 12.7559 20.4ZM12.7559 6.75C11.9647 6.75 11.1914 6.9846 10.5336 7.42412C9.87578 7.86365 9.36309 8.48836 9.06034 9.21927C8.75759 9.95017 8.67838 10.7544 8.83272 11.5304C8.98706 12.3063 9.36802 13.019 9.92743 13.5784C10.4868 14.1378 11.1996 14.5188 11.9755 14.6731C12.7514 14.8275 13.5557 14.7483 14.2866 14.4455C15.0175 14.1428 15.6422 13.6301 16.0817 12.9723C16.5213 12.3145 16.7559 11.5411 16.7559 10.75C16.7559 9.68913 16.3344 8.67172 15.5843 7.92157C14.8341 7.17143 13.8167 6.75 12.7559 6.75ZM12.7559 12.75C12.3603 12.75 11.9736 12.6327 11.6447 12.4129C11.3158 12.1932 11.0595 11.8808 10.9081 11.5154C10.7567 11.1499 10.7171 10.7478 10.7943 10.3598C10.8715 9.97186 11.0619 9.61549 11.3416 9.33579C11.6214 9.05608 11.9777 8.8656 12.3657 8.78843C12.7536 8.71126 13.1558 8.75087 13.5212 8.90224C13.8867 9.05362 14.199 9.30996 14.4188 9.63886C14.6386 9.96776 14.7559 10.3544 14.7559 10.75C14.7559 11.2804 14.5451 11.7891 14.1701 12.1642C13.795 12.5393 13.2863 12.75 12.7559 12.75Z" fill="#ED5826"/>
</svg>
