<svg width="21" height="21" viewBox="0 0 21 21" fill="none" xmlns="http://www.w3.org/2000/svg">
<path d="M10.6935 1.98657C8.92541 1.98657 7.22972 2.68895 5.97948 3.93919C4.72923 5.18944 4.02686 6.88513 4.02686 8.65324C4.02686 13.1532 9.90186 18.2366 10.1519 18.4532C10.3028 18.5823 10.4949 18.6533 10.6935 18.6533C10.8921 18.6533 11.0842 18.5823 11.2352 18.4532C11.5269 18.2366 17.3602 13.1532 17.3602 8.65324C17.3602 6.88513 16.6578 5.18944 15.4076 3.93919C14.1573 2.68895 12.4616 1.98657 10.6935 1.98657ZM10.6935 16.6949C8.91852 15.0282 5.69352 11.4366 5.69352 8.65324C5.69352 7.32716 6.22031 6.05539 7.15799 5.11771C8.09567 4.18002 9.36744 3.65324 10.6935 3.65324C12.0196 3.65324 13.2914 4.18002 14.2291 5.11771C15.1667 6.05539 15.6935 7.32716 15.6935 8.65324C15.6935 11.4366 12.4685 15.0366 10.6935 16.6949ZM10.6935 5.31991C10.0343 5.31991 9.38979 5.5154 8.84162 5.88167C8.29346 6.24794 7.86622 6.76854 7.61392 7.37763C7.36163 7.98671 7.29562 8.65694 7.42424 9.30354C7.55286 9.95014 7.87032 10.5441 8.3365 11.0103C8.80267 11.4764 9.39662 11.7939 10.0432 11.9225C10.6898 12.0511 11.36 11.9851 11.9691 11.7328C12.5782 11.4805 13.0988 11.0533 13.4651 10.5051C13.8314 9.95698 14.0269 9.31251 14.0269 8.65324C14.0269 7.76918 13.6757 6.92134 13.0505 6.29622C12.4254 5.6711 11.5776 5.31991 10.6935 5.31991ZM10.6935 10.3199C10.3639 10.3199 10.0417 10.2222 9.76757 10.039C9.49349 9.85589 9.27987 9.59559 9.15372 9.29104C9.02758 8.9865 8.99457 8.65139 9.05888 8.32809C9.12319 8.00479 9.28192 7.70782 9.51501 7.47473C9.7481 7.24164 10.0451 7.08291 10.3684 7.0186C10.6917 6.95429 11.0268 6.98729 11.3313 7.11344C11.6359 7.23959 11.8962 7.45321 12.0793 7.72729C12.2624 8.00137 12.3602 8.3236 12.3602 8.65324C12.3602 9.09527 12.1846 9.51919 11.872 9.83175C11.5595 10.1443 11.1356 10.3199 10.6935 10.3199Z" fill="#ED5826"/>
</svg>
