<svg width="21" height="21" viewBox="0 0 21 21" fill="none" xmlns="http://www.w3.org/2000/svg">
<path d="M10.193 1.98657C8.42492 1.98657 6.72923 2.68895 5.47899 3.93919C4.22875 5.18944 3.52637 6.88513 3.52637 8.65324C3.52637 13.1532 9.40137 18.2366 9.65137 18.4532C9.80231 18.5823 9.99441 18.6533 10.193 18.6533C10.3917 18.6533 10.5838 18.5823 10.7347 18.4532C11.0264 18.2366 16.8597 13.1532 16.8597 8.65324C16.8597 6.88513 16.1573 5.18944 14.9071 3.93919C13.6568 2.68895 11.9611 1.98657 10.193 1.98657ZM10.193 16.6949C8.41803 15.0282 5.19303 11.4366 5.19303 8.65324C5.19303 7.32716 5.71982 6.05539 6.6575 5.11771C7.59518 4.18002 8.86695 3.65324 10.193 3.65324C11.5191 3.65324 12.7909 4.18002 13.7286 5.11771C14.6663 6.05539 15.193 7.32716 15.193 8.65324C15.193 11.4366 11.968 15.0366 10.193 16.6949ZM10.193 5.31991C9.53376 5.31991 8.8893 5.5154 8.34113 5.88167C7.79297 6.24794 7.36573 6.76854 7.11344 7.37763C6.86114 7.98671 6.79513 8.65694 6.92375 9.30354C7.05237 9.95014 7.36984 10.5441 7.83601 11.0103C8.30219 11.4764 8.89613 11.7939 9.54273 11.9225C10.1893 12.0511 10.8596 11.9851 11.4686 11.7328C12.0777 11.4805 12.5983 11.0533 12.9646 10.5051C13.3309 9.95698 13.5264 9.31251 13.5264 8.65324C13.5264 7.76918 13.1752 6.92134 12.5501 6.29622C11.9249 5.6711 11.0771 5.31991 10.193 5.31991ZM10.193 10.3199C9.8634 10.3199 9.54117 10.2222 9.26708 10.039C8.993 9.85589 8.77938 9.59559 8.65323 9.29104C8.52709 8.9865 8.49408 8.65139 8.55839 8.32809C8.6227 8.00479 8.78144 7.70782 9.01452 7.47473C9.24761 7.24164 9.54458 7.08291 9.86788 7.0186C10.1912 6.95429 10.5263 6.98729 10.8308 7.11344C11.1354 7.23959 11.3957 7.45321 11.5788 7.72729C11.762 8.00137 11.8597 8.3236 11.8597 8.65324C11.8597 9.09527 11.6841 9.51919 11.3715 9.83175C11.059 10.1443 10.6351 10.3199 10.193 10.3199Z" fill="#ED5826"/>
</svg>
