<svg width="21" height="21" viewBox="0 0 21 21" fill="none" xmlns="http://www.w3.org/2000/svg">
<path d="M10.3512 1.98657C8.58313 1.98657 6.88743 2.68895 5.63719 3.93919C4.38695 5.18944 3.68457 6.88513 3.68457 8.65324C3.68457 13.1532 9.55957 18.2366 9.80957 18.4532C9.96051 18.5823 10.1526 18.6533 10.3512 18.6533C10.5499 18.6533 10.742 18.5823 10.8929 18.4532C11.1846 18.2366 17.0179 13.1532 17.0179 8.65324C17.0179 6.88513 16.3155 5.18944 15.0653 3.93919C13.815 2.68895 12.1193 1.98657 10.3512 1.98657ZM10.3512 16.6949C8.57624 15.0282 5.35124 11.4366 5.35124 8.65324C5.35124 7.32716 5.87802 6.05539 6.8157 5.11771C7.75339 4.18002 9.02515 3.65324 10.3512 3.65324C11.6773 3.65324 12.9491 4.18002 13.8868 5.11771C14.8245 6.05539 15.3512 7.32716 15.3512 8.65324C15.3512 11.4366 12.1262 15.0366 10.3512 16.6949ZM10.3512 5.31991C9.69197 5.31991 9.0475 5.5154 8.49934 5.88167C7.95117 6.24794 7.52393 6.76854 7.27164 7.37763C7.01935 7.98671 6.95334 8.65694 7.08195 9.30354C7.21057 9.95014 7.52804 10.5441 7.99421 11.0103C8.46039 11.4764 9.05433 11.7939 9.70094 11.9225C10.3475 12.0511 11.0178 11.9851 11.6268 11.7328C12.2359 11.4805 12.7565 11.0533 13.1228 10.5051C13.4891 9.95698 13.6846 9.31251 13.6846 8.65324C13.6846 7.76918 13.3334 6.92134 12.7083 6.29622C12.0831 5.6711 11.2353 5.31991 10.3512 5.31991ZM10.3512 10.3199C10.0216 10.3199 9.69937 10.2222 9.42529 10.039C9.15121 9.85589 8.93758 9.59559 8.81144 9.29104C8.68529 8.9865 8.65229 8.65139 8.7166 8.32809C8.7809 8.00479 8.93964 7.70782 9.17273 7.47473C9.40581 7.24164 9.70279 7.08291 10.0261 7.0186C10.3494 6.95429 10.6845 6.98729 10.989 7.11344C11.2936 7.23959 11.5539 7.45321 11.737 7.72729C11.9202 8.00137 12.0179 8.3236 12.0179 8.65324C12.0179 9.09527 11.8423 9.51919 11.5297 9.83175C11.2172 10.1443 10.7933 10.3199 10.3512 10.3199Z" fill="#ED5826"/>
</svg>
