<svg width="21" height="20" viewBox="0 0 21 20" fill="none" xmlns="http://www.w3.org/2000/svg">
<path d="M10.2502 1.66675C8.48205 1.66675 6.78636 2.36913 5.53612 3.61937C4.28588 4.86961 3.5835 6.5653 3.5835 8.33342C3.5835 12.8334 9.4585 17.9167 9.7085 18.1334C9.85944 18.2625 10.0515 18.3335 10.2502 18.3335C10.4488 18.3335 10.6409 18.2625 10.7918 18.1334C11.0835 17.9167 16.9168 12.8334 16.9168 8.33342C16.9168 6.5653 16.2145 4.86961 14.9642 3.61937C13.714 2.36913 12.0183 1.66675 10.2502 1.66675ZM10.2502 16.3751C8.47516 14.7084 5.25016 11.1167 5.25016 8.33342C5.25016 7.00733 5.77695 5.73556 6.71463 4.79788C7.65231 3.8602 8.92408 3.33341 10.2502 3.33341C11.5762 3.33341 12.848 3.8602 13.7857 4.79788C14.7234 5.73556 15.2502 7.00733 15.2502 8.33342C15.2502 11.1167 12.0252 14.7167 10.2502 16.3751ZM10.2502 5.00008C9.59089 5.00008 8.94643 5.19558 8.39826 5.56185C7.8501 5.92812 7.42286 6.44872 7.17056 7.0578C6.91827 7.66689 6.85226 8.33711 6.98088 8.98372C7.1095 9.63032 7.42697 10.2243 7.89314 10.6904C8.35932 11.1566 8.95326 11.4741 9.59986 11.6027C10.2465 11.7313 10.9167 11.6653 11.5258 11.413C12.1349 11.1607 12.6555 10.7335 13.0217 10.1853C13.388 9.63715 13.5835 8.99269 13.5835 8.33342C13.5835 7.44936 13.2323 6.60151 12.6072 5.97639C11.9821 5.35127 11.1342 5.00008 10.2502 5.00008ZM10.2502 10.0001C9.92053 10.0001 9.59829 9.90233 9.32421 9.7192C9.05013 9.53606 8.83651 9.27576 8.71036 8.97122C8.58422 8.66668 8.55121 8.33157 8.61552 8.00826C8.67983 7.68496 8.83856 7.38799 9.07165 7.1549C9.30474 6.92182 9.60171 6.76308 9.92501 6.69877C10.2483 6.63446 10.5834 6.66747 10.888 6.79362C11.1925 6.91976 11.4528 7.13338 11.6359 7.40746C11.8191 7.68155 11.9168 8.00378 11.9168 8.33342C11.9168 8.77544 11.7412 9.19937 11.4287 9.51193C11.1161 9.82449 10.6922 10.0001 10.2502 10.0001Z" fill="#ED5826"/>
</svg>
