<svg width="20" height="21" viewBox="0 0 20 21" fill="none" xmlns="http://www.w3.org/2000/svg">
<path d="M9.99967 1.77808C8.23156 1.77808 6.53587 2.48046 5.28563 3.7307C4.03539 4.98094 3.33301 6.67663 3.33301 8.44474C3.33301 12.9447 9.20801 18.0281 9.45801 18.2447C9.60895 18.3739 9.80105 18.4448 9.99967 18.4448C10.1983 18.4448 10.3904 18.3739 10.5413 18.2447C10.833 18.0281 16.6663 12.9447 16.6663 8.44474C16.6663 6.67663 15.964 4.98094 14.7137 3.7307C13.4635 2.48046 11.7678 1.77808 9.99967 1.77808ZM9.99967 16.4864C8.22467 14.8197 4.99967 11.2281 4.99967 8.44474C4.99967 7.11866 5.52646 5.84689 6.46414 4.90921C7.40182 3.97153 8.67359 3.44474 9.99967 3.44474C11.3258 3.44474 12.5975 3.97153 13.5352 4.90921C14.4729 5.84689 14.9997 7.11866 14.9997 8.44474C14.9997 11.2281 11.7747 14.8281 9.99967 16.4864ZM9.99967 5.11141C9.3404 5.11141 8.69594 5.30691 8.14777 5.67318C7.59961 6.03945 7.17237 6.56004 6.92008 7.16913C6.66778 7.77822 6.60177 8.44844 6.73039 9.09504C6.85901 9.74165 7.17648 10.3356 7.64265 10.8018C8.10883 11.2679 8.70277 11.5854 9.34937 11.714C9.99598 11.8426 10.6662 11.7766 11.2753 11.5243C11.8844 11.272 12.405 10.8448 12.7712 10.2966C13.1375 9.74848 13.333 9.10401 13.333 8.44474C13.333 7.56069 12.9818 6.71284 12.3567 6.08772C11.7316 5.4626 10.8837 5.11141 9.99967 5.11141ZM9.99967 10.1114C9.67004 10.1114 9.34781 10.0137 9.07372 9.83053C8.79964 9.64739 8.58602 9.38709 8.45988 9.08255C8.33373 8.77801 8.30072 8.44289 8.36503 8.11959C8.42934 7.79629 8.58808 7.49932 8.82116 7.26623C9.05425 7.03314 9.35122 6.87441 9.67452 6.8101C9.99783 6.74579 10.3329 6.7788 10.6375 6.90494C10.942 7.03109 11.2023 7.24471 11.3855 7.51879C11.5686 7.79287 11.6663 8.11511 11.6663 8.44474C11.6663 8.88677 11.4907 9.31069 11.1782 9.62325C10.8656 9.93581 10.4417 10.1114 9.99967 10.1114Z" fill="#ED5826"/>
</svg>
