<svg width="21" height="21" viewBox="0 0 21 21" fill="none" xmlns="http://www.w3.org/2000/svg">
<path d="M10.2155 2.3103C8.44738 2.3103 6.75169 3.01268 5.50145 4.26292C4.25121 5.51317 3.54883 7.20886 3.54883 8.97697C3.54883 13.477 9.42383 18.5603 9.67383 18.777C9.82477 18.9061 10.0169 18.977 10.2155 18.977C10.4141 18.977 10.6062 18.9061 10.7572 18.777C11.0488 18.5603 16.8822 13.477 16.8822 8.97697C16.8822 7.20886 16.1798 5.51317 14.9295 4.26292C13.6793 3.01268 11.9836 2.3103 10.2155 2.3103ZM10.2155 17.0186C8.4405 15.352 5.21549 11.7603 5.21549 8.97697C5.21549 7.65089 5.74228 6.37912 6.67996 5.44144C7.61764 4.50375 8.88941 3.97697 10.2155 3.97697C11.5416 3.97697 12.8133 4.50375 13.751 5.44144C14.6887 6.37912 15.2155 7.65089 15.2155 8.97697C15.2155 11.7603 11.9905 15.3603 10.2155 17.0186ZM10.2155 5.64364C9.55622 5.64364 8.91176 5.83913 8.36359 6.2054C7.81543 6.57168 7.38819 7.09227 7.1359 7.70136C6.8836 8.31044 6.81759 8.98067 6.94621 9.62727C7.07483 10.2739 7.3923 10.8678 7.85847 11.334C8.32465 11.8002 8.91859 12.1176 9.56519 12.2463C10.2118 12.3749 10.882 12.3089 11.4911 12.0566C12.1002 11.8043 12.6208 11.377 12.9871 10.8289C13.3533 10.2807 13.5488 9.63624 13.5488 8.97697C13.5488 8.09291 13.1976 7.24507 12.5725 6.61995C11.9474 5.99483 11.0996 5.64364 10.2155 5.64364ZM10.2155 10.6436C9.88586 10.6436 9.56363 10.5459 9.28955 10.3628C9.01546 10.1796 8.80184 9.91932 8.6757 9.61478C8.54955 9.31023 8.51654 8.97512 8.58085 8.65182C8.64516 8.32852 8.8039 8.03155 9.03698 7.79846C9.27007 7.56537 9.56704 7.40664 9.89034 7.34233C10.2136 7.27802 10.5488 7.31102 10.8533 7.43717C11.1578 7.56332 11.4181 7.77694 11.6013 8.05102C11.7844 8.3251 11.8822 8.64733 11.8822 8.97697C11.8822 9.419 11.7066 9.84292 11.394 10.1555C11.0814 10.468 10.6575 10.6436 10.2155 10.6436Z" fill="#ED5826"/>
</svg>
