<svg width="20" height="20" viewBox="0 0 20 20" fill="none" xmlns="http://www.w3.org/2000/svg">
<path d="M10.0002 1.66675C8.23205 1.66675 6.53636 2.36913 5.28612 3.61937C4.03588 4.86961 3.3335 6.5653 3.3335 8.33342C3.3335 12.8334 9.2085 17.9167 9.4585 18.1334C9.60944 18.2625 9.80154 18.3335 10.0002 18.3335C10.1988 18.3335 10.3909 18.2625 10.5418 18.1334C10.8335 17.9167 16.6668 12.8334 16.6668 8.33342C16.6668 6.5653 15.9645 4.86961 14.7142 3.61937C13.464 2.36913 11.7683 1.66675 10.0002 1.66675ZM10.0002 16.3751C8.22516 14.7084 5.00016 11.1167 5.00016 8.33342C5.00016 7.00733 5.52695 5.73556 6.46463 4.79788C7.40231 3.8602 8.67408 3.33341 10.0002 3.33341C11.3262 3.33341 12.598 3.8602 13.5357 4.79788C14.4734 5.73556 15.0002 7.00733 15.0002 8.33342C15.0002 11.1167 11.7752 14.7167 10.0002 16.3751ZM10.0002 5.00008C9.34089 5.00008 8.69643 5.19558 8.14826 5.56185C7.6001 5.92812 7.17286 6.44872 6.92056 7.0578C6.66827 7.66689 6.60226 8.33711 6.73088 8.98372C6.8595 9.63032 7.17697 10.2243 7.64314 10.6904C8.10932 11.1566 8.70326 11.4741 9.34986 11.6027C9.99647 11.7313 10.6667 11.6653 11.2758 11.413C11.8849 11.1607 12.4055 10.7335 12.7717 10.1853C13.138 9.63715 13.3335 8.99269 13.3335 8.33342C13.3335 7.44936 12.9823 6.60151 12.3572 5.97639C11.7321 5.35127 10.8842 5.00008 10.0002 5.00008ZM10.0002 10.0001C9.67053 10.0001 9.34829 9.90233 9.07421 9.7192C8.80013 9.53606 8.58651 9.27576 8.46036 8.97122C8.33422 8.66668 8.30121 8.33157 8.36552 8.00826C8.42983 7.68496 8.58856 7.38799 8.82165 7.1549C9.05474 6.92182 9.35171 6.76308 9.67501 6.69877C9.99831 6.63446 10.3334 6.66747 10.638 6.79362C10.9425 6.91976 11.2028 7.13338 11.3859 7.40746C11.5691 7.68155 11.6668 8.00378 11.6668 8.33342C11.6668 8.77544 11.4912 9.19937 11.1787 9.51193C10.8661 9.82449 10.4422 10.0001 10.0002 10.0001Z" fill="#ED5826"/>
</svg>
