<svg width="16" height="17" viewBox="0 0 16 17" fill="none" xmlns="http://www.w3.org/2000/svg">
<path d="M8.34216 2.98676L9.41221 4.92182C9.55882 5.18743 9.92678 5.43975 10.2294 5.47386L12.0306 5.70027C13.1838 5.84274 13.4812 6.66119 12.6964 7.51846L11.3592 8.97078C11.136 9.21416 11.0201 9.67847 11.1098 9.99715L11.5783 11.707C11.9468 13.0569 11.246 13.6164 10.0145 12.9534L8.29414 12.0269C7.98081 11.8576 7.48312 11.8822 7.18876 12.0724L5.55104 13.1324C4.37866 13.8901 3.63263 13.3913 3.88988 12.0169L4.21931 10.2775C4.28081 9.95231 4.13336 9.49858 3.88998 9.27537L2.42969 7.93608C1.57747 7.14832 1.80671 6.30871 2.94234 6.07067L4.71554 5.70028C5.0148 5.63528 5.3616 5.36096 5.48336 5.08185L6.39182 3.06201C6.88839 1.97377 7.76445 1.93948 8.34216 2.98676Z" fill="#FFBD39"/>
</svg>
