<svg width="16" height="17" viewBox="0 0 16 17" fill="none" xmlns="http://www.w3.org/2000/svg">
<path d="M8.48864 2.98676L9.55869 4.92182C9.70531 5.18743 10.0733 5.43975 10.3759 5.47386L12.177 5.70027C13.3303 5.84274 13.6277 6.66119 12.8428 7.51846L11.5057 8.97078C11.2825 9.21416 11.1666 9.67847 11.2563 9.99715L11.7248 11.707C12.0933 13.0569 11.3925 13.6164 10.161 12.9534L8.44062 12.0269C8.1273 11.8576 7.62961 11.8822 7.33525 12.0724L5.69753 13.1324C4.52514 13.8901 3.77912 13.3913 4.03637 12.0169L4.36579 10.2775C4.4273 9.95231 4.27984 9.49858 4.03646 9.27537L2.57618 7.93608C1.72395 7.14832 1.9532 6.30871 3.08882 6.07067L4.86202 5.70028C5.16128 5.63528 5.50808 5.36096 5.62984 5.08185L6.5383 3.06201C7.03487 1.97377 7.91093 1.93948 8.48864 2.98676Z" fill="#FFBD39"/>
</svg>
