<svg width="17" height="17" viewBox="0 0 17 17" fill="none" xmlns="http://www.w3.org/2000/svg">
<path d="M9.03475 3.01624L10.1354 4.99633C10.2862 5.26812 10.6647 5.52632 10.976 5.56122L12.8287 5.7929C14.015 5.93868 14.3209 6.77618 13.5136 7.65341L12.1382 9.13953C11.9086 9.38858 11.7894 9.86369 11.8816 10.1898L12.3635 11.9394C12.7426 13.3208 12.0217 13.8933 10.755 13.2148L8.98535 12.2668C8.66306 12.0935 8.15112 12.1187 7.84834 12.3133L6.16373 13.398C4.95779 14.1734 4.19041 13.6629 4.45503 12.2565L4.79388 10.4766C4.85714 10.1439 4.70547 9.67962 4.45512 9.45121L2.95304 8.08075C2.07642 7.27465 2.31222 6.4155 3.48036 6.17192L5.30432 5.79291C5.61214 5.7264 5.96887 5.44569 6.09411 5.16009L7.02858 3.09324C7.53936 1.97966 8.4405 1.94457 9.03475 3.01624Z" fill="#FFBD39"/>
</svg>
