<svg width="17" height="16" viewBox="0 0 17 16" fill="none" xmlns="http://www.w3.org/2000/svg">
<path d="M8.78475 2.35755L9.88543 4.33764C10.0362 4.60943 10.4147 4.86763 10.726 4.90253L12.5787 5.13421C13.765 5.27999 14.0709 6.11749 13.2636 6.99472L11.8882 8.48084C11.6586 8.72989 11.5394 9.205 11.6316 9.5311L12.1135 11.2807C12.4926 12.6621 11.7717 13.2346 10.505 12.5561L8.73535 11.6081C8.41306 11.4348 7.90112 11.46 7.59834 11.6546L5.91373 12.7393C4.70779 13.5147 3.94041 13.0043 4.20503 11.5978L4.54388 9.81793C4.60714 9.48522 4.45547 9.02093 4.20512 8.79252L2.70304 7.42206C1.82642 6.61596 2.06222 5.75681 3.23036 5.51323L5.05432 5.13422C5.36214 5.0677 5.71887 4.787 5.84411 4.5014L6.77858 2.43455C7.28936 1.32097 8.1905 1.28588 8.78475 2.35755Z" fill="#FFBD39"/>
</svg>
