<svg width="16" height="17" viewBox="0 0 16 17" fill="none" xmlns="http://www.w3.org/2000/svg">
<path d="M8.53475 3.01624L9.63543 4.99633C9.78624 5.26812 10.1647 5.52632 10.476 5.56122L12.3287 5.7929C13.515 5.93868 13.8209 6.77618 13.0136 7.65341L11.6382 9.13953C11.4086 9.38858 11.2894 9.86369 11.3816 10.1898L11.8635 11.9394C12.2426 13.3208 11.5217 13.8933 10.255 13.2148L8.48535 12.2668C8.16306 12.0935 7.65112 12.1187 7.34834 12.3133L5.66373 13.398C4.45779 14.1734 3.69041 13.6629 3.95503 12.2565L4.29388 10.4766C4.35714 10.1439 4.20547 9.67962 3.95512 9.45121L2.45304 8.08075C1.57642 7.27465 1.81222 6.4155 2.98036 6.17192L4.80432 5.79291C5.11214 5.7264 5.46887 5.44569 5.59411 5.16009L6.52858 3.09324C7.03936 1.97966 7.9405 1.94457 8.53475 3.01624Z" fill="#FFBD39"/>
</svg>
