<svg width="17" height="17" viewBox="0 0 17 17" fill="none" xmlns="http://www.w3.org/2000/svg">
<path d="M8.84216 2.98676L9.91221 4.92182C10.0588 5.18743 10.4268 5.43975 10.7294 5.47386L12.5306 5.70027C13.6838 5.84274 13.9812 6.66119 13.1964 7.51846L11.8592 8.97078C11.636 9.21416 11.5201 9.67847 11.6098 9.99715L12.0783 11.707C12.4468 13.0569 11.746 13.6164 10.5145 12.9534L8.79414 12.0269C8.48081 11.8576 7.98312 11.8822 7.68876 12.0724L6.05104 13.1324C4.87866 13.8901 4.13263 13.3913 4.38988 12.0169L4.71931 10.2775C4.78081 9.95231 4.63336 9.49858 4.38998 9.27537L2.92969 7.93608C2.07747 7.14832 2.30671 6.30871 3.44234 6.07067L5.21554 5.70028C5.5148 5.63528 5.8616 5.36096 5.98336 5.08185L6.89182 3.06201C7.38839 1.97377 8.26445 1.93948 8.84216 2.98676Z" fill="#FFBD39"/>
</svg>
