<svg width="16" height="17" viewBox="0 0 16 17" fill="none" xmlns="http://www.w3.org/2000/svg">
<path d="M8.39489 2.98579L9.46494 4.92084C9.61156 5.18645 9.97952 5.43878 10.2821 5.47288L12.0833 5.69929C13.2365 5.84176 13.5339 6.66021 12.7491 7.51749L11.4119 8.9698C11.1887 9.21318 11.0729 9.67749 11.1625 9.99617L11.6311 11.706C11.9996 13.0559 11.2988 13.6155 10.0672 12.9524L8.34687 12.0259C8.03355 11.8566 7.53586 11.8812 7.2415 12.0714L5.60378 13.1314C4.43139 13.8891 3.68537 13.3903 3.94262 12.0159L4.27204 10.2765C4.33355 9.95133 4.18609 9.4976 3.94271 9.27439L2.48243 7.9351C1.6302 7.14734 1.85945 6.30773 2.99507 6.06969L4.76827 5.6993C5.06753 5.6343 5.41433 5.35998 5.53609 5.08087L6.44455 3.06104C6.94112 1.97279 7.81718 1.9385 8.39489 2.98579Z" fill="#FFBD39"/>
</svg>
