<svg width="17" height="17" viewBox="0 0 17 17" fill="none" xmlns="http://www.w3.org/2000/svg">
<path d="M9.03475 3.0177L10.1354 4.9978C10.2862 5.26959 10.6647 5.52779 10.976 5.56269L12.8287 5.79437C14.015 5.94015 14.3209 6.77765 13.5136 7.65488L12.1382 9.141C11.9086 9.39004 11.7894 9.86516 11.8816 10.1913L12.3635 11.9409C12.7426 13.3222 12.0217 13.8948 10.755 13.2163L8.98535 12.2683C8.66306 12.095 8.15112 12.1202 7.84834 12.3148L6.16373 13.3995C4.95779 14.1748 4.19041 13.6644 4.45503 12.258L4.79388 10.4781C4.85714 10.1454 4.70547 9.68108 4.45512 9.45267L2.95304 8.08221C2.07642 7.27612 2.31222 6.41697 3.48036 6.17339L5.30432 5.79438C5.61214 5.72786 5.96887 5.44716 6.09411 5.16155L7.02858 3.0947C7.53936 1.98113 8.4405 1.94604 9.03475 3.0177Z" fill="#FFBD39"/>
</svg>
