<svg width="17" height="17" viewBox="0 0 17 17" fill="none" xmlns="http://www.w3.org/2000/svg">
<path d="M8.8785 3.01721L9.97918 4.99731C10.13 5.2691 10.5085 5.5273 10.8197 5.5622L12.6725 5.79388C13.8587 5.93966 14.1646 6.77716 13.3573 7.65439L11.9819 9.14051C11.7523 9.38956 11.6331 9.86467 11.7254 10.1908L12.2073 11.9404C12.5864 13.3217 11.8655 13.8943 10.5987 13.2158L8.8291 12.2678C8.50681 12.0945 7.99487 12.1197 7.69209 12.3143L6.00748 13.399C4.80154 14.1743 4.03416 13.6639 4.29878 12.2575L4.63763 10.4776C4.70089 10.1449 4.54922 9.6806 4.29887 9.45219L2.79679 8.08173C1.92017 7.27563 2.15597 6.41648 3.32411 6.1729L5.14807 5.79389C5.45589 5.72737 5.81262 5.44667 5.93786 5.16107L6.87233 3.09422C7.38311 1.98064 8.28425 1.94555 8.8785 3.01721Z" fill="#FFBD39"/>
</svg>
