<svg width="17" height="16" viewBox="0 0 17 16" fill="none" xmlns="http://www.w3.org/2000/svg">
<path d="M8.80309 2.36677L9.87315 4.30182C10.0198 4.56743 10.3877 4.81976 10.6903 4.85387L12.4915 5.08027C13.6447 5.22274 13.9421 6.04119 13.1573 6.89847L11.8201 8.35078C11.5969 8.59416 11.4811 9.05847 11.5707 9.37715L12.0393 11.087C12.4078 12.4369 11.707 12.9964 10.4754 12.3334L8.75507 11.4069C8.44175 11.2376 7.94406 11.2622 7.6497 11.4524L6.01198 12.5124C4.83959 13.2701 4.09357 12.7713 4.35082 11.3969L4.68025 9.65746C4.74175 9.33231 4.5943 8.87859 4.35091 8.65537L2.89063 7.31608C2.03841 6.52832 2.26765 5.68871 3.40328 5.45068L5.17648 5.08029C5.47573 5.01528 5.82254 4.74096 5.9443 4.46186L6.85276 2.44202C7.34932 1.35377 8.22538 1.31948 8.80309 2.36677Z" fill="#FFBD39"/>
</svg>
