<svg width="17" height="17" viewBox="0 0 17 17" fill="none" xmlns="http://www.w3.org/2000/svg">
<path d="M8.99841 2.98579L10.0685 4.92084C10.2151 5.18645 10.583 5.43878 10.8856 5.47288L12.6868 5.69929C13.84 5.84176 14.1375 6.66021 13.3526 7.51749L12.0155 8.9698C11.7922 9.21318 11.6764 9.67749 11.7661 9.99617L12.2346 11.706C12.6031 13.0559 11.9023 13.6155 10.6708 12.9524L8.95039 12.0259C8.63706 11.8566 8.13937 11.8812 7.84501 12.0714L6.20729 13.1314C5.03491 13.8891 4.28888 13.3903 4.54613 12.0159L4.87556 10.2765C4.93706 9.95133 4.78961 9.4976 4.54623 9.27439L3.08594 7.9351C2.23372 7.14734 2.46296 6.30773 3.59859 6.06969L5.37179 5.6993C5.67105 5.6343 6.01785 5.35998 6.13961 5.08087L7.04807 3.06104C7.54464 1.97279 8.4207 1.9385 8.99841 2.98579Z" fill="#FFBD39"/>
</svg>
