<svg width="16" height="17" viewBox="0 0 16 17" fill="none" xmlns="http://www.w3.org/2000/svg">
<path d="M8.53475 3.0177L9.63543 4.9978C9.78624 5.26959 10.1647 5.52779 10.476 5.56269L12.3287 5.79437C13.515 5.94015 13.8209 6.77765 13.0136 7.65488L11.6382 9.141C11.4086 9.39004 11.2894 9.86516 11.3816 10.1913L11.8635 11.9409C12.2426 13.3222 11.5217 13.8948 10.255 13.2163L8.48535 12.2683C8.16306 12.095 7.65112 12.1202 7.34834 12.3148L5.66373 13.3995C4.45779 14.1748 3.69041 13.6644 3.95503 12.258L4.29388 10.4781C4.35714 10.1454 4.20547 9.68108 3.95512 9.45267L2.45304 8.08221C1.57642 7.27612 1.81222 6.41697 2.98036 6.17339L4.80432 5.79438C5.11214 5.72786 5.46887 5.44716 5.59411 5.16155L6.52858 3.0947C7.03936 1.98113 7.9405 1.94604 8.53475 3.0177Z" fill="#FFBD39"/>
</svg>
