<svg width="17" height="17" viewBox="0 0 17 17" fill="none" xmlns="http://www.w3.org/2000/svg">
<path d="M8.98864 2.98676L10.0587 4.92182C10.2053 5.18743 10.5733 5.43975 10.8759 5.47386L12.677 5.70027C13.8303 5.84274 14.1277 6.66119 13.3428 7.51846L12.0057 8.97078C11.7825 9.21416 11.6666 9.67847 11.7563 9.99715L12.2248 11.707C12.5933 13.0569 11.8925 13.6164 10.661 12.9534L8.94062 12.0269C8.6273 11.8576 8.12961 11.8822 7.83525 12.0724L6.19753 13.1324C5.02514 13.8901 4.27912 13.3913 4.53637 12.0169L4.86579 10.2775C4.9273 9.95231 4.77984 9.49858 4.53646 9.27537L3.07618 7.93608C2.22395 7.14832 2.4532 6.30871 3.58882 6.07067L5.36202 5.70028C5.66128 5.63528 6.00808 5.36096 6.12984 5.08185L7.0383 3.06201C7.53487 1.97377 8.41093 1.93948 8.98864 2.98676Z" fill="#FFBD39"/>
</svg>
