<svg width="16" height="17" viewBox="0 0 16 17" fill="none" xmlns="http://www.w3.org/2000/svg">
<path d="M8.64489 2.98579L9.71494 4.92084C9.86156 5.18645 10.2295 5.43878 10.5321 5.47288L12.3333 5.69929C13.4865 5.84176 13.7839 6.66021 12.9991 7.51749L11.6619 8.9698C11.4387 9.21318 11.3229 9.67749 11.4125 9.99617L11.8811 11.706C12.2496 13.0559 11.5488 13.6155 10.3172 12.9524L8.59687 12.0259C8.28355 11.8566 7.78586 11.8812 7.4915 12.0714L5.85378 13.1314C4.68139 13.8891 3.93537 13.3903 4.19262 12.0159L4.52204 10.2765C4.58355 9.95133 4.43609 9.4976 4.19271 9.27439L2.73243 7.9351C1.8802 7.14734 2.10945 6.30773 3.24507 6.06969L5.01827 5.6993C5.31753 5.6343 5.66433 5.35998 5.78609 5.08087L6.69455 3.06104C7.19112 1.97279 8.06718 1.9385 8.64489 2.98579Z" fill="#FFBD39"/>
</svg>
