<svg width="16" height="16" viewBox="0 0 16 16" fill="none" xmlns="http://www.w3.org/2000/svg">
<path d="M8.39684 2.36762L9.4669 4.30268C9.61351 4.56829 9.98147 4.82061 10.2841 4.85472L12.0852 5.08113C13.2385 5.2236 13.5359 6.04205 12.751 6.89932L11.4139 8.35164C11.1907 8.59502 11.0748 9.05933 11.1645 9.37801L11.633 11.0878C12.0015 12.4378 11.3007 12.9973 10.0692 12.3342L8.34882 11.4078C8.0355 11.2384 7.53781 11.2631 7.24345 11.4532L5.60573 12.5133C4.43334 13.271 3.68732 12.7722 3.94457 11.3977L4.274 9.65831C4.3355 9.33317 4.18805 8.87944 3.94466 8.65622L2.48438 7.31694C1.63216 6.52918 1.8614 5.68957 2.99703 5.45153L4.77023 5.08114C5.06948 5.01614 5.41629 4.74182 5.53805 4.46271L6.44651 2.44287C6.94307 1.35462 7.81913 1.32033 8.39684 2.36762Z" fill="#FFBD39"/>
</svg>
