<svg width="16" height="16" viewBox="0 0 16 16" fill="none" xmlns="http://www.w3.org/2000/svg">
<path d="M8.53475 2.35755L9.63543 4.33764C9.78624 4.60943 10.1647 4.86763 10.476 4.90253L12.3287 5.13421C13.515 5.27999 13.8209 6.11749 13.0136 6.99472L11.6382 8.48084C11.4086 8.72989 11.2894 9.205 11.3816 9.5311L11.8635 11.2807C12.2426 12.6621 11.5217 13.2346 10.255 12.5561L8.48535 11.6081C8.16306 11.4348 7.65112 11.46 7.34834 11.6546L5.66373 12.7393C4.45779 13.5147 3.69041 13.0043 3.95503 11.5978L4.29388 9.81793C4.35714 9.48522 4.20547 9.02093 3.95512 8.79252L2.45304 7.42206C1.57642 6.61596 1.81222 5.75681 2.98036 5.51323L4.80432 5.13422C5.11214 5.0677 5.46887 4.787 5.59411 4.5014L6.52858 2.43455C7.03936 1.32097 7.9405 1.28588 8.53475 2.35755Z" fill="#FFBD39"/>
</svg>
