<svg width="17" height="17" viewBox="0 0 17 17" fill="none" xmlns="http://www.w3.org/2000/svg">
<path d="M9.14489 2.98579L10.2149 4.92084C10.3616 5.18645 10.7295 5.43878 11.0321 5.47288L12.8333 5.69929C13.9865 5.84176 14.2839 6.66021 13.4991 7.51749L12.1619 8.9698C11.9387 9.21318 11.8229 9.67749 11.9125 9.99617L12.3811 11.706C12.7496 13.0559 12.0488 13.6155 10.8172 12.9524L9.09687 12.0259C8.78355 11.8566 8.28586 11.8812 7.9915 12.0714L6.35378 13.1314C5.18139 13.8891 4.43537 13.3903 4.69262 12.0159L5.02204 10.2765C5.08355 9.95133 4.93609 9.4976 4.69271 9.27439L3.23243 7.9351C2.3802 7.14734 2.60945 6.30773 3.74507 6.06969L5.51827 5.6993C5.81753 5.6343 6.16433 5.35998 6.28609 5.08087L7.19455 3.06104C7.69112 1.97279 8.56718 1.9385 9.14489 2.98579Z" fill="#FFBD39"/>
</svg>
