<svg width="17" height="16" viewBox="0 0 17 16" fill="none" xmlns="http://www.w3.org/2000/svg">
<path d="M9.03475 2.35755L10.1354 4.33764C10.2862 4.60943 10.6647 4.86763 10.976 4.90253L12.8287 5.13421C14.015 5.27999 14.3209 6.11749 13.5136 6.99472L12.1382 8.48084C11.9086 8.72989 11.7894 9.205 11.8816 9.5311L12.3635 11.2807C12.7426 12.6621 12.0217 13.2346 10.755 12.5561L8.98535 11.6081C8.66306 11.4348 8.15112 11.46 7.84834 11.6546L6.16373 12.7393C4.95779 13.5147 4.19041 13.0043 4.45503 11.5978L4.79388 9.81793C4.85714 9.48522 4.70547 9.02093 4.45512 8.79252L2.95304 7.42206C2.07642 6.61596 2.31222 5.75681 3.48036 5.51323L5.30432 5.13422C5.61214 5.0677 5.96887 4.787 6.09411 4.5014L7.02858 2.43455C7.53936 1.32097 8.4405 1.28588 9.03475 2.35755Z" fill="#FFBD39"/>
</svg>
