<svg width="16" height="16" viewBox="0 0 16 16" fill="none" xmlns="http://www.w3.org/2000/svg">
<path d="M8.55309 2.36677L9.62315 4.30182C9.76976 4.56743 10.1377 4.81976 10.4403 4.85387L12.2415 5.08027C13.3947 5.22274 13.6921 6.04119 12.9073 6.89847L11.5701 8.35078C11.3469 8.59416 11.2311 9.05847 11.3207 9.37715L11.7893 11.087C12.1578 12.4369 11.457 12.9964 10.2254 12.3334L8.50507 11.4069C8.19175 11.2376 7.69406 11.2622 7.3997 11.4524L5.76198 12.5124C4.58959 13.2701 3.84357 12.7713 4.10082 11.3969L4.43025 9.65746C4.49175 9.33231 4.3443 8.87859 4.10091 8.65537L2.64063 7.31608C1.78841 6.52832 2.01765 5.68871 3.15328 5.45068L4.92648 5.08029C5.22573 5.01528 5.57254 4.74096 5.6943 4.46186L6.60276 2.44202C7.09932 1.35377 7.97538 1.31948 8.55309 2.36677Z" fill="#FFBD39"/>
</svg>
