<svg width="17" height="17" viewBox="0 0 17 17" fill="none" xmlns="http://www.w3.org/2000/svg">
<path d="M9.3785 3.01721L10.4792 4.99731C10.63 5.2691 11.0085 5.5273 11.3197 5.5622L13.1725 5.79388C14.3587 5.93966 14.6646 6.77716 13.8573 7.65439L12.4819 9.14051C12.2523 9.38956 12.1331 9.86467 12.2254 10.1908L12.7073 11.9404C13.0864 13.3217 12.3655 13.8943 11.0987 13.2158L9.3291 12.2678C9.00681 12.0945 8.49487 12.1197 8.19209 12.3143L6.50748 13.399C5.30154 14.1743 4.53416 13.6639 4.79878 12.2575L5.13763 10.4776C5.20089 10.1449 5.04922 9.6806 4.79887 9.45219L3.29679 8.08173C2.42017 7.27563 2.65597 6.41648 3.82411 6.1729L5.64807 5.79389C5.95589 5.72737 6.31262 5.44667 6.43786 5.16107L7.37233 3.09422C7.88311 1.98064 8.78425 1.94555 9.3785 3.01721Z" fill="#FFBD39"/>
</svg>
