<svg width="16" height="17" viewBox="0 0 16 17" fill="none" xmlns="http://www.w3.org/2000/svg">
<path d="M8.49841 2.98579L9.56846 4.92084C9.71507 5.18645 10.083 5.43878 10.3856 5.47288L12.1868 5.69929C13.34 5.84176 13.6375 6.66021 12.8526 7.51749L11.5155 8.9698C11.2922 9.21318 11.1764 9.67749 11.2661 9.99617L11.7346 11.706C12.1031 13.0559 11.4023 13.6155 10.1708 12.9524L8.45039 12.0259C8.13706 11.8566 7.63937 11.8812 7.34501 12.0714L5.70729 13.1314C4.53491 13.8891 3.78888 13.3903 4.04613 12.0159L4.37556 10.2765C4.43706 9.95133 4.28961 9.4976 4.04623 9.27439L2.58594 7.9351C1.73372 7.14734 1.96296 6.30773 3.09859 6.06969L4.87179 5.6993C5.17105 5.6343 5.51785 5.35998 5.63961 5.08087L6.54807 3.06104C7.04464 1.97279 7.9207 1.9385 8.49841 2.98579Z" fill="#FFBD39"/>
</svg>
