<svg width="17" height="16" viewBox="0 0 17 16" fill="none" xmlns="http://www.w3.org/2000/svg">
<path d="M9.28475 2.35755L10.3854 4.33764C10.5362 4.60943 10.9147 4.86763 11.226 4.90253L13.0787 5.13421C14.265 5.27999 14.5709 6.11749 13.7636 6.99472L12.3882 8.48084C12.1586 8.72989 12.0394 9.205 12.1316 9.5311L12.6135 11.2807C12.9926 12.6621 12.2717 13.2346 11.005 12.5561L9.23535 11.6081C8.91306 11.4348 8.40112 11.46 8.09834 11.6546L6.41373 12.7393C5.20779 13.5147 4.44041 13.0043 4.70503 11.5978L5.04388 9.81793C5.10714 9.48522 4.95547 9.02093 4.70512 8.79252L3.20304 7.42206C2.32642 6.61596 2.56222 5.75681 3.73036 5.51323L5.55432 5.13422C5.86214 5.0677 6.21887 4.787 6.34411 4.5014L7.27858 2.43455C7.78936 1.32097 8.6905 1.28588 9.28475 2.35755Z" fill="#FFBD39"/>
</svg>
