<svg width="17" height="17" viewBox="0 0 17 17" fill="none" xmlns="http://www.w3.org/2000/svg">
<path d="M8.74841 2.98579L9.81846 4.92084C9.96507 5.18645 10.333 5.43878 10.6356 5.47288L12.4368 5.69929C13.59 5.84176 13.8875 6.66021 13.1026 7.51749L11.7655 8.9698C11.5422 9.21318 11.4264 9.67749 11.5161 9.99617L11.9846 11.706C12.3531 13.0559 11.6523 13.6155 10.4208 12.9524L8.70039 12.0259C8.38706 11.8566 7.88937 11.8812 7.59501 12.0714L5.95729 13.1314C4.78491 13.8891 4.03888 13.3903 4.29613 12.0159L4.62556 10.2765C4.68706 9.95133 4.53961 9.4976 4.29623 9.27439L2.83594 7.9351C1.98372 7.14734 2.21296 6.30773 3.34859 6.06969L5.12179 5.6993C5.42105 5.6343 5.76785 5.35998 5.88961 5.08087L6.79807 3.06104C7.29464 1.97279 8.1707 1.9385 8.74841 2.98579Z" fill="#FFBD39"/>
</svg>
