<svg width="17" height="16" viewBox="0 0 17 16" fill="none" xmlns="http://www.w3.org/2000/svg">
<path d="M8.89684 2.36762L9.9669 4.30268C10.1135 4.56829 10.4815 4.82061 10.7841 4.85472L12.5852 5.08113C13.7385 5.2236 14.0359 6.04205 13.251 6.89932L11.9139 8.35164C11.6907 8.59502 11.5748 9.05933 11.6645 9.37801L12.133 11.0878C12.5015 12.4378 11.8007 12.9973 10.5692 12.3342L8.84882 11.4078C8.5355 11.2384 8.03781 11.2631 7.74345 11.4532L6.10573 12.5133C4.93334 13.271 4.18732 12.7722 4.44457 11.3977L4.774 9.65831C4.8355 9.33317 4.68805 8.87944 4.44466 8.65622L2.98438 7.31694C2.13216 6.52918 2.3614 5.68957 3.49703 5.45153L5.27023 5.08114C5.56948 5.01614 5.91629 4.74182 6.03805 4.46271L6.94651 2.44287C7.44307 1.35462 8.31913 1.32033 8.89684 2.36762Z" fill="#FFBD39"/>
</svg>
