<svg width="17" height="16" viewBox="0 0 17 16" fill="none" xmlns="http://www.w3.org/2000/svg">
<path d="M9.05309 2.36677L10.1231 4.30182C10.2698 4.56743 10.6377 4.81976 10.9403 4.85387L12.7415 5.08027C13.8947 5.22274 14.1921 6.04119 13.4073 6.89847L12.0701 8.35078C11.8469 8.59416 11.7311 9.05847 11.8207 9.37715L12.2893 11.087C12.6578 12.4369 11.957 12.9964 10.7254 12.3334L9.00507 11.4069C8.69175 11.2376 8.19406 11.2622 7.8997 11.4524L6.26198 12.5124C5.08959 13.2701 4.34357 12.7713 4.60082 11.3969L4.93025 9.65746C4.99175 9.33231 4.8443 8.87859 4.60091 8.65537L3.14063 7.31608C2.28841 6.52832 2.51765 5.68871 3.65328 5.45068L5.42648 5.08029C5.72573 5.01528 6.07254 4.74096 6.1943 4.46186L7.10276 2.44202C7.59932 1.35377 8.47538 1.31948 9.05309 2.36677Z" fill="#FFBD39"/>
</svg>
