<svg width="21" height="20" viewBox="0 0 21 20" fill="none" xmlns="http://www.w3.org/2000/svg">
<g clip-path="url(#clip0_33_5299)">
<path d="M4.88627 -0.00632451C4.7164 0.000772338 4.55166 0.0538987 4.40964 0.147375C4.26763 0.240852 4.15369 0.371164 4.08 0.524382C4.00631 0.6776 3.97564 0.847963 3.99128 1.01726C4.00692 1.18656 4.06827 1.34842 4.16877 1.48555L7.62065 6.18743C7.65815 6.23868 7.70377 6.2818 7.74877 6.32305V19.0699C7.74877 19.3186 7.84754 19.557 8.02336 19.7328C8.19917 19.9087 8.43763 20.0074 8.68627 20.0074C8.93491 20.0074 9.17337 19.9087 9.34918 19.7328C9.525 19.557 9.62377 19.3186 9.62377 19.0699V14.3824H10.8738V19.0699C10.8738 19.3186 10.9725 19.557 11.1484 19.7328C11.3242 19.9087 11.5626 20.0074 11.8113 20.0074C12.0599 20.0074 12.2984 19.9087 12.4742 19.7328C12.65 19.557 12.7488 19.3186 12.7488 19.0699V6.3268C12.797 6.28494 12.8407 6.23824 12.8794 6.18743L16.3313 1.48555C16.4666 1.28464 16.519 1.03916 16.4775 0.800487C16.4359 0.561819 16.3037 0.348475 16.1084 0.205119C15.9131 0.0617626 15.6699 -0.000489714 15.4298 0.0313946C15.1896 0.063279 14.9711 0.186828 14.82 0.376175L11.8781 4.38243H8.6219L5.68002 0.376175C5.58919 0.252258 5.46929 0.152564 5.33088 0.0858658C5.19247 0.0191673 5.03979 -0.0124913 4.88627 -0.00632451ZM10.2488 0.00742549C9.75149 0.00742549 9.27458 0.20497 8.92295 0.5566C8.57131 0.908231 8.37377 1.38514 8.37377 1.88243C8.37377 2.37971 8.57131 2.85662 8.92295 3.20825C9.27458 3.55988 9.75149 3.75743 10.2488 3.75743C10.7461 3.75743 11.223 3.55988 11.5746 3.20825C11.9262 2.85662 12.1238 2.37971 12.1238 1.88243C12.1238 1.38514 11.9262 0.908231 11.5746 0.5566C11.223 0.20497 10.7461 0.00742549 10.2488 0.00742549Z" fill="#ED5826"/>
</g>
<defs>
<clipPath id="clip0_33_5299">
<rect width="20" height="20" fill="white" transform="translate(0.25)"/>
</clipPath>
</defs>
</svg>
