<svg width="20" height="20" viewBox="0 0 20 20" fill="none" xmlns="http://www.w3.org/2000/svg">
<g clip-path="url(#clip0_89_134)">
<path d="M4.63627 -0.00632451C4.4664 0.000772338 4.30166 0.0538987 4.15964 0.147375C4.01763 0.240852 3.90369 0.371164 3.83 0.524382C3.75631 0.6776 3.72564 0.847963 3.74128 1.01726C3.75692 1.18656 3.81827 1.34842 3.91877 1.48555L7.37065 6.18743C7.40815 6.23868 7.45377 6.2818 7.49877 6.32305V19.0699C7.49877 19.3186 7.59754 19.557 7.77336 19.7328C7.94917 19.9087 8.18763 20.0074 8.43627 20.0074C8.68491 20.0074 8.92337 19.9087 9.09918 19.7328C9.275 19.557 9.37377 19.3186 9.37377 19.0699V14.3824H10.6238V19.0699C10.6238 19.3186 10.7225 19.557 10.8984 19.7328C11.0742 19.9087 11.3126 20.0074 11.5613 20.0074C11.8099 20.0074 12.0484 19.9087 12.2242 19.7328C12.4 19.557 12.4988 19.3186 12.4988 19.0699V6.3268C12.547 6.28494 12.5907 6.23824 12.6294 6.18743L16.0813 1.48555C16.2166 1.28464 16.269 1.03916 16.2275 0.800487C16.1859 0.561819 16.0537 0.348475 15.8584 0.205119C15.6631 0.0617626 15.4199 -0.000489714 15.1798 0.0313946C14.9396 0.063279 14.7211 0.186828 14.57 0.376175L11.6281 4.38243H8.3719L5.43002 0.376175C5.33919 0.252258 5.21929 0.152564 5.08088 0.0858658C4.94247 0.0191673 4.78979 -0.0124913 4.63627 -0.00632451ZM9.99877 0.00742549C9.50149 0.00742549 9.02458 0.20497 8.67295 0.5566C8.32131 0.908231 8.12377 1.38514 8.12377 1.88243C8.12377 2.37971 8.32131 2.85662 8.67295 3.20825C9.02458 3.55988 9.50149 3.75743 9.99877 3.75743C10.4961 3.75743 10.973 3.55988 11.3246 3.20825C11.6762 2.85662 11.8738 2.37971 11.8738 1.88243C11.8738 1.38514 11.6762 0.908231 11.3246 0.5566C10.973 0.20497 10.4961 0.00742549 9.99877 0.00742549Z" fill="#ED5826"/>
</g>
<defs>
<clipPath id="clip0_89_134">
<rect width="20" height="20" fill="white"/>
</clipPath>
</defs>
</svg>
