<svg width="50" height="67" viewBox="0 0 50 67" fill="none" xmlns="http://www.w3.org/2000/svg">
<g filter="url(#filter0_f_94_2297)">
<ellipse cx="12" cy="29.5367" rx="4" ry="2" fill="black" fill-opacity="0.12"/>
</g>
<mask id="path-2-outside-1_94_2297" maskUnits="userSpaceOnUse" x="3.16663" y="3.66174" width="44" height="56" fill="black">
<rect fill="white" x="3.16663" y="3.66174" width="44" height="56"/>
<path fill-rule="evenodd" clip-rule="evenodd" d="M37.3249 41.917C42.4845 38.1629 45.8333 32.112 45.8333 25.2867C45.8333 13.8959 36.5059 4.66174 25 4.66174C13.494 4.66174 4.16663 13.8959 4.16663 25.2867C4.16663 32.112 7.51542 38.163 12.6751 41.9171C16.5936 44.8402 22.116 49.4505 23.3909 56.8696C23.5274 57.6641 24.1938 58.2805 25 58.2805C25.8061 58.2805 26.4725 57.6641 26.609 56.8696C27.8839 49.4504 33.4064 44.8401 37.3249 41.917Z"/>
</mask>
<path fill-rule="evenodd" clip-rule="evenodd" d="M37.3249 41.917C42.4845 38.1629 45.8333 32.112 45.8333 25.2867C45.8333 13.8959 36.5059 4.66174 25 4.66174C13.494 4.66174 4.16663 13.8959 4.16663 25.2867C4.16663 32.112 7.51542 38.163 12.6751 41.9171C16.5936 44.8402 22.116 49.4505 23.3909 56.8696C23.5274 57.6641 24.1938 58.2805 25 58.2805C25.8061 58.2805 26.4725 57.6641 26.609 56.8696C27.8839 49.4504 33.4064 44.8401 37.3249 41.917Z" fill="#EA352B"/>
<path d="M37.3249 41.917L36.7365 41.1084L36.727 41.1155L37.3249 41.917ZM12.6751 41.9171L13.2731 41.1155L13.2634 41.1085L12.6751 41.9171ZM23.3909 56.8696L22.4053 57.0389L23.3909 56.8696ZM26.609 56.8696L27.5946 57.0389L26.609 56.8696ZM37.9132 42.7256C43.3183 38.793 46.8333 32.4479 46.8333 25.2867H44.8333C44.8333 31.7761 41.6508 37.5329 36.7366 41.1084L37.9132 42.7256ZM46.8333 25.2867C46.8333 13.3341 37.0487 3.66174 25 3.66174V5.66174C35.9631 5.66174 44.8333 14.4576 44.8333 25.2867H46.8333ZM25 3.66174C12.9512 3.66174 3.16663 13.3341 3.16663 25.2867H5.16663C5.16663 14.4576 14.0368 5.66174 25 5.66174V3.66174ZM3.16663 25.2867C3.16663 32.4479 6.68164 38.793 12.0868 42.7257L13.2634 41.1085C8.34919 37.5329 5.16663 31.7762 5.16663 25.2867H3.16663ZM24.3764 56.7002C23.0297 48.8632 17.2039 44.0479 13.273 41.1155L12.0772 42.7186C15.9833 45.6325 21.2023 50.0377 22.4053 57.0389L24.3764 56.7002ZM25 57.2805C24.7279 57.2805 24.4387 57.0628 24.3764 56.7002L22.4053 57.0389C22.6161 58.2654 23.6597 59.2805 25 59.2805V57.2805ZM25.6235 56.7002C25.5612 57.0628 25.2721 57.2805 25 57.2805V59.2805C26.3402 59.2805 27.3838 58.2654 27.5946 57.0389L25.6235 56.7002ZM36.727 41.1155C32.7961 44.0478 26.9702 48.8632 25.6235 56.7002L27.5946 57.0389C28.7977 50.0377 34.0167 45.6324 37.9228 42.7186L36.727 41.1155Z" fill="url(#paint0_linear_94_2297)" mask="url(#path-2-outside-1_94_2297)"/>
<ellipse cx="25" cy="25.2867" rx="8.33333" ry="8.25" fill="black" fill-opacity="0.4"/>
<defs>
<filter id="filter0_f_94_2297" x="6" y="25.5367" width="12" height="8" filterUnits="userSpaceOnUse" color-interpolation-filters="sRGB">
<feFlood flood-opacity="0" result="BackgroundImageFix"/>
<feBlend mode="normal" in="SourceGraphic" in2="BackgroundImageFix" result="shape"/>
<feGaussianBlur stdDeviation="1" result="effect1_foregroundBlur_94_2297"/>
</filter>
<linearGradient id="paint0_linear_94_2297" x1="25" y1="4.66174" x2="25" y2="58.2805" gradientUnits="userSpaceOnUse">
<stop stop-color="white"/>
<stop offset="1" stop-color="white" stop-opacity="0.35"/>
</linearGradient>
</defs>
</svg>
