<svg width="21" height="21" viewBox="0 0 21 21" fill="none" xmlns="http://www.w3.org/2000/svg">
<path d="M15.6243 4.18628H6.04102V18.7696H15.6243V4.18628ZM10.8327 7.10295C12.541 7.10295 13.9577 8.51961 13.9577 10.2279C13.9577 11.9363 12.541 13.3529 10.8327 13.3529C9.12435 13.3529 7.70768 11.9363 7.70768 10.2279C7.70768 8.51961 9.12435 7.10295 10.8327 7.10295ZM14.166 17.9363H7.49935C7.37435 17.9363 7.29102 17.8529 7.29102 17.7279C7.29102 17.6029 7.37435 17.5196 7.49935 17.5196H14.166C14.291 17.5196 14.3743 17.6029 14.3743 17.7279C14.3743 17.8529 14.291 17.9363 14.166 17.9363ZM14.166 15.8529H7.49935C7.37435 15.8529 7.29102 15.7696 7.29102 15.6446C7.29102 15.5196 7.37435 15.4363 7.49935 15.4363H14.166C14.291 15.4363 14.3743 15.5196 14.3743 15.6446C14.3743 15.7696 14.291 15.8529 14.166 15.8529Z" fill="#ED5826"/>
<path d="M13.5397 10.2279C13.5397 9.76953 12.5397 9.22786 11.0397 9.1862V11.2695C12.5397 11.2279 13.5397 10.6862 13.5397 10.2279ZM10.623 11.2695V9.1862C9.12305 9.22786 8.12305 9.76953 8.12305 10.2279C8.12305 10.6862 9.12305 11.2279 10.623 11.2695ZM13.4147 11.0612C12.9147 11.3945 12.0397 11.6445 11.0397 11.6445V12.8945C12.1647 12.8529 13.0814 12.1029 13.4147 11.0612ZM10.623 12.9362V11.6862C9.62305 11.6445 8.78971 11.4362 8.24805 11.1029C8.58138 12.1029 9.49805 12.8529 10.623 12.9362ZM10.623 7.51953C9.49805 7.60286 8.58138 8.35286 8.24805 9.35286C8.74805 9.01953 9.62305 8.76953 10.623 8.76953V7.51953Z" fill="#FDA71A"/>
<path d="M14.7897 2.56128L8.12305 3.76961H14.7897V2.56128Z" fill="#ED5826"/>
<path d="M11.041 7.51953V8.76953C12.041 8.8112 12.8743 9.01953 13.416 9.35286C13.0827 8.35286 12.166 7.60286 11.041 7.51953Z" fill="#FDA71A"/>
<path d="M5.83138 19.1861H15.8314C15.9564 19.1861 16.0397 19.1028 16.0397 18.9778V3.97778C16.0397 3.85278 15.9564 3.76945 15.8314 3.76945H15.2064V2.31112C15.2064 2.26945 15.1647 2.18612 15.123 2.14445C15.0814 2.10278 14.998 2.10278 14.9564 2.10278L5.78971 3.76945H5.74805C5.74805 3.76945 5.70638 3.76945 5.70638 3.81112L5.66471 3.85278L5.62305 3.89445V19.0194C5.62305 19.1028 5.70638 19.1861 5.83138 19.1861ZM14.7897 2.56112V3.76945H8.12305L14.7897 2.56112ZM6.03971 4.18612H15.623V18.7695H6.03971V4.18612Z" fill="black"/>
<path d="M10.8327 13.3528C12.541 13.3528 13.9577 11.9361 13.9577 10.2278C13.9577 8.51945 12.541 7.10278 10.8327 7.10278C9.12435 7.10278 7.70768 8.51945 7.70768 10.2278C7.70768 11.9361 9.12435 13.3528 10.8327 13.3528ZM11.041 7.51945C12.166 7.60278 13.0827 8.35278 13.416 9.35278C12.916 9.01945 12.041 8.76945 11.041 8.76945V7.51945ZM11.041 9.18612C12.541 9.22778 13.541 9.76945 13.541 10.2278C13.541 10.6861 12.541 11.2278 11.041 11.2695V9.18612ZM11.041 11.6861C12.041 11.6445 12.8743 11.4361 13.416 11.1028C13.0827 12.1028 12.166 12.8528 11.041 12.9361V11.6861ZM10.6243 7.51945V8.76945C9.62435 8.81112 8.79102 9.01945 8.24935 9.35278C8.58268 8.35278 9.49935 7.60278 10.6243 7.51945ZM10.6243 9.18612V11.2695C9.12435 11.2278 8.12435 10.6861 8.12435 10.2278C8.12435 9.76945 9.12435 9.22778 10.6243 9.18612ZM10.6243 11.6861V12.9361C9.49935 12.8528 8.58268 12.1028 8.24935 11.1028C8.79102 11.4361 9.62435 11.6445 10.6243 11.6861ZM14.166 15.4361H7.49935C7.37435 15.4361 7.29102 15.5195 7.29102 15.6445C7.29102 15.7695 7.37435 15.8528 7.49935 15.8528H14.166C14.291 15.8528 14.3743 15.7695 14.3743 15.6445C14.3743 15.5195 14.291 15.4361 14.166 15.4361ZM14.166 17.5195H7.49935C7.37435 17.5195 7.29102 17.6028 7.29102 17.7278C7.29102 17.8528 7.37435 17.9361 7.49935 17.9361H14.166C14.291 17.9361 14.3743 17.8528 14.3743 17.7278C14.3743 17.6028 14.291 17.5195 14.166 17.5195Z" fill="black"/>
</svg>
