<svg width="25" height="25" viewBox="0 0 25 25" fill="none" xmlns="http://www.w3.org/2000/svg">
<path d="M21.4112 19.79L18.0112 16.4C19.1082 15.0025 19.7034 13.2767 19.7012 11.5C19.7012 9.91775 19.232 8.37103 18.3529 7.05544C17.4739 5.73985 16.2245 4.71447 14.7626 4.10897C13.3008 3.50347 11.6923 3.34504 10.1405 3.65372C8.58861 3.9624 7.16314 4.72433 6.04432 5.84315C4.9255 6.96197 4.16357 8.38743 3.85489 9.93928C3.54621 11.4911 3.70464 13.0997 4.31014 14.5615C4.91564 16.0233 5.94102 17.2727 7.25661 18.1518C8.57221 19.0308 10.1189 19.5 11.7012 19.5C13.4778 19.5022 15.2036 18.907 16.6012 17.81L19.9912 21.21C20.0841 21.3037 20.1947 21.3781 20.3166 21.4289C20.4385 21.4797 20.5692 21.5058 20.7012 21.5058C20.8332 21.5058 20.9639 21.4797 21.0858 21.4289C21.2076 21.3781 21.3182 21.3037 21.4112 21.21C21.5049 21.117 21.5793 21.0064 21.6301 20.8846C21.6808 20.7627 21.707 20.632 21.707 20.5C21.707 20.368 21.6808 20.2373 21.6301 20.1154C21.5793 19.9936 21.5049 19.883 21.4112 19.79ZM5.70118 11.5C5.70118 10.3133 6.05307 9.15328 6.71236 8.16658C7.37165 7.17989 8.30872 6.41085 9.40508 5.95673C10.5014 5.5026 11.7078 5.38378 12.8717 5.61529C14.0356 5.8468 15.1047 6.41825 15.9438 7.25736C16.7829 8.09648 17.3544 9.16558 17.5859 10.3295C17.8174 11.4933 17.6986 12.6997 17.2445 13.7961C16.7903 14.8925 16.0213 15.8295 15.0346 16.4888C14.0479 17.1481 12.8879 17.5 11.7012 17.5C10.1099 17.5 8.58375 16.8679 7.45853 15.7426C6.33332 14.6174 5.70118 13.0913 5.70118 11.5Z" fill="black"/>
</svg>
