<svg width="21" height="21" viewBox="0 0 21 21" fill="none" xmlns="http://www.w3.org/2000/svg">
<path d="M7.54915 11.7509H5.88249C3.24082 11.7509 1.09082 13.9009 1.09082 16.5426V17.7926C1.09082 18.1384 1.36999 18.4176 1.71582 18.4176H11.7158C12.0617 18.4176 12.3408 18.1384 12.3408 17.7926V16.5426C12.3408 13.9009 10.1908 11.7509 7.54915 11.7509ZM11.0908 17.1676H2.34082V16.5426C2.34082 14.5884 3.92832 13.0009 5.88249 13.0009H7.54915C9.50332 13.0009 11.0908 14.5884 11.0908 16.5426V17.1676ZM6.71582 11.3342C9.12832 11.3342 11.0908 9.37173 11.0908 6.95923C11.0908 4.54673 9.12832 2.58423 6.71582 2.58423C4.30332 2.58423 2.34082 4.54673 2.34082 6.95923C2.34082 9.37173 4.30332 11.3342 6.71582 11.3342ZM6.71582 3.83423C8.44082 3.83423 9.84082 5.23423 9.84082 6.95923C9.84082 8.68423 8.44082 10.0842 6.71582 10.0842C4.99082 10.0842 3.59082 8.68423 3.59082 6.95923C3.59082 5.23423 4.99082 3.83423 6.71582 3.83423ZM18.9617 10.4884C18.9617 10.4842 18.9617 10.4759 18.9575 10.4717V10.4676C18.9283 10.3967 18.8867 10.3384 18.8367 10.2842C18.8316 10.2779 18.8274 10.2709 18.8242 10.2634L17.1575 8.59673C16.9117 8.3509 16.5158 8.3509 16.2742 8.59673C16.0325 8.84256 16.0283 9.2384 16.2742 9.48006L16.87 10.0842H12.9617C12.6158 10.0842 12.3367 10.3634 12.3367 10.7092C12.3367 11.0551 12.6158 11.3342 12.9617 11.3342H16.87L16.27 11.9342C16.2115 11.992 16.1651 12.0607 16.1334 12.1366C16.1018 12.2124 16.0855 12.2937 16.0855 12.3759C16.0855 12.4581 16.1018 12.5394 16.1334 12.6152C16.1651 12.691 16.2115 12.7598 16.27 12.8176C16.3908 12.9384 16.5533 13.0009 16.7117 13.0009C16.87 13.0009 17.0325 12.9384 17.1533 12.8176L18.82 11.1509C18.8742 11.0967 18.9117 11.0342 18.945 10.9676C18.9533 10.9467 18.9617 10.9259 18.9658 10.9051C18.9825 10.8551 18.9908 10.8051 18.995 10.7509C18.995 10.7301 18.9992 10.7092 18.9992 10.6884C18.9992 10.6176 18.9867 10.5551 18.9617 10.4884Z" fill="white"/>
</svg>
