<svg width="21" height="21" viewBox="0 0 21 21" fill="none" xmlns="http://www.w3.org/2000/svg">
<path d="M7.60524 11.7499H5.93858C3.29691 11.7499 1.14691 13.8999 1.14691 16.5416V17.7916C1.14691 18.1374 1.42608 18.4166 1.77191 18.4166H11.7719C12.1177 18.4166 12.3969 18.1374 12.3969 17.7916V16.5416C12.3969 13.8999 10.2469 11.7499 7.60524 11.7499ZM11.1469 17.1666H2.39691V16.5416C2.39691 14.5874 3.98441 12.9999 5.93858 12.9999H7.60524C9.55941 12.9999 11.1469 14.5874 11.1469 16.5416V17.1666ZM6.77191 11.3333C9.18441 11.3333 11.1469 9.37075 11.1469 6.95825C11.1469 4.54575 9.18441 2.58325 6.77191 2.58325C4.35941 2.58325 2.39691 4.54575 2.39691 6.95825C2.39691 9.37075 4.35941 11.3333 6.77191 11.3333ZM6.77191 3.83325C8.49691 3.83325 9.89691 5.23325 9.89691 6.95825C9.89691 8.68325 8.49691 10.0833 6.77191 10.0833C5.04691 10.0833 3.64691 8.68325 3.64691 6.95825C3.64691 5.23325 5.04691 3.83325 6.77191 3.83325ZM19.0177 10.4874C19.0177 10.4833 19.0177 10.4749 19.0136 10.4708V10.4666C18.9844 10.3958 18.9427 10.3374 18.8927 10.2833C18.8877 10.2769 18.8835 10.2699 18.8802 10.2624L17.2136 8.59575C16.9677 8.34992 16.5719 8.34992 16.3302 8.59575C16.0886 8.84159 16.0844 9.23742 16.3302 9.47909L16.9261 10.0833H13.0177C12.6719 10.0833 12.3927 10.3624 12.3927 10.7083C12.3927 11.0541 12.6719 11.3333 13.0177 11.3333H16.9261L16.3261 11.9333C16.2676 11.991 16.2212 12.0598 16.1895 12.1356C16.1579 12.2114 16.1416 12.2928 16.1416 12.3749C16.1416 12.4571 16.1579 12.5384 16.1895 12.6143C16.2212 12.6901 16.2676 12.7588 16.3261 12.8166C16.4469 12.9374 16.6094 12.9999 16.7677 12.9999C16.9261 12.9999 17.0886 12.9374 17.2094 12.8166L18.8761 11.1499C18.9302 11.0958 18.9677 11.0333 19.0011 10.9666C19.0094 10.9458 19.0177 10.9249 19.0219 10.9041C19.0386 10.8541 19.0469 10.8041 19.0511 10.7499C19.0511 10.7291 19.0552 10.7083 19.0552 10.6874C19.0552 10.6166 19.0427 10.5541 19.0177 10.4874Z" fill="white"/>
</svg>
