<svg width="21" height="21" viewBox="0 0 21 21" fill="none" xmlns="http://www.w3.org/2000/svg">
<path d="M7.60531 11.7499H5.93864C3.29697 11.7499 1.14697 13.8999 1.14697 16.5416V17.7916C1.14697 18.1374 1.42614 18.4166 1.77197 18.4166H11.772C12.1178 18.4166 12.397 18.1374 12.397 17.7916V16.5416C12.397 13.8999 10.247 11.7499 7.60531 11.7499ZM11.147 17.1666H2.39697V16.5416C2.39697 14.5874 3.98447 12.9999 5.93864 12.9999H7.60531C9.55947 12.9999 11.147 14.5874 11.147 16.5416V17.1666ZM6.77197 11.3333C9.18447 11.3333 11.147 9.37075 11.147 6.95825C11.147 4.54575 9.18447 2.58325 6.77197 2.58325C4.35947 2.58325 2.39697 4.54575 2.39697 6.95825C2.39697 9.37075 4.35947 11.3333 6.77197 11.3333ZM6.77197 3.83325C8.49697 3.83325 9.89697 5.23325 9.89697 6.95825C9.89697 8.68325 8.49697 10.0833 6.77197 10.0833C5.04697 10.0833 3.64697 8.68325 3.64697 6.95825C3.64697 5.23325 5.04697 3.83325 6.77197 3.83325ZM19.0178 10.4874C19.0178 10.4833 19.0178 10.4749 19.0136 10.4708V10.4666C18.9845 10.3958 18.9428 10.3374 18.8928 10.2833C18.8877 10.2769 18.8835 10.2699 18.8803 10.2624L17.2136 8.59575C16.9678 8.34992 16.572 8.34992 16.3303 8.59575C16.0886 8.84159 16.0845 9.23742 16.3303 9.47909L16.9261 10.0833H13.0178C12.672 10.0833 12.3928 10.3624 12.3928 10.7083C12.3928 11.0541 12.672 11.3333 13.0178 11.3333H16.9261L16.3261 11.9333C16.2677 11.991 16.2213 12.0598 16.1896 12.1356C16.1579 12.2114 16.1416 12.2928 16.1416 12.3749C16.1416 12.4571 16.1579 12.5384 16.1896 12.6143C16.2213 12.6901 16.2677 12.7588 16.3261 12.8166C16.447 12.9374 16.6095 12.9999 16.7678 12.9999C16.9261 12.9999 17.0886 12.9374 17.2095 12.8166L18.8761 11.1499C18.9303 11.0958 18.9678 11.0333 19.0011 10.9666C19.0095 10.9458 19.0178 10.9249 19.022 10.9041C19.0386 10.8541 19.047 10.8041 19.0511 10.7499C19.0511 10.7291 19.0553 10.7083 19.0553 10.6874C19.0553 10.6166 19.0428 10.5541 19.0178 10.4874Z" fill="white"/>
</svg>
