<svg width="21" height="21" viewBox="0 0 21 21" fill="none" xmlns="http://www.w3.org/2000/svg">
<path d="M7.60579 11.7499H5.93913C3.29746 11.7499 1.14746 13.8999 1.14746 16.5416V17.7916C1.14746 18.1374 1.42663 18.4166 1.77246 18.4166H11.7725C12.1183 18.4166 12.3975 18.1374 12.3975 17.7916V16.5416C12.3975 13.8999 10.2475 11.7499 7.60579 11.7499ZM11.1475 17.1666H2.39746V16.5416C2.39746 14.5874 3.98496 12.9999 5.93913 12.9999H7.60579C9.55996 12.9999 11.1475 14.5874 11.1475 16.5416V17.1666ZM6.77246 11.3333C9.18496 11.3333 11.1475 9.37075 11.1475 6.95825C11.1475 4.54575 9.18496 2.58325 6.77246 2.58325C4.35996 2.58325 2.39746 4.54575 2.39746 6.95825C2.39746 9.37075 4.35996 11.3333 6.77246 11.3333ZM6.77246 3.83325C8.49746 3.83325 9.89746 5.23325 9.89746 6.95825C9.89746 8.68325 8.49746 10.0833 6.77246 10.0833C5.04746 10.0833 3.64746 8.68325 3.64746 6.95825C3.64746 5.23325 5.04746 3.83325 6.77246 3.83325ZM19.0183 10.4874C19.0183 10.4833 19.0183 10.4749 19.0141 10.4708V10.4666C18.985 10.3958 18.9433 10.3374 18.8933 10.2833C18.8882 10.2769 18.884 10.2699 18.8808 10.2624L17.2141 8.59575C16.9683 8.34992 16.5725 8.34992 16.3308 8.59575C16.0891 8.84159 16.085 9.23742 16.3308 9.47909L16.9266 10.0833H13.0183C12.6725 10.0833 12.3933 10.3624 12.3933 10.7083C12.3933 11.0541 12.6725 11.3333 13.0183 11.3333H16.9266L16.3266 11.9333C16.2682 11.991 16.2218 12.0598 16.1901 12.1356C16.1584 12.2114 16.1421 12.2928 16.1421 12.3749C16.1421 12.4571 16.1584 12.5384 16.1901 12.6143C16.2218 12.6901 16.2682 12.7588 16.3266 12.8166C16.4475 12.9374 16.61 12.9999 16.7683 12.9999C16.9266 12.9999 17.0891 12.9374 17.21 12.8166L18.8766 11.1499C18.9308 11.0958 18.9683 11.0333 19.0016 10.9666C19.01 10.9458 19.0183 10.9249 19.0225 10.9041C19.0391 10.8541 19.0475 10.8041 19.0516 10.7499C19.0516 10.7291 19.0558 10.7083 19.0558 10.6874C19.0558 10.6166 19.0433 10.5541 19.0183 10.4874Z" fill="white"/>
</svg>
