<svg width="21" height="21" viewBox="0 0 21 21" fill="none" xmlns="http://www.w3.org/2000/svg">
<path d="M8.04915 11.7509H6.38249C3.74082 11.7509 1.59082 13.9009 1.59082 16.5426V17.7926C1.59082 18.1384 1.86999 18.4176 2.21582 18.4176H12.2158C12.5617 18.4176 12.8408 18.1384 12.8408 17.7926V16.5426C12.8408 13.9009 10.6908 11.7509 8.04915 11.7509ZM11.5908 17.1676H2.84082V16.5426C2.84082 14.5884 4.42832 13.0009 6.38249 13.0009H8.04915C10.0033 13.0009 11.5908 14.5884 11.5908 16.5426V17.1676ZM7.21582 11.3342C9.62832 11.3342 11.5908 9.37173 11.5908 6.95923C11.5908 4.54673 9.62832 2.58423 7.21582 2.58423C4.80332 2.58423 2.84082 4.54673 2.84082 6.95923C2.84082 9.37173 4.80332 11.3342 7.21582 11.3342ZM7.21582 3.83423C8.94082 3.83423 10.3408 5.23423 10.3408 6.95923C10.3408 8.68423 8.94082 10.0842 7.21582 10.0842C5.49082 10.0842 4.09082 8.68423 4.09082 6.95923C4.09082 5.23423 5.49082 3.83423 7.21582 3.83423ZM19.4617 10.4884C19.4617 10.4842 19.4617 10.4759 19.4575 10.4717V10.4676C19.4283 10.3967 19.3867 10.3384 19.3367 10.2842C19.3316 10.2779 19.3274 10.2709 19.3242 10.2634L17.6575 8.59673C17.4117 8.3509 17.0158 8.3509 16.7742 8.59673C16.5325 8.84256 16.5283 9.2384 16.7742 9.48006L17.37 10.0842H13.4617C13.1158 10.0842 12.8367 10.3634 12.8367 10.7092C12.8367 11.0551 13.1158 11.3342 13.4617 11.3342H17.37L16.77 11.9342C16.7115 11.992 16.6651 12.0607 16.6334 12.1366C16.6018 12.2124 16.5855 12.2937 16.5855 12.3759C16.5855 12.4581 16.6018 12.5394 16.6334 12.6152C16.6651 12.691 16.7115 12.7598 16.77 12.8176C16.8908 12.9384 17.0533 13.0009 17.2117 13.0009C17.37 13.0009 17.5325 12.9384 17.6533 12.8176L19.32 11.1509C19.3742 11.0967 19.4117 11.0342 19.445 10.9676C19.4533 10.9467 19.4617 10.9259 19.4658 10.9051C19.4825 10.8551 19.4908 10.8051 19.495 10.7509C19.495 10.7301 19.4992 10.7092 19.4992 10.6884C19.4992 10.6176 19.4867 10.5551 19.4617 10.4884Z" fill="white"/>
</svg>
