<svg width="20" height="21" viewBox="0 0 20 21" fill="none" xmlns="http://www.w3.org/2000/svg">
<path d="M7.50325 11.7499H5.83659C3.19492 11.7499 1.04492 13.8999 1.04492 16.5416V17.7916C1.04492 18.1374 1.32409 18.4166 1.66992 18.4166H11.6699C12.0158 18.4166 12.2949 18.1374 12.2949 17.7916V16.5416C12.2949 13.8999 10.1449 11.7499 7.50325 11.7499ZM11.0449 17.1666H2.29492V16.5416C2.29492 14.5874 3.88242 12.9999 5.83659 12.9999H7.50325C9.45742 12.9999 11.0449 14.5874 11.0449 16.5416V17.1666ZM6.66992 11.3333C9.08242 11.3333 11.0449 9.37075 11.0449 6.95825C11.0449 4.54575 9.08242 2.58325 6.66992 2.58325C4.25742 2.58325 2.29492 4.54575 2.29492 6.95825C2.29492 9.37075 4.25742 11.3333 6.66992 11.3333ZM6.66992 3.83325C8.39492 3.83325 9.79492 5.23325 9.79492 6.95825C9.79492 8.68325 8.39492 10.0833 6.66992 10.0833C4.94492 10.0833 3.54492 8.68325 3.54492 6.95825C3.54492 5.23325 4.94492 3.83325 6.66992 3.83325ZM18.9158 10.4874C18.9158 10.4833 18.9158 10.4749 18.9116 10.4708V10.4666C18.8824 10.3958 18.8408 10.3374 18.7908 10.2833C18.7857 10.2769 18.7815 10.2699 18.7783 10.2624L17.1116 8.59575C16.8658 8.34992 16.4699 8.34992 16.2283 8.59575C15.9866 8.84159 15.9824 9.23742 16.2283 9.47909L16.8241 10.0833H12.9158C12.5699 10.0833 12.2908 10.3624 12.2908 10.7083C12.2908 11.0541 12.5699 11.3333 12.9158 11.3333H16.8241L16.2241 11.9333C16.1656 11.991 16.1192 12.0598 16.0875 12.1356C16.0559 12.2114 16.0396 12.2928 16.0396 12.3749C16.0396 12.4571 16.0559 12.5384 16.0875 12.6143C16.1192 12.6901 16.1656 12.7588 16.2241 12.8166C16.3449 12.9374 16.5074 12.9999 16.6658 12.9999C16.8241 12.9999 16.9866 12.9374 17.1074 12.8166L18.7741 11.1499C18.8283 11.0958 18.8658 11.0333 18.8991 10.9666C18.9074 10.9458 18.9158 10.9249 18.9199 10.9041C18.9366 10.8541 18.9449 10.8041 18.9491 10.7499C18.9491 10.7291 18.9533 10.7083 18.9533 10.6874C18.9533 10.6166 18.9408 10.5541 18.9158 10.4874Z" fill="#2255A4"/>
</svg>
