<svg width="21" height="21" viewBox="0 0 21 21" fill="none" xmlns="http://www.w3.org/2000/svg">
<path d="M8.25423 11.7499H6.58756C3.9459 11.7499 1.7959 13.8999 1.7959 16.5416V17.7916C1.7959 18.1374 2.07507 18.4166 2.4209 18.4166H12.4209C12.7667 18.4166 13.0459 18.1374 13.0459 17.7916V16.5416C13.0459 13.8999 10.8959 11.7499 8.25423 11.7499ZM11.7959 17.1666H3.0459V16.5416C3.0459 14.5874 4.6334 12.9999 6.58756 12.9999H8.25423C10.2084 12.9999 11.7959 14.5874 11.7959 16.5416V17.1666ZM7.4209 11.3333C9.8334 11.3333 11.7959 9.37075 11.7959 6.95825C11.7959 4.54575 9.8334 2.58325 7.4209 2.58325C5.0084 2.58325 3.0459 4.54575 3.0459 6.95825C3.0459 9.37075 5.0084 11.3333 7.4209 11.3333ZM7.4209 3.83325C9.1459 3.83325 10.5459 5.23325 10.5459 6.95825C10.5459 8.68325 9.1459 10.0833 7.4209 10.0833C5.6959 10.0833 4.2959 8.68325 4.2959 6.95825C4.2959 5.23325 5.6959 3.83325 7.4209 3.83325ZM19.6667 10.4874C19.6667 10.4833 19.6667 10.4749 19.6626 10.4708V10.4666C19.6334 10.3958 19.5917 10.3374 19.5417 10.2833C19.5367 10.2769 19.5324 10.2699 19.5292 10.2624L17.8626 8.59575C17.6167 8.34992 17.2209 8.34992 16.9792 8.59575C16.7376 8.84159 16.7334 9.23742 16.9792 9.47909L17.5751 10.0833H13.6667C13.3209 10.0833 13.0417 10.3624 13.0417 10.7083C13.0417 11.0541 13.3209 11.3333 13.6667 11.3333H17.5751L16.9751 11.9333C16.9166 11.991 16.8702 12.0598 16.8385 12.1356C16.8068 12.2114 16.7905 12.2928 16.7905 12.3749C16.7905 12.4571 16.8068 12.5384 16.8385 12.6143C16.8702 12.6901 16.9166 12.7588 16.9751 12.8166C17.0959 12.9374 17.2584 12.9999 17.4167 12.9999C17.5751 12.9999 17.7376 12.9374 17.8584 12.8166L19.5251 11.1499C19.5792 11.0958 19.6167 11.0333 19.6501 10.9666C19.6584 10.9458 19.6667 10.9249 19.6709 10.9041C19.6876 10.8541 19.6959 10.8041 19.7001 10.7499C19.7001 10.7291 19.7042 10.7083 19.7042 10.6874C19.7042 10.6166 19.6917 10.5541 19.6667 10.4874Z" fill="white"/>
</svg>
