<svg width="21" height="21" viewBox="0 0 21 21" fill="none" xmlns="http://www.w3.org/2000/svg">
<path d="M8.20638 11.7509H6.53971C3.89805 11.7509 1.74805 13.9009 1.74805 16.5426V17.7926C1.74805 18.1384 2.02721 18.4176 2.37305 18.4176H12.373C12.7189 18.4176 12.998 18.1384 12.998 17.7926V16.5426C12.998 13.9009 10.848 11.7509 8.20638 11.7509ZM11.748 17.1676H2.99805V16.5426C2.99805 14.5884 4.58555 13.0009 6.53971 13.0009H8.20638C10.1605 13.0009 11.748 14.5884 11.748 16.5426V17.1676ZM7.37305 11.3342C9.78555 11.3342 11.748 9.37173 11.748 6.95923C11.748 4.54673 9.78555 2.58423 7.37305 2.58423C4.96055 2.58423 2.99805 4.54673 2.99805 6.95923C2.99805 9.37173 4.96055 11.3342 7.37305 11.3342ZM7.37305 3.83423C9.09805 3.83423 10.498 5.23423 10.498 6.95923C10.498 8.68423 9.09805 10.0842 7.37305 10.0842C5.64805 10.0842 4.24805 8.68423 4.24805 6.95923C4.24805 5.23423 5.64805 3.83423 7.37305 3.83423ZM19.6189 10.4884C19.6189 10.4842 19.6189 10.4759 19.6147 10.4717V10.4676C19.5855 10.3967 19.5439 10.3384 19.4939 10.2842C19.4888 10.2779 19.4846 10.2709 19.4814 10.2634L17.8147 8.59673C17.5689 8.3509 17.173 8.3509 16.9314 8.59673C16.6897 8.84256 16.6855 9.2384 16.9314 9.48006L17.5272 10.0842H13.6189C13.273 10.0842 12.9939 10.3634 12.9939 10.7092C12.9939 11.0551 13.273 11.3342 13.6189 11.3342H17.5272L16.9272 11.9342C16.8688 11.992 16.8223 12.0607 16.7907 12.1366C16.759 12.2124 16.7427 12.2937 16.7427 12.3759C16.7427 12.4581 16.759 12.5394 16.7907 12.6152C16.8223 12.691 16.8688 12.7598 16.9272 12.8176C17.048 12.9384 17.2105 13.0009 17.3689 13.0009C17.5272 13.0009 17.6897 12.9384 17.8105 12.8176L19.4772 11.1509C19.5314 11.0967 19.5689 11.0342 19.6022 10.9676C19.6105 10.9467 19.6189 10.9259 19.623 10.9051C19.6397 10.8551 19.648 10.8051 19.6522 10.7509C19.6522 10.7301 19.6564 10.7092 19.6564 10.6884C19.6564 10.6176 19.6439 10.5551 19.6189 10.4884Z" fill="white"/>
</svg>
