<svg width="21" height="21" viewBox="0 0 21 21" fill="none" xmlns="http://www.w3.org/2000/svg">
<path d="M7.60677 11.7507H5.9401C3.29844 11.7507 1.14844 13.9007 1.14844 16.5423V17.7923C1.14844 18.1382 1.4276 18.4173 1.77344 18.4173H11.7734C12.1193 18.4173 12.3984 18.1382 12.3984 17.7923V16.5423C12.3984 13.9007 10.2484 11.7507 7.60677 11.7507ZM11.1484 17.1673H2.39844V16.5423C2.39844 14.5882 3.98594 13.0007 5.9401 13.0007H7.60677C9.56094 13.0007 11.1484 14.5882 11.1484 16.5423V17.1673ZM6.77344 11.334C9.18594 11.334 11.1484 9.37148 11.1484 6.95898C11.1484 4.54648 9.18594 2.58398 6.77344 2.58398C4.36094 2.58398 2.39844 4.54648 2.39844 6.95898C2.39844 9.37148 4.36094 11.334 6.77344 11.334ZM6.77344 3.83398C8.49844 3.83398 9.89844 5.23398 9.89844 6.95898C9.89844 8.68398 8.49844 10.084 6.77344 10.084C5.04844 10.084 3.64844 8.68398 3.64844 6.95898C3.64844 5.23398 5.04844 3.83398 6.77344 3.83398ZM19.0193 10.4882C19.0193 10.484 19.0193 10.4757 19.0151 10.4715V10.4673C18.9859 10.3965 18.9443 10.3382 18.8943 10.284C18.8892 10.2776 18.885 10.2706 18.8818 10.2632L17.2151 8.59648C16.9693 8.35065 16.5734 8.35065 16.3318 8.59648C16.0901 8.84232 16.0859 9.23815 16.3318 9.47982L16.9276 10.084H13.0193C12.6734 10.084 12.3943 10.3632 12.3943 10.709C12.3943 11.0548 12.6734 11.334 13.0193 11.334H16.9276L16.3276 11.934C16.2691 11.9917 16.2227 12.0605 16.1911 12.1363C16.1594 12.2121 16.1431 12.2935 16.1431 12.3757C16.1431 12.4578 16.1594 12.5392 16.1911 12.615C16.2227 12.6908 16.2691 12.7596 16.3276 12.8173C16.4484 12.9382 16.6109 13.0007 16.7693 13.0007C16.9276 13.0007 17.0901 12.9382 17.2109 12.8173L18.8776 11.1507C18.9318 11.0965 18.9693 11.034 19.0026 10.9673C19.0109 10.9465 19.0193 10.9257 19.0234 10.9048C19.0401 10.8548 19.0484 10.8048 19.0526 10.7507C19.0526 10.7298 19.0568 10.709 19.0568 10.6882C19.0568 10.6173 19.0443 10.5548 19.0193 10.4882Z" fill="white"/>
</svg>
