<svg width="21" height="21" viewBox="0 0 21 21" fill="none" xmlns="http://www.w3.org/2000/svg">
<path d="M8.10775 11.7499H6.44108C3.79941 11.7499 1.64941 13.8999 1.64941 16.5416V17.7916C1.64941 18.1374 1.92858 18.4166 2.27441 18.4166H12.2744C12.6202 18.4166 12.8994 18.1374 12.8994 17.7916V16.5416C12.8994 13.8999 10.7494 11.7499 8.10775 11.7499ZM11.6494 17.1666H2.89941V16.5416C2.89941 14.5874 4.48691 12.9999 6.44108 12.9999H8.10775C10.0619 12.9999 11.6494 14.5874 11.6494 16.5416V17.1666ZM7.27441 11.3333C9.68691 11.3333 11.6494 9.37075 11.6494 6.95825C11.6494 4.54575 9.68691 2.58325 7.27441 2.58325C4.86191 2.58325 2.89941 4.54575 2.89941 6.95825C2.89941 9.37075 4.86191 11.3333 7.27441 11.3333ZM7.27441 3.83325C8.99941 3.83325 10.3994 5.23325 10.3994 6.95825C10.3994 8.68325 8.99941 10.0833 7.27441 10.0833C5.54941 10.0833 4.14941 8.68325 4.14941 6.95825C4.14941 5.23325 5.54941 3.83325 7.27441 3.83325ZM19.5202 10.4874C19.5202 10.4833 19.5202 10.4749 19.5161 10.4708V10.4666C19.4869 10.3958 19.4452 10.3374 19.3952 10.2833C19.3902 10.2769 19.386 10.2699 19.3827 10.2624L17.7161 8.59575C17.4702 8.34992 17.0744 8.34992 16.8327 8.59575C16.5911 8.84159 16.5869 9.23742 16.8327 9.47909L17.4286 10.0833H13.5202C13.1744 10.0833 12.8952 10.3624 12.8952 10.7083C12.8952 11.0541 13.1744 11.3333 13.5202 11.3333H17.4286L16.8286 11.9333C16.7701 11.991 16.7237 12.0598 16.692 12.1356C16.6604 12.2114 16.6441 12.2928 16.6441 12.3749C16.6441 12.4571 16.6604 12.5384 16.692 12.6143C16.7237 12.6901 16.7701 12.7588 16.8286 12.8166C16.9494 12.9374 17.1119 12.9999 17.2702 12.9999C17.4286 12.9999 17.5911 12.9374 17.7119 12.8166L19.3786 11.1499C19.4327 11.0958 19.4702 11.0333 19.5036 10.9666C19.5119 10.9458 19.5202 10.9249 19.5244 10.9041C19.5411 10.8541 19.5494 10.8041 19.5536 10.7499C19.5536 10.7291 19.5577 10.7083 19.5577 10.6874C19.5577 10.6166 19.5452 10.5541 19.5202 10.4874Z" fill="white"/>
</svg>
