<svg width="21" height="21" viewBox="0 0 21 21" fill="none" xmlns="http://www.w3.org/2000/svg">
<path d="M7.60872 11.7507H5.94206C3.30039 11.7507 1.15039 13.9007 1.15039 16.5423V17.7923C1.15039 18.1382 1.42956 18.4173 1.77539 18.4173H11.7754C12.1212 18.4173 12.4004 18.1382 12.4004 17.7923V16.5423C12.4004 13.9007 10.2504 11.7507 7.60872 11.7507ZM11.1504 17.1673H2.40039V16.5423C2.40039 14.5882 3.98789 13.0007 5.94206 13.0007H7.60872C9.56289 13.0007 11.1504 14.5882 11.1504 16.5423V17.1673ZM6.77539 11.334C9.18789 11.334 11.1504 9.37148 11.1504 6.95898C11.1504 4.54648 9.18789 2.58398 6.77539 2.58398C4.36289 2.58398 2.40039 4.54648 2.40039 6.95898C2.40039 9.37148 4.36289 11.334 6.77539 11.334ZM6.77539 3.83398C8.50039 3.83398 9.90039 5.23398 9.90039 6.95898C9.90039 8.68398 8.50039 10.084 6.77539 10.084C5.05039 10.084 3.65039 8.68398 3.65039 6.95898C3.65039 5.23398 5.05039 3.83398 6.77539 3.83398ZM19.0212 10.4882C19.0212 10.484 19.0212 10.4757 19.0171 10.4715V10.4673C18.9879 10.3965 18.9462 10.3382 18.8962 10.284C18.8911 10.2776 18.8869 10.2706 18.8837 10.2632L17.2171 8.59648C16.9712 8.35065 16.5754 8.35065 16.3337 8.59648C16.0921 8.84232 16.0879 9.23815 16.3337 9.47982L16.9296 10.084H13.0212C12.6754 10.084 12.3962 10.3632 12.3962 10.709C12.3962 11.0548 12.6754 11.334 13.0212 11.334H16.9296L16.3296 11.934C16.2711 11.9917 16.2247 12.0605 16.193 12.1363C16.1613 12.2121 16.145 12.2935 16.145 12.3757C16.145 12.4578 16.1613 12.5392 16.193 12.615C16.2247 12.6908 16.2711 12.7596 16.3296 12.8173C16.4504 12.9382 16.6129 13.0007 16.7712 13.0007C16.9296 13.0007 17.0921 12.9382 17.2129 12.8173L18.8796 11.1507C18.9337 11.0965 18.9712 11.034 19.0046 10.9673C19.0129 10.9465 19.0212 10.9257 19.0254 10.9048C19.0421 10.8548 19.0504 10.8048 19.0546 10.7507C19.0546 10.7298 19.0587 10.709 19.0587 10.6882C19.0587 10.6173 19.0462 10.5548 19.0212 10.4882Z" fill="white"/>
</svg>
