<svg width="21" height="21" viewBox="0 0 21 21" fill="none" xmlns="http://www.w3.org/2000/svg">
<path d="M7.70736 11.7509H6.04069C3.39902 11.7509 1.24902 13.9009 1.24902 16.5426V17.7926C1.24902 18.1384 1.52819 18.4176 1.87402 18.4176H11.874C12.2199 18.4176 12.499 18.1384 12.499 17.7926V16.5426C12.499 13.9009 10.349 11.7509 7.70736 11.7509ZM11.249 17.1676H2.49902V16.5426C2.49902 14.5884 4.08652 13.0009 6.04069 13.0009H7.70736C9.66152 13.0009 11.249 14.5884 11.249 16.5426V17.1676ZM6.87402 11.3342C9.28652 11.3342 11.249 9.37173 11.249 6.95923C11.249 4.54673 9.28652 2.58423 6.87402 2.58423C4.46152 2.58423 2.49902 4.54673 2.49902 6.95923C2.49902 9.37173 4.46152 11.3342 6.87402 11.3342ZM6.87402 3.83423C8.59902 3.83423 9.99902 5.23423 9.99902 6.95923C9.99902 8.68423 8.59902 10.0842 6.87402 10.0842C5.14902 10.0842 3.74902 8.68423 3.74902 6.95923C3.74902 5.23423 5.14902 3.83423 6.87402 3.83423ZM19.1199 10.4884C19.1199 10.4842 19.1199 10.4759 19.1157 10.4717V10.4676C19.0865 10.3967 19.0449 10.3384 18.9949 10.2842C18.9898 10.2779 18.9856 10.2709 18.9824 10.2634L17.3157 8.59673C17.0699 8.3509 16.674 8.3509 16.4324 8.59673C16.1907 8.84256 16.1865 9.2384 16.4324 9.48006L17.0282 10.0842H13.1199C12.774 10.0842 12.4949 10.3634 12.4949 10.7092C12.4949 11.0551 12.774 11.3342 13.1199 11.3342H17.0282L16.4282 11.9342C16.3697 11.992 16.3233 12.0607 16.2916 12.1366C16.26 12.2124 16.2437 12.2937 16.2437 12.3759C16.2437 12.4581 16.26 12.5394 16.2916 12.6152C16.3233 12.691 16.3697 12.7598 16.4282 12.8176C16.549 12.9384 16.7115 13.0009 16.8699 13.0009C17.0282 13.0009 17.1907 12.9384 17.3115 12.8176L18.9782 11.1509C19.0324 11.0967 19.0699 11.0342 19.1032 10.9676C19.1115 10.9467 19.1199 10.9259 19.124 10.9051C19.1407 10.8551 19.149 10.8051 19.1532 10.7509C19.1532 10.7301 19.1574 10.7092 19.1574 10.6884C19.1574 10.6176 19.1449 10.5551 19.1199 10.4884Z" fill="white"/>
</svg>
