<svg width="21" height="21" viewBox="0 0 21 21" fill="none" xmlns="http://www.w3.org/2000/svg">
<path d="M8.00716 11.3166H6.34049C3.69883 11.3166 1.54883 13.4666 1.54883 16.1082V17.3582C1.54883 17.7041 1.82799 17.9832 2.17383 17.9832H12.1738C12.5197 17.9832 12.7988 17.7041 12.7988 17.3582V16.1082C12.7988 13.4666 10.6488 11.3166 8.00716 11.3166ZM11.5488 16.7332H2.79883V16.1082C2.79883 14.1541 4.38633 12.5666 6.34049 12.5666H8.00716C9.96133 12.5666 11.5488 14.1541 11.5488 16.1082V16.7332ZM7.17383 10.8999C9.58633 10.8999 11.5488 8.9374 11.5488 6.5249C11.5488 4.1124 9.58633 2.1499 7.17383 2.1499C4.76133 2.1499 2.79883 4.1124 2.79883 6.5249C2.79883 8.9374 4.76133 10.8999 7.17383 10.8999ZM7.17383 3.3999C8.89883 3.3999 10.2988 4.7999 10.2988 6.5249C10.2988 8.2499 8.89883 9.6499 7.17383 9.6499C5.44883 9.6499 4.04883 8.2499 4.04883 6.5249C4.04883 4.7999 5.44883 3.3999 7.17383 3.3999ZM19.4197 10.0541C19.4197 10.0499 19.4197 10.0416 19.4155 10.0374V10.0332C19.3863 9.9624 19.3447 9.90407 19.2947 9.8499C19.2896 9.84355 19.2854 9.83654 19.2822 9.82907L17.6155 8.1624C17.3697 7.91657 16.9738 7.91657 16.7322 8.1624C16.4905 8.40824 16.4863 8.80407 16.7322 9.04574L17.328 9.6499H13.4197C13.0738 9.6499 12.7947 9.92907 12.7947 10.2749C12.7947 10.6207 13.0738 10.8999 13.4197 10.8999H17.328L16.728 11.4999C16.6695 11.5576 16.6231 11.6264 16.5915 11.7022C16.5598 11.7781 16.5435 11.8594 16.5435 11.9416C16.5435 12.0237 16.5598 12.1051 16.5915 12.1809C16.6231 12.2567 16.6695 12.3255 16.728 12.3832C16.8488 12.5041 17.0113 12.5666 17.1697 12.5666C17.328 12.5666 17.4905 12.5041 17.6113 12.3832L19.278 10.7166C19.3322 10.6624 19.3697 10.5999 19.403 10.5332C19.4113 10.5124 19.4197 10.4916 19.4238 10.4707C19.4405 10.4207 19.4488 10.3707 19.453 10.3166C19.453 10.2957 19.4572 10.2749 19.4572 10.2541C19.4572 10.1832 19.4447 10.1207 19.4197 10.0541Z" fill="white"/>
</svg>
