<svg width="20" height="21" viewBox="0 0 20 21" fill="none" xmlns="http://www.w3.org/2000/svg">
<g clip-path="url(#clip0_23_1761)">
<path d="M16.2967 3.39453H3.70333C3.31789 3.39453 2.94822 3.54765 2.67567 3.8202C2.40312 4.09276 2.25 4.46242 2.25 4.84786L2.25 16.4729C2.25 16.8583 2.40312 17.228 2.67567 17.5005C2.94822 17.7731 3.31789 17.9262 3.70333 17.9262H16.2967C16.6821 17.9262 17.0518 17.7731 17.3243 17.5005C17.5969 17.228 17.75 16.8583 17.75 16.4729V4.84786C17.75 4.46242 17.5969 4.09276 17.3243 3.8202C17.0518 3.54765 16.6821 3.39453 16.2967 3.39453ZM9.03167 13.5687V12.1162H11.9375V13.5695L9.03167 13.5687ZM11.9375 15.022V16.4729H9.03167V15.022H11.9375ZM3.70333 9.20953H7.57833V10.6629H3.70333V9.20953ZM9.03167 9.20953H11.9375V10.6629H9.03167V9.20953ZM9.03167 7.7562V6.3037H11.9375V7.7562H9.03167ZM7.57833 6.3037V7.7562H3.70333V6.3037H7.57833ZM3.70333 12.1162H7.57833V13.5695H3.70333V12.1162ZM13.3908 12.1162H16.2975V13.5695H13.3908V12.1162ZM13.3908 10.6629V9.20953H16.2975V10.6629H13.3908ZM13.3908 7.7562V6.3037H16.2975V7.7562H13.3908ZM3.70333 15.022H7.57833V16.4729H3.70333V15.022ZM13.3908 16.4729V15.022H16.2975V16.4729H13.3908Z" fill="#ED5826"/>
</g>
<defs>
<clipPath id="clip0_23_1761">
<rect width="20" height="20" fill="white" transform="translate(0 0.644531)"/>
</clipPath>
</defs>
</svg>
