<svg width="40" height="41" viewBox="0 0 40 41" fill="none" xmlns="http://www.w3.org/2000/svg">
<path d="M20.0002 3.99194C10.8002 3.99194 3.3335 11.4586 3.3335 20.6586C3.3335 29.8586 10.8002 37.3253 20.0002 37.3253C29.2002 37.3253 36.6668 29.8586 36.6668 20.6586C36.6668 11.4586 29.2002 3.99194 20.0002 3.99194ZM19.3502 25.3919C19.3502 27.2086 17.9335 28.6253 16.1168 28.6253H13.6502C11.8668 28.6253 10.4168 27.1753 10.4168 25.3919V20.9419C10.4168 15.8086 11.5335 14.6586 14.5168 12.8919C14.7168 12.7753 14.9335 12.7253 15.1502 12.7253C15.5835 12.7253 16.0002 12.9419 16.2335 13.3419C16.5835 13.9419 16.3835 14.7086 15.8002 15.0586C13.7835 16.2253 13.0835 16.6586 12.9502 19.6753H16.1335C17.9502 19.6753 19.3668 21.0919 19.3668 22.9086V25.3919H19.3502ZM29.5835 25.3919C29.5835 27.2086 28.1668 28.6253 26.3502 28.6253H23.8668C22.0835 28.6253 20.6335 27.1753 20.6335 25.3919V20.9419C20.6335 15.8086 21.7502 14.6586 24.7335 12.8919C24.9335 12.7753 25.1502 12.7253 25.3668 12.7253C25.8002 12.7253 26.2168 12.9419 26.4502 13.3419C26.8002 13.9419 26.6002 14.7086 26.0168 15.0586C24.0002 16.2586 23.3002 16.6919 23.1668 19.7086H26.3502C28.1668 19.7086 29.5835 21.1253 29.5835 22.9419V25.3919Z" fill="#ED5826"/>
</svg>
