<svg width="41" height="40" viewBox="0 0 41 40" fill="none" xmlns="http://www.w3.org/2000/svg">
<path d="M20.7502 3.33325C11.5502 3.33325 4.0835 10.7999 4.0835 19.9999C4.0835 29.1999 11.5502 36.6666 20.7502 36.6666C29.9502 36.6666 37.4168 29.1999 37.4168 19.9999C37.4168 10.7999 29.9502 3.33325 20.7502 3.33325ZM20.1002 24.7333C20.1002 26.5499 18.6835 27.9666 16.8668 27.9666H14.4002C12.6168 27.9666 11.1668 26.5166 11.1668 24.7333V20.2833C11.1668 15.1499 12.2835 13.9999 15.2668 12.2333C15.4668 12.1166 15.6835 12.0666 15.9002 12.0666C16.3335 12.0666 16.7502 12.2833 16.9835 12.6833C17.3335 13.2833 17.1335 14.0499 16.5502 14.3999C14.5335 15.5666 13.8335 15.9999 13.7002 19.0166H16.8835C18.7002 19.0166 20.1168 20.4333 20.1168 22.2499V24.7333H20.1002ZM30.3335 24.7333C30.3335 26.5499 28.9168 27.9666 27.1002 27.9666H24.6168C22.8335 27.9666 21.3835 26.5166 21.3835 24.7333V20.2833C21.3835 15.1499 22.5002 13.9999 25.4835 12.2333C25.6835 12.1166 25.9002 12.0666 26.1168 12.0666C26.5502 12.0666 26.9668 12.2833 27.2002 12.6833C27.5502 13.2833 27.3502 14.0499 26.7668 14.3999C24.7502 15.5999 24.0502 16.0333 23.9168 19.0499H27.1002C28.9168 19.0499 30.3335 20.4666 30.3335 22.2833V24.7333Z" fill="#ED5826"/>
</svg>
