<svg width="41" height="41" viewBox="0 0 41 41" fill="none" xmlns="http://www.w3.org/2000/svg">
<path d="M20.4997 3.99341C11.2997 3.99341 3.83301 11.4601 3.83301 20.6601C3.83301 29.8601 11.2997 37.3267 20.4997 37.3267C29.6997 37.3267 37.1663 29.8601 37.1663 20.6601C37.1663 11.4601 29.6997 3.99341 20.4997 3.99341ZM19.8497 25.3934C19.8497 27.2101 18.433 28.6267 16.6163 28.6267H14.1497C12.3663 28.6267 10.9163 27.1767 10.9163 25.3934V20.9434C10.9163 15.8101 12.033 14.6601 15.0163 12.8934C15.2163 12.7767 15.433 12.7267 15.6497 12.7267C16.083 12.7267 16.4997 12.9434 16.733 13.3434C17.083 13.9434 16.883 14.7101 16.2997 15.0601C14.283 16.2267 13.583 16.6601 13.4497 19.6767H16.633C18.4497 19.6767 19.8663 21.0934 19.8663 22.9101V25.3934H19.8497ZM30.083 25.3934C30.083 27.2101 28.6663 28.6267 26.8497 28.6267H24.3663C22.583 28.6267 21.133 27.1767 21.133 25.3934V20.9434C21.133 15.8101 22.2497 14.6601 25.233 12.8934C25.433 12.7767 25.6497 12.7267 25.8663 12.7267C26.2997 12.7267 26.7163 12.9434 26.9497 13.3434C27.2997 13.9434 27.0997 14.7101 26.5163 15.0601C24.4997 16.2601 23.7997 16.6934 23.6663 19.7101H26.8497C28.6663 19.7101 30.083 21.1267 30.083 22.9434V25.3934Z" fill="#ED5826"/>
</svg>
