<svg width="40" height="41" viewBox="0 0 40 41" fill="none" xmlns="http://www.w3.org/2000/svg">
<path d="M20.0007 3.99341C10.8007 3.99341 3.33398 11.4601 3.33398 20.6601C3.33398 29.8601 10.8007 37.3267 20.0007 37.3267C29.2007 37.3267 36.6673 29.8601 36.6673 20.6601C36.6673 11.4601 29.2007 3.99341 20.0007 3.99341ZM19.3507 25.3934C19.3507 27.2101 17.934 28.6267 16.1173 28.6267H13.6507C11.8673 28.6267 10.4173 27.1767 10.4173 25.3934V20.9434C10.4173 15.8101 11.534 14.6601 14.5173 12.8934C14.7173 12.7767 14.934 12.7267 15.1507 12.7267C15.584 12.7267 16.0007 12.9434 16.234 13.3434C16.584 13.9434 16.384 14.7101 15.8007 15.0601C13.784 16.2267 13.084 16.6601 12.9507 19.6767H16.134C17.9507 19.6767 19.3673 21.0934 19.3673 22.9101V25.3934H19.3507ZM29.584 25.3934C29.584 27.2101 28.1673 28.6267 26.3507 28.6267H23.8673C22.084 28.6267 20.634 27.1767 20.634 25.3934V20.9434C20.634 15.8101 21.7507 14.6601 24.734 12.8934C24.934 12.7767 25.1507 12.7267 25.3673 12.7267C25.8007 12.7267 26.2173 12.9434 26.4507 13.3434C26.8007 13.9434 26.6007 14.7101 26.0173 15.0601C24.0007 16.2601 23.3007 16.6934 23.1673 19.7101H26.3507C28.1673 19.7101 29.584 21.1267 29.584 22.9434V25.3934Z" fill="#ED5826"/>
</svg>
