<svg width="40" height="41" viewBox="0 0 40 41" fill="none" xmlns="http://www.w3.org/2000/svg">
<path d="M19.9997 3.99341C10.7997 3.99341 3.33301 11.4601 3.33301 20.6601C3.33301 29.8601 10.7997 37.3267 19.9997 37.3267C29.1997 37.3267 36.6663 29.8601 36.6663 20.6601C36.6663 11.4601 29.1997 3.99341 19.9997 3.99341ZM19.3497 25.3934C19.3497 27.2101 17.933 28.6267 16.1163 28.6267H13.6497C11.8663 28.6267 10.4163 27.1767 10.4163 25.3934V20.9434C10.4163 15.8101 11.533 14.6601 14.5163 12.8934C14.7163 12.7767 14.933 12.7267 15.1497 12.7267C15.583 12.7267 15.9997 12.9434 16.233 13.3434C16.583 13.9434 16.383 14.7101 15.7997 15.0601C13.783 16.2267 13.083 16.6601 12.9497 19.6767H16.133C17.9497 19.6767 19.3663 21.0934 19.3663 22.9101V25.3934H19.3497ZM29.583 25.3934C29.583 27.2101 28.1663 28.6267 26.3497 28.6267H23.8663C22.083 28.6267 20.633 27.1767 20.633 25.3934V20.9434C20.633 15.8101 21.7497 14.6601 24.733 12.8934C24.933 12.7767 25.1497 12.7267 25.3663 12.7267C25.7997 12.7267 26.2163 12.9434 26.4497 13.3434C26.7997 13.9434 26.5997 14.7101 26.0163 15.0601C23.9997 16.2601 23.2997 16.6934 23.1663 19.7101H26.3497C28.1663 19.7101 29.583 21.1267 29.583 22.9434V25.3934Z" fill="#ED5826"/>
</svg>
