<svg width="40" height="40" viewBox="0 0 40 40" fill="none" xmlns="http://www.w3.org/2000/svg">
<path d="M19.9997 3.33325C10.7997 3.33325 3.33301 10.7999 3.33301 19.9999C3.33301 29.1999 10.7997 36.6666 19.9997 36.6666C29.1997 36.6666 36.6663 29.1999 36.6663 19.9999C36.6663 10.7999 29.1997 3.33325 19.9997 3.33325ZM19.3497 24.7333C19.3497 26.5499 17.933 27.9666 16.1163 27.9666H13.6497C11.8663 27.9666 10.4163 26.5166 10.4163 24.7333V20.2833C10.4163 15.1499 11.533 13.9999 14.5163 12.2333C14.7163 12.1166 14.933 12.0666 15.1497 12.0666C15.583 12.0666 15.9997 12.2833 16.233 12.6833C16.583 13.2833 16.383 14.0499 15.7997 14.3999C13.783 15.5666 13.083 15.9999 12.9497 19.0166H16.133C17.9497 19.0166 19.3663 20.4333 19.3663 22.2499V24.7333H19.3497ZM29.583 24.7333C29.583 26.5499 28.1663 27.9666 26.3497 27.9666H23.8663C22.083 27.9666 20.633 26.5166 20.633 24.7333V20.2833C20.633 15.1499 21.7497 13.9999 24.733 12.2333C24.933 12.1166 25.1497 12.0666 25.3663 12.0666C25.7997 12.0666 26.2163 12.2833 26.4497 12.6833C26.7997 13.2833 26.5997 14.0499 26.0163 14.3999C23.9997 15.5999 23.2997 16.0333 23.1663 19.0499H26.3497C28.1663 19.0499 29.583 20.4666 29.583 22.2833V24.7333Z" fill="#ED5826"/>
</svg>
