<svg width="40" height="41" viewBox="0 0 40 41" fill="none" xmlns="http://www.w3.org/2000/svg">
<path d="M19.9999 3.99194C10.7999 3.99194 3.33325 11.4586 3.33325 20.6586C3.33325 29.8586 10.7999 37.3253 19.9999 37.3253C29.1999 37.3253 36.6666 29.8586 36.6666 20.6586C36.6666 11.4586 29.1999 3.99194 19.9999 3.99194ZM19.3499 25.3919C19.3499 27.2086 17.9333 28.6253 16.1166 28.6253H13.6499C11.8666 28.6253 10.4166 27.1753 10.4166 25.3919V20.9419C10.4166 15.8086 11.5333 14.6586 14.5166 12.8919C14.7166 12.7753 14.9333 12.7253 15.1499 12.7253C15.5833 12.7253 15.9999 12.9419 16.2333 13.3419C16.5833 13.9419 16.3833 14.7086 15.7999 15.0586C13.7833 16.2253 13.0833 16.6586 12.9499 19.6753H16.1333C17.9499 19.6753 19.3666 21.0919 19.3666 22.9086V25.3919H19.3499ZM29.5833 25.3919C29.5833 27.2086 28.1666 28.6253 26.3499 28.6253H23.8666C22.0833 28.6253 20.6333 27.1753 20.6333 25.3919V20.9419C20.6333 15.8086 21.7499 14.6586 24.7333 12.8919C24.9333 12.7753 25.1499 12.7253 25.3666 12.7253C25.7999 12.7253 26.2166 12.9419 26.4499 13.3419C26.7999 13.9419 26.5999 14.7086 26.0166 15.0586C23.9999 16.2586 23.2999 16.6919 23.1666 19.7086H26.3499C28.1666 19.7086 29.5833 21.1253 29.5833 22.9419V25.3919Z" fill="#ED5826"/>
</svg>
